<svg width="80" height="88" viewBox="0 0 80 88" fill="none" xmlns="http://www.w3.org/2000/svg">
<path d="M24.0773 36.7669C24.0773 36.7669 3.45407 36.6778 4.01108 54.049C4.23541 61.0449 13.4815 71.5721 26.2663 66.0555C29.3675 64.3576 34.2928 59.1426 35.3873 50.9564L40.1302 19.4848C41.0992 14.5988 45.3474 3.4398 59.6492 4.02193C65.061 4.32512 75.994 8.53345 76.4318 22.9412C76.4318 29.4774 73.1118 44.7348 65.669 58.415" stroke="white" stroke-width="6.39104" stroke-linecap="round" stroke-linejoin="round"/>
<path d="M51.24 60.3659C51.4546 59.0634 53.3274 59.0634 53.542 60.3659C54.5714 66.6157 59.4698 71.5141 65.7196 72.5435C67.0221 72.7581 67.0221 74.6309 65.7196 74.8455C59.4698 75.8749 54.5714 80.7733 53.542 87.0231C53.3274 88.3256 51.4546 88.3256 51.24 87.0231C50.2106 80.7733 45.3122 75.8749 39.0624 74.8455C37.7599 74.6309 37.7599 72.7581 39.0624 72.5435C45.3122 71.5141 50.2106 66.6157 51.24 60.3659Z" fill="white"/>
<path d="M19.5242 12.2182C19.7774 10.6811 21.9876 10.6811 22.2408 12.2183C22.709 15.0605 24.9367 17.2881 27.7789 17.7563C29.3161 18.0095 29.3161 20.2197 27.7789 20.4729C24.9367 20.9411 22.709 23.1688 22.2408 26.011C21.9876 27.5482 19.7774 27.5482 19.5242 26.011C19.0561 23.1688 16.8284 20.9411 13.9862 20.4729C12.449 20.2197 12.449 18.0095 13.9862 17.7563C16.8284 17.2881 19.0561 15.0605 19.5242 12.2182Z" fill="white"/>
</svg>
