<svg width="79" height="28" viewBox="0 0 79 28" fill="none" xmlns="http://www.w3.org/2000/svg">
<path d="M7.07 0.389998H9.02C9.47 0.389998 9.77 0.719999 9.77 1.17V3.54H15.05C15.5 3.54 15.8 3.84 15.8 4.29V5.52C15.8 5.97 15.5 6.27 15.05 6.27H1.07C0.56 6.27 0.23 5.94 0.23 5.43V4.38C0.23 3.87 0.56 3.54 1.07 3.54H6.32V1.17C6.32 0.719999 6.62 0.389998 7.07 0.389998ZM18.23 19.38V1.77C18.23 1.32 18.53 1.02 18.98 1.02H20.99C21.44 1.02 21.74 1.32 21.74 1.77V9.87H25.46C25.97 9.87 26.3 10.2 26.3 10.71V11.85C26.3 12.36 25.97 12.69 25.46 12.69H21.74V19.38C21.74 19.83 21.44 20.13 20.99 20.13H18.98C18.53 20.13 18.23 19.83 18.23 19.38ZM15.17 12.48C15.17 15.78 12.41 17.88 8.03 17.88C3.65 17.88 0.86 15.78 0.86 12.48C0.86 9.18 3.65 7.08 8.03 7.08C12.41 7.08 15.17 9.18 15.17 12.48ZM4.37 12.48C4.37 14.13 5.69 15.27 8.03 15.27C10.37 15.27 11.66 14.16 11.66 12.48C11.66 10.8 10.37 9.69 8.03 9.69C5.69 9.69 4.37 10.83 4.37 12.48ZM7.85 20.19C7.67 21.51 7.58 22.44 7.61 23.64C7.61 24.39 7.85 24.78 8.72 24.84C11.78 25.02 17.39 24.81 21.11 24.39C21.56 24.33 21.95 24.51 22.01 24.96L22.19 26.31C22.25 26.76 22.04 27.15 21.59 27.21C17.93 27.72 13.01 27.93 7.37 27.66C5.18 27.57 3.98 26.37 3.98 24.21C3.98 22.38 4.07 21.3 4.28 19.92C4.34 19.5 4.7 19.2 5.12 19.23L7.22 19.38C7.7 19.41 7.91 19.68 7.85 20.19ZM45.8277 27.12V1.77C45.8277 1.32 46.1277 1.02 46.5777 1.02H48.5877C49.0377 1.02 49.3377 1.32 49.3377 1.77V11.01H53.0577C53.5677 11.01 53.8977 11.34 53.8977 11.85V12.99C53.8977 13.5 53.5677 13.83 53.0577 13.83H49.3377V27.12C49.3377 27.57 49.0377 27.87 48.5877 27.87H46.5777C46.1277 27.87 45.8277 27.57 45.8277 27.12ZM37.5177 5.22C35.3577 5.1 32.2077 5.34 29.9277 5.7C29.4777 5.79 29.1477 5.49 29.0877 5.07L28.9077 3.72C28.8477 3.27 29.1177 2.97 29.5677 2.91C32.8677 2.37 35.8377 2.28 39.2577 2.49C41.3577 2.61 42.1677 3.87 41.5077 6.18C40.8177 8.61 39.7977 11.1 38.4477 13.62C40.6977 16.62 42.6477 19.98 44.2077 22.98C44.4477 23.37 44.4177 23.76 44.0277 23.94L41.9577 24.84C41.5377 25.02 41.2977 24.87 41.0877 24.45C39.8877 21.93 38.3877 19.23 36.6177 16.74C34.8777 19.5 32.8377 22.26 30.4977 24.93C30.1677 25.29 29.8077 25.32 29.4777 25.05L27.8877 23.73C27.5877 23.46 27.6477 23.01 27.9477 22.68C32.6877 17.28 36.4077 11.34 38.0577 5.97C38.1777 5.52 37.9977 5.25 37.5177 5.22ZM75.2553 27.12V1.77C75.2553 1.32 75.5553 1.02 76.0053 1.02H78.0153C78.4653 1.02 78.7653 1.32 78.7653 1.77V27.12C78.7653 27.57 78.4653 27.87 78.0153 27.87H76.0053C75.5553 27.87 75.2553 27.57 75.2553 27.12ZM68.2053 14.55H61.0053C60.4053 16.68 60.2553 18.51 60.3453 20.25C60.4053 21.39 61.0353 21.93 62.2653 21.93C65.7453 21.93 68.6553 21.51 71.5053 20.85C71.9853 20.73 72.3453 20.91 72.4653 21.39L72.7653 22.59C72.8853 23.07 72.6453 23.4 72.1653 23.52C68.1753 24.45 65.0253 24.87 60.9753 24.69C58.5753 24.57 57.2553 23.25 56.9253 21.18C56.5653 18.93 57.0453 15.45 57.9453 12.42C58.0653 12.03 58.3353 11.79 58.7853 11.79H65.9553C66.4053 10.05 66.5853 7.65 66.5253 6.33C66.4953 5.4 66.1053 4.8 65.2353 4.71C63.2253 4.53 60.8253 4.65 58.9953 5.01C58.5453 5.1 58.1853 4.89 58.0953 4.44L57.8553 3.18C57.7653 2.73 57.9453 2.37 58.3953 2.28C60.4653 1.83 62.9553 1.68 65.5653 1.89C68.6253 2.13 70.0953 3.6 70.0953 6.03C70.0953 8.31 69.7953 11.16 69.1353 13.92C69.0453 14.31 68.6853 14.55 68.2053 14.55Z" fill="white"/>
</svg>
