<svg width="48" height="48" viewBox="0 0 48 48" fill="none" xmlns="http://www.w3.org/2000/svg">
<path d="M27.5508 30.2686C27.6304 29.8045 28.3257 29.8045 28.4053 30.2686C28.7873 32.495 30.604 34.2397 32.9219 34.6064C33.4044 34.6832 33.4044 35.35 32.9219 35.4268C30.6039 35.7935 28.7871 37.539 28.4053 39.7656C28.3256 40.2295 27.6305 40.2294 27.5508 39.7656C27.169 37.539 25.3522 35.7935 23.0342 35.4268C22.5514 35.3501 22.5514 34.683 23.0342 34.6064C25.352 34.2397 27.1688 32.495 27.5508 30.2686ZM30.7266 8.75879L30.7471 8.75977C32.0011 8.82725 33.8179 9.313 35.373 10.5596C36.9817 11.8491 38.2364 13.8982 38.3311 16.8896C38.3315 16.9047 38.332 16.9205 38.332 16.9355C38.3318 19.5575 37.0116 25.2346 34.1533 30.2812C33.7622 30.9714 32.8857 31.2141 32.1953 30.8232C31.505 30.4322 31.2616 29.5556 31.6523 28.8652C34.3067 24.1788 35.4502 19.0015 35.457 16.9531C35.3829 14.8284 34.533 13.5689 33.5762 12.8018C32.5648 11.9911 31.3543 11.6721 30.6006 11.6299C28.4288 11.5487 27.1477 12.3777 26.3213 13.3174C25.4387 14.321 25.0304 15.5006 24.7832 16.1895V16.1904L24.7783 16.2051C24.775 16.2155 24.7708 16.23 24.7656 16.248C24.7552 16.2848 24.7422 16.3327 24.7275 16.3926C24.6978 16.5138 24.6632 16.6697 24.625 16.8574C24.5486 17.233 24.4625 17.7108 24.3701 18.2598C24.1854 19.3571 23.9821 20.7043 23.793 22.0176C23.6041 23.3291 23.4296 24.6005 23.3027 25.5439C23.2393 26.0153 23.1881 26.4055 23.1523 26.6768C23.1345 26.8123 23.1207 26.9192 23.1113 26.9912C23.1067 27.0269 23.103 27.0549 23.1006 27.0732C23.0994 27.0822 23.0982 27.0892 23.0977 27.0938C23.0974 27.0957 23.0968 27.0976 23.0967 27.0986V27.1006L23.0947 27.1143C22.6215 30.513 20.4958 32.7585 18.958 33.5674C18.9194 33.5877 18.8791 33.6064 18.8389 33.623C15.998 34.8004 13.4433 34.2789 11.6006 33.0127C9.8458 31.8069 8.65861 29.8583 8.59863 28.0654C8.53632 26.1961 9.07385 24.6997 9.98438 23.5518C10.8738 22.4306 12.048 21.7294 13.1377 21.2871C14.23 20.8438 15.3083 20.632 16.0977 20.5283C16.4961 20.476 16.8315 20.4494 17.0713 20.4365C17.1913 20.4301 17.2887 20.4274 17.3584 20.4258C17.393 20.425 17.4215 20.424 17.4424 20.4238H17.4814C17.482 20.4282 17.482 20.5048 17.4766 21.8223L17.4824 20.4238C18.276 20.4271 18.9174 21.0736 18.9141 21.8672C18.9104 22.6601 18.2646 23.2997 17.4717 23.2969V23.2979H17.4678C17.4597 23.2979 17.4447 23.2984 17.4238 23.2988C17.3816 23.2998 17.314 23.3019 17.2256 23.3066C17.0479 23.3162 16.7867 23.3356 16.4717 23.377C15.8334 23.4608 15.0124 23.6281 14.2188 23.9502C13.4223 24.2735 12.7218 24.7246 12.2354 25.3379C11.7702 25.9244 11.4299 26.7455 11.4707 27.9697C11.4942 28.6692 12.0628 29.8435 13.2285 30.6445C14.2944 31.3768 15.8029 31.7453 17.6738 30.9922C18.4524 30.5516 19.9171 29.0944 20.248 26.7178C20.2486 26.7138 20.2493 26.7087 20.25 26.7031C20.2525 26.6842 20.257 26.6555 20.2617 26.6191C20.2713 26.5461 20.2847 26.4384 20.3027 26.3018C20.3387 26.0282 20.3913 25.6356 20.4551 25.1611C20.5827 24.2122 20.7577 22.9317 20.9482 21.6084C21.1386 20.2867 21.3459 18.9137 21.5361 17.7832C21.7148 16.7218 21.9043 15.7024 22.0781 15.2178C22.3126 14.5645 22.873 12.8859 24.1631 11.4189C25.4661 9.93759 27.4722 8.71493 30.4365 8.75098L30.7266 8.75879ZM15.7871 13.1143C15.8812 12.5669 16.7008 12.5669 16.7949 13.1143C16.9685 14.1268 17.7946 14.921 18.8486 15.0879C19.4188 15.1781 19.4188 15.9655 18.8486 16.0557C17.7947 16.2226 16.9686 17.0159 16.7949 18.0283C16.701 18.576 15.881 18.576 15.7871 18.0283C15.6134 17.0158 14.7875 16.2225 13.7334 16.0557C13.1633 15.9655 13.1633 15.1781 13.7334 15.0879C14.7876 14.9211 15.6135 14.1269 15.7871 13.1143Z" fill="#ABCEF7"/>
</svg>
