<svg width="80" height="80" viewBox="0 0 80 80" fill="none" xmlns="http://www.w3.org/2000/svg">
<rect width="80" height="80" rx="10" fill="#F7F8FA"/>
<path d="M31.3421 35.8641C31.3421 35.8641 20.2784 35.8163 20.5772 45.1353C20.6976 48.8884 25.6578 54.5359 32.5164 51.5764C34.18 50.6655 36.8223 47.8679 37.4095 43.4762L39.9539 26.5928C40.4737 23.9716 42.7528 17.9852 50.4251 18.2975C53.3284 18.4602 59.1936 20.7178 59.4284 28.4471C59.4284 31.9535 57.6473 40.1386 53.6546 47.4775" stroke="#D1D8E6" stroke-width="3" stroke-linecap="round" stroke-linejoin="round"/>
<path d="M45.9139 48.5241C46.029 47.8253 47.0337 47.8253 47.1488 48.5241V48.5241C47.701 51.8769 50.3289 54.5047 53.6816 55.0569V55.0569C54.3804 55.172 54.3804 56.1768 53.6816 56.2919V56.2919C50.3289 56.8441 47.701 59.4719 47.1488 62.8247V62.8247C47.0337 63.5235 46.029 63.5235 45.9139 62.8247V62.8247C45.3616 59.4719 42.7338 56.8441 39.381 56.2919V56.2919C38.6822 56.1768 38.6822 55.172 39.381 55.0569V55.0569C42.7338 54.5047 45.3616 51.8769 45.9139 48.5241V48.5241Z" fill="#D1D8E6"/>
<path d="M28.8995 22.6947C29.0353 21.87 30.2211 21.87 30.3569 22.6947V22.6947C30.608 24.2194 31.8031 25.4145 33.3279 25.6656V25.6656C34.1525 25.8015 34.1525 26.9872 33.3279 27.123V27.123C31.8031 27.3742 30.608 28.5692 30.3569 30.094V30.094C30.2211 30.9186 29.0353 30.9186 28.8995 30.094V30.094C28.6484 28.5692 27.4533 27.3742 25.9285 27.123V27.123C25.1039 26.9872 25.1039 25.8015 25.9285 25.6656V25.6656C27.4533 25.4145 28.6484 24.2194 28.8995 22.6947V22.6947Z" fill="#D1D8E6"/>
</svg>
