<svg width="13" height="13" viewBox="0 0 13 13" fill="none" xmlns="http://www.w3.org/2000/svg">
<path fill-rule="evenodd" clip-rule="evenodd" d="M0.875 5.875C0.875 3.51798 0.875 2.33947 1.60723 1.60723C2.33947 0.875 3.51798 0.875 5.875 0.875H7.125C9.48202 0.875 10.6605 0.875 11.3928 1.60723C12.125 2.33947 12.125 3.51798 12.125 5.875V7.125C12.125 9.48202 12.125 10.6605 11.3928 11.3928C10.6605 12.125 9.48202 12.125 7.125 12.125H5.875C3.51798 12.125 2.33947 12.125 1.60723 11.3928C0.875 10.6605 0.875 9.48202 0.875 7.125V5.875ZM10.25 3.6875C10.25 4.20527 9.83027 4.625 9.3125 4.625C8.79473 4.625 8.375 4.20527 8.375 3.6875C8.375 3.16973 8.79473 2.75 9.3125 2.75C9.83027 2.75 10.25 3.16973 10.25 3.6875ZM7.75 7.125C7.75 7.81536 7.19036 8.375 6.5 8.375C5.80964 8.375 5.25 7.81536 5.25 7.125C5.25 6.43464 5.80964 5.875 6.5 5.875C7.19036 5.875 7.75 6.43464 7.75 7.125ZM9 7.125C9 8.50571 7.88071 9.625 6.5 9.625C5.11929 9.625 4 8.50571 4 7.125C4 5.74429 5.11929 4.625 6.5 4.625C7.88071 4.625 9 5.74429 9 7.125Z" fill="#989898"/>
</svg>
