<svg width="28" height="28" viewBox="0 0 28 28" fill="none" xmlns="http://www.w3.org/2000/svg">
<rect x="0.5" y="0.5" width="27" height="27" rx="5.5" fill="#ECEFF3"/>
<rect x="0.5" y="0.5" width="27" height="27" rx="5.5" stroke="#8FA3B7"/>
<path d="M16.3138 18.6667C16.5581 18.6667 16.7612 18.8785 16.7021 19.1281C16.4481 20.1957 15.3307 21 13.9908 21C12.5592 20.9997 11.3809 20.0815 11.2395 18.9048C11.2321 18.7759 11.33 18.6667 11.4526 18.6667H16.3138ZM13.9995 7C16.1049 7 17.8786 8.65963 18.1264 10.8623L18.2875 12.3013C18.3812 13.1333 18.6391 13.9355 19.0446 14.6562L19.5172 15.4959C19.8338 16.0588 19.9921 16.3403 19.9995 16.5703C20.0104 16.9097 19.8388 17.2263 19.5561 17.3895C19.3645 17.5 19.0535 17.5 18.4324 17.5H9.56648C8.94577 17.5 8.63548 17.5 8.4439 17.3895C8.16117 17.2264 7.98956 16.9097 8.00049 16.5703C8.00791 16.3403 8.16623 16.0588 8.48283 15.4959L8.95544 14.6562C9.36085 13.9355 9.61881 13.1333 9.71247 12.3013L9.87362 10.8623C10.1214 8.65981 11.8942 7.00026 13.9995 7Z" fill="#8FA3B7"/>
</svg>
