<svg width="28" height="28" viewBox="0 0 28 28" fill="none" xmlns="http://www.w3.org/2000/svg">
<path d="M16.1543 17.793C16.2028 17.5127 16.6223 17.5127 16.6709 17.793C16.902 19.1407 18.0023 20.197 19.4053 20.4189C19.6975 20.4653 19.6975 20.8697 19.4053 20.916C18.0023 21.138 16.902 22.1943 16.6709 23.542C16.6225 23.8225 16.2026 23.8226 16.1543 23.542C15.9232 22.1943 14.8239 21.138 13.4209 20.916C13.1285 20.8698 13.1285 20.4652 13.4209 20.4189C14.8239 20.1969 15.9232 19.1406 16.1543 17.793ZM18.0762 4.77441H18.0889C18.8477 4.81525 19.9475 5.10909 20.8887 5.86328C21.8623 6.64371 22.6213 7.8849 22.6787 9.69531C22.679 9.70427 22.6797 9.71369 22.6797 9.72266C22.6797 11.3094 21.8805 14.746 20.1504 17.8008C19.9137 18.2187 19.3828 18.3656 18.9648 18.1289C18.5473 17.8921 18.4001 17.3611 18.6367 16.9434C20.2408 14.1111 20.9333 10.9827 20.9395 9.73926C20.8958 8.44999 20.3808 7.68563 19.8008 7.2207C19.1869 6.7288 18.4519 6.53634 17.9961 6.51172V6.51074C16.6843 6.46277 15.9099 6.96518 15.4102 7.5332C14.8761 8.14044 14.6292 8.85447 14.4795 9.27148H14.4785V9.27344C14.478 9.27504 14.4766 9.2783 14.4756 9.28125C14.4737 9.28739 14.4717 9.2962 14.4688 9.30664C14.4624 9.32885 14.4542 9.35828 14.4453 9.39453C14.4273 9.46785 14.4069 9.56224 14.3838 9.67578C14.3376 9.90301 14.2844 10.1922 14.2285 10.5244C14.1168 11.1885 13.9944 12.0041 13.8799 12.7988C13.7656 13.5926 13.6598 14.3625 13.583 14.9336C13.5446 15.2188 13.5138 15.4549 13.4922 15.6191C13.4814 15.701 13.4725 15.7659 13.4668 15.8096C13.4641 15.8306 13.4624 15.8473 13.4609 15.8584C13.4603 15.8635 13.4594 15.8683 13.459 15.8711C13.4588 15.8722 13.459 15.8741 13.459 15.875H13.458V15.876L13.457 15.8838C13.1707 17.941 11.8839 19.3004 10.9531 19.79C10.9298 19.8023 10.9052 19.8132 10.8809 19.8232C9.16146 20.5358 7.6153 20.2205 6.5 19.4541C5.43804 18.7242 4.7189 17.545 4.68262 16.46C4.64495 15.3285 4.9713 14.4223 5.52246 13.7275C6.06082 13.0492 6.77123 12.6241 7.43066 12.3564C8.09182 12.0881 8.74497 11.9602 9.22266 11.8975C9.46376 11.8658 9.66647 11.8496 9.81152 11.8418C9.88421 11.8379 9.94317 11.8359 9.98535 11.835C10.0063 11.8345 10.0235 11.8351 10.0361 11.835C10.0424 11.8349 10.0477 11.834 10.0518 11.834H10.0605C10.5407 11.836 10.9285 12.2279 10.9268 12.708C10.9247 13.158 10.581 13.5264 10.1426 13.5693L10.0537 13.5742H10.0244C9.99889 13.5748 9.95842 13.5762 9.90527 13.5791C9.79774 13.5849 9.63897 13.597 9.44824 13.6221C9.062 13.6728 8.56519 13.7739 8.08496 13.9688C7.60296 14.1644 7.17924 14.4376 6.88477 14.8086C6.60322 15.1635 6.39732 15.6606 6.42188 16.4014C6.43601 16.8247 6.77979 17.5356 7.48535 18.0205C8.12992 18.4634 9.04181 18.6866 10.1729 18.2324C10.6434 17.9678 11.5337 17.0851 11.7344 15.6436C11.7347 15.6412 11.7349 15.638 11.7354 15.6348C11.7368 15.6233 11.7393 15.6058 11.7422 15.584C11.748 15.5398 11.7568 15.4748 11.7676 15.3926C11.7894 15.227 11.8208 14.989 11.8594 14.7021C11.9366 14.1278 12.0429 13.3517 12.1582 12.5508C12.2734 11.7511 12.3986 10.9203 12.5137 10.2363C12.6218 9.59393 12.7366 8.97683 12.8418 8.68359C12.9838 8.28802 13.3227 7.27153 14.1035 6.38379C14.9176 5.45838 16.1855 4.70055 18.0762 4.77441ZM9.03418 7.41113C9.09102 7.07966 9.58769 7.07966 9.64453 7.41113C9.74972 8.02391 10.2497 8.50453 10.8877 8.60547C11.2324 8.6603 11.2325 9.13666 10.8877 9.19141C10.2498 9.29233 9.74981 9.7721 9.64453 10.3848C9.58769 10.7162 9.09102 10.7162 9.03418 10.3848C8.92892 9.77208 8.42891 9.29234 7.79102 9.19141C7.44599 9.1368 7.44607 8.66016 7.79102 8.60547C8.42899 8.50453 8.92901 8.02393 9.03418 7.41113Z" fill="url(#paint0_linear_1403_6243)"/>
<defs>
<linearGradient id="paint0_linear_1403_6243" x1="13.6797" y1="4.76953" x2="13.6797" y2="23.7524" gradientUnits="userSpaceOnUse">
<stop stop-color="#0A3467"/>
<stop offset="1" stop-color="#0E4C95"/>
</linearGradient>
</defs>
</svg>
