<svg width="13" height="10" viewBox="0 0 13 10" fill="none" xmlns="http://www.w3.org/2000/svg">
<path fill-rule="evenodd" clip-rule="evenodd" d="M0.251086 3.25H12.7489C12.7413 1.89061 12.6811 1.15441 12.2008 0.674175C11.6517 0.125 10.7678 0.125 9 0.125H4C2.23223 0.125 1.34835 0.125 0.799175 0.674175C0.318935 1.15441 0.258653 1.89061 0.251086 3.25ZM12.75 4.5H0.25V5.75C0.25 7.51777 0.25 8.40165 0.799175 8.95083C1.34835 9.5 2.23223 9.5 4 9.5H9C10.7678 9.5 11.6517 9.5 12.2008 8.95083C12.75 8.40165 12.75 7.51777 12.75 5.75V4.5ZM3.375 6.375C3.02982 6.375 2.75 6.65482 2.75 7C2.75 7.34518 3.02982 7.625 3.375 7.625H3.38125C3.72643 7.625 4.00625 7.34518 4.00625 7C4.00625 6.65482 3.72643 6.375 3.38125 6.375H3.375Z" fill="#989898"/>
</svg>
