<svg width="16" height="16" viewBox="0 0 16 16" fill="none" xmlns="http://www.w3.org/2000/svg">
<path d="M11.5996 4C12.731 4 13.297 4.00009 13.6484 4.35156C13.9999 4.70303 14 5.26902 14 6.40039V10C14 11.1314 13.9999 11.6974 13.6484 12.0488C13.297 12.4001 12.7308 12.4004 11.5996 12.4004H4.40039C3.26923 12.4004 2.70305 12.4001 2.35156 12.0488C2.00009 11.6974 2 11.1314 2 10V6.40039C2 5.26902 2.00009 4.70303 2.35156 4.35156C2.70303 4.00009 3.26902 4 4.40039 4H11.5996ZM11 10C10.6688 10 10.4006 10.2684 10.4004 10.5996C10.4004 10.931 10.6686 11.1992 11 11.1992H12.2002C12.5315 11.1991 12.7998 10.9309 12.7998 10.5996C12.7996 10.2685 12.5313 10.0001 12.2002 10H11ZM8 6.40039C7.00604 6.4005 6.2003 7.20624 6.2002 8.2002C6.20041 9.19406 7.00611 9.99989 8 10C8.99389 9.99989 9.79959 9.19406 9.7998 8.2002C9.7997 7.20624 8.99396 6.4005 8 6.40039ZM8 7.60059C8.33122 7.60069 8.60048 7.86898 8.60059 8.2002C8.60037 8.53132 8.33115 8.80068 8 8.80078C7.66885 8.80068 7.4006 8.53132 7.40039 8.2002C7.4005 7.86898 7.66878 7.60069 8 7.60059ZM3.7998 5.2002C3.46859 5.2003 3.2003 5.46859 3.2002 5.7998C3.2002 6.13111 3.46852 6.39931 3.7998 6.39941H5C5.33128 6.39931 5.59961 6.13111 5.59961 5.7998C5.5995 5.46859 5.33122 5.2003 5 5.2002H3.7998Z" fill="#8FA3B7"/>
</svg>
