<svg width="36" height="36" viewBox="0 0 36 36" fill="none" xmlns="http://www.w3.org/2000/svg">
<g clip-path="url(#clip0_3309_3115)">
<path d="M36 34.5001C36 34.8979 35.842 35.2794 35.5607 35.5607C35.2794 35.842 34.8979 36.0001 34.5 36.0001H1.50004C1.10221 36.0001 0.720681 35.842 0.439377 35.5607C0.158072 35.2794 3.69356e-05 34.8979 3.69356e-05 34.5001C3.69356e-05 34.1022 0.158072 33.7207 0.439377 33.4394C0.720681 33.1581 1.10221 33.0001 1.50004 33.0001H34.5C34.8979 33.0001 35.2794 33.1581 35.5607 33.4394C35.842 33.7207 36 34.1022 36 34.5001ZM0.436537 12.8281C0.11332 12.2285 -0.0364211 11.5508 0.00411758 10.8709C0.0446562 10.191 0.273871 9.53591 0.666037 8.97905C1.30692 8.03873 2.1652 7.26689 3.16804 6.72905L14.4195 0.873052C15.5254 0.297999 16.7536 -0.00222778 18 -0.00222778C19.2465 -0.00222778 20.4746 0.297999 21.5805 0.873052L32.8305 6.73355C33.8334 7.27139 34.6917 8.04323 35.3325 8.98355C35.7247 9.54041 35.9539 10.1955 35.9945 10.8754C36.035 11.5553 35.8853 12.233 35.562 12.8326C35.2141 13.4908 34.6922 14.041 34.0532 14.4231C33.4142 14.8053 32.6826 15.0049 31.938 15.0001H31.5V27.0001H33C33.3979 27.0001 33.7794 27.1581 34.0607 27.4394C34.342 27.7207 34.5 28.1022 34.5 28.5001C34.5 28.8979 34.342 29.2794 34.0607 29.5607C33.7794 29.842 33.3979 30.0001 33 30.0001H3.00004C2.60221 30.0001 2.22068 29.842 1.93938 29.5607C1.65807 29.2794 1.50004 28.8979 1.50004 28.5001C1.50004 28.1022 1.65807 27.7207 1.93938 27.4394C2.22068 27.1581 2.60221 27.0001 3.00004 27.0001H4.50004V15.0001H4.06204C3.31677 15.0047 2.58455 14.8046 1.94522 14.4216C1.30589 14.0386 0.784025 13.4874 0.436537 12.8281ZM7.50004 27.0001H12V15.0001H7.50004V27.0001ZM15 15.0001V27.0001H21V15.0001H15ZM28.5 15.0001H24V27.0001H28.5V15.0001ZM3.09454 11.4376C3.18865 11.6111 3.32871 11.7553 3.49936 11.8546C3.67001 11.9538 3.86468 12.0041 4.06204 12.0001H31.938C32.1354 12.0041 32.3301 11.9538 32.5007 11.8546C32.6714 11.7553 32.8114 11.6111 32.9055 11.4376C32.9741 11.3229 33.0072 11.1905 33.0008 11.0571C32.9944 10.9237 32.9488 10.7951 32.8695 10.6876C32.5061 10.1474 32.0178 9.70286 31.446 9.39155L20.196 3.53105C19.518 3.17919 18.7654 2.99551 18.0015 2.99551C17.2377 2.99551 16.485 3.17919 15.807 3.53105L4.55704 9.39155C3.98551 9.70387 3.49733 10.1488 3.13354 10.6891C3.05417 10.7962 3.00814 10.9243 3.0012 11.0574C2.99427 11.1906 3.02673 11.3228 3.09454 11.4376Z" fill="url(#paint0_linear_3309_3115)"/>
</g>
<defs>
<linearGradient id="paint0_linear_3309_3115" x1="17.9993" y1="-0.00222778" x2="17.9993" y2="36.0001" gradientUnits="userSpaceOnUse">
<stop stop-color="#0D2138"/>
<stop offset="1" stop-color="#0F2948"/>
</linearGradient>
<clipPath id="clip0_3309_3115">
<rect width="36" height="36" fill="white"/>
</clipPath>
</defs>
</svg>
