<svg width="46" height="46" viewBox="0 0 46 46" fill="none" xmlns="http://www.w3.org/2000/svg">
<g clip-path="url(#clip0_1894_1906)">
<path d="M13.4288 21.7499H8C8.00198 20.0929 8.6611 18.5044 9.83277 17.3327C11.0044 16.161 12.593 15.5019 14.25 15.4999H21.75V10.0449C21.7502 9.70082 21.8372 9.36235 22.0029 9.06079C22.1686 8.75923 22.4077 8.50433 22.6981 8.31967C22.9884 8.135 23.3206 8.02652 23.664 8.00428C24.0073 7.98204 24.3508 8.04674 24.6625 8.1924L28.6625 10.0674C28.8434 10.1795 28.9927 10.3359 29.0962 10.5219C29.1997 10.7078 29.254 10.9171 29.254 11.1299C29.254 11.3427 29.1997 11.552 29.0962 11.7379C28.9927 11.9239 28.8434 12.0803 28.6625 12.1924L24.25 14.2499V15.4999H31.75C33.407 15.5019 34.9956 16.161 36.1672 17.3327C37.3389 18.5044 37.998 20.0929 38 21.7499H32.5712C31.5946 21.7502 30.6565 21.3695 29.9563 20.6887L26.5363 16.9649C25.5804 16.0431 24.3022 15.5311 22.9742 15.5381C21.6463 15.5451 20.3736 16.0705 19.4275 17.0024L16.08 20.6512C15.3756 21.3525 14.4228 21.7474 13.4288 21.7499ZM23 31.75C22.6685 31.75 22.3505 31.8817 22.1161 32.1161C21.8817 32.3505 21.75 32.6685 21.75 33V38H24.25V33C24.25 32.6685 24.1183 32.3505 23.8839 32.1161C23.6495 31.8817 23.3315 31.75 23 31.75ZM32.5712 24.25H38V34.25C38 35.2446 37.6049 36.1984 36.9017 36.9016C36.1984 37.6049 35.2446 38 34.25 38H26.75V33C26.75 32.0054 26.3549 31.0516 25.6517 30.3483C24.9484 29.6451 23.9946 29.25 23 29.25C22.0054 29.25 21.0516 29.6451 20.3483 30.3483C19.6451 31.0516 19.25 32.0054 19.25 33V38H11.75C10.7554 38 9.80161 37.6049 9.09835 36.9016C8.39509 36.1984 8 35.2446 8 34.25V24.25H13.4288C14.2585 24.2502 15.0799 24.0851 15.845 23.7643C16.6102 23.4434 17.3037 22.9732 17.885 22.3812L21.2325 18.7324C21.7052 18.289 22.3271 18.039 22.9752 18.0321C23.6233 18.0251 24.2504 18.2617 24.7325 18.6949L28.155 22.4187C28.7336 23.0006 29.4218 23.462 30.1798 23.7764C30.9379 24.0907 31.7507 24.2516 32.5712 24.25ZM15.5 34.25C15.5 33.9185 15.3683 33.6005 15.1339 33.3661C14.8995 33.1317 14.5815 33 14.25 33H13C12.6685 33 12.3505 33.1317 12.1161 33.3661C11.8817 33.6005 11.75 33.9185 11.75 34.25C11.75 34.5815 11.8817 34.8995 12.1161 35.1339C12.3505 35.3683 12.6685 35.5 13 35.5H14.25C14.5815 35.5 14.8995 35.3683 15.1339 35.1339C15.3683 34.8995 15.5 34.5815 15.5 34.25ZM15.5 29.25C15.5 28.9184 15.3683 28.6005 15.1339 28.3661C14.8995 28.1317 14.5815 28 14.25 28H13C12.6685 28 12.3505 28.1317 12.1161 28.3661C11.8817 28.6005 11.75 28.9184 11.75 29.25C11.75 29.5815 11.8817 29.8994 12.1161 30.1339C12.3505 30.3683 12.6685 30.5 13 30.5H14.25C14.5815 30.5 14.8995 30.3683 15.1339 30.1339C15.3683 29.8994 15.5 29.5815 15.5 29.25ZM25.5 24.25C25.5 23.7555 25.3534 23.2722 25.0787 22.861C24.804 22.4499 24.4135 22.1295 23.9567 21.9402C23.4999 21.751 22.9972 21.7015 22.5123 21.798C22.0273 21.8944 21.5819 22.1326 21.2322 22.4822C20.8826 22.8318 20.6445 23.2773 20.548 23.7622C20.4516 24.2472 20.5011 24.7499 20.6903 25.2067C20.8795 25.6635 21.2 26.0539 21.6111 26.3286C22.0222 26.6033 22.5055 26.75 23 26.75C23.663 26.75 24.2989 26.4866 24.7678 26.0177C25.2366 25.5489 25.5 24.913 25.5 24.25ZM34.25 34.25C34.25 33.9185 34.1183 33.6005 33.8839 33.3661C33.6495 33.1317 33.3315 33 33 33H31.75C31.4185 33 31.1005 33.1317 30.8661 33.3661C30.6317 33.6005 30.5 33.9185 30.5 34.25C30.5 34.5815 30.6317 34.8995 30.8661 35.1339C31.1005 35.3683 31.4185 35.5 31.75 35.5H33C33.3315 35.5 33.6495 35.3683 33.8839 35.1339C34.1183 34.8995 34.25 34.5815 34.25 34.25ZM33 28H31.75C31.4185 28 31.1005 28.1317 30.8661 28.3661C30.6317 28.6005 30.5 28.9184 30.5 29.25C30.5 29.5815 30.6317 29.8994 30.8661 30.1339C31.1005 30.3683 31.4185 30.5 31.75 30.5H33C33.3315 30.5 33.6495 30.3683 33.8839 30.1339C34.1183 29.8994 34.25 29.5815 34.25 29.25C34.25 28.9184 34.1183 28.6005 33.8839 28.3661C33.6495 28.1317 33.3315 28 33 28Z" fill="url(#paint0_linear_1894_1906)"/>
</g>
<defs>
<linearGradient id="paint0_linear_1894_1906" x1="23" y1="8" x2="23" y2="38" gradientUnits="userSpaceOnUse">
<stop stop-color="#1F7DEA"/>
<stop offset="1" stop-color="#1264C4"/>
</linearGradient>
<clipPath id="clip0_1894_1906">
<rect width="38" height="38" fill="white" transform="translate(4 4)"/>
</clipPath>
</defs>
</svg>
