<svg width="28" height="28" viewBox="0 0 28 28" fill="none" xmlns="http://www.w3.org/2000/svg">
<path d="M19.2929 7.29289C19.6834 6.90237 20.3164 6.90237 20.707 7.29289C21.0975 7.68342 21.0975 8.31643 20.707 8.70696L8.70696 20.707C8.31643 21.0975 7.68342 21.0975 7.29289 20.707C6.90237 20.3164 6.90237 19.6834 7.29289 19.2929L19.2929 7.29289Z" fill="#1C232C"/>
<path d="M8.70711 7.29289C8.31658 6.90237 7.68357 6.90237 7.29304 7.29289C6.90252 7.68342 6.90252 8.31643 7.29304 8.70696L19.293 20.707C19.6836 21.0975 20.3166 21.0975 20.7071 20.707C21.0976 20.3164 21.0976 19.6834 20.7071 19.2929L8.70711 7.29289Z" fill="#1C232C"/>
</svg>
