<svg width="46" height="46" viewBox="0 0 46 46" fill="none" xmlns="http://www.w3.org/2000/svg">
<g clip-path="url(#clip0_1894_1919)">
<path d="M39 18.2194V33.9119C39 34.2731 38.8595 34.6196 38.6095 34.8751C38.3594 35.1306 38.0203 35.2741 37.6667 35.2741C37.313 35.2741 36.9739 35.1306 36.7238 34.8751C36.4738 34.6196 36.3333 34.2731 36.3333 33.9119V22.6765L26.4666 27.4932C25.4263 28.1206 24.2386 28.4473 23.0306 28.4386C21.7637 28.4406 20.5199 28.0928 19.4306 27.4319L9.59056 22.6465C8.81706 22.2216 8.16897 21.5929 7.71351 20.8258C7.25806 20.0586 7.01184 19.1809 7.00042 18.2837C6.98899 17.3866 7.21276 16.5026 7.64852 15.7236C8.08428 14.9446 8.71615 14.2989 9.47856 13.8536C9.51456 13.8318 9.55322 13.8113 9.59056 13.7923L19.5333 8.94557C20.6067 8.31578 21.8249 7.98948 23.0627 8.00026C24.3005 8.01103 25.5132 8.35848 26.576 9.00687L36.4093 13.7923C37.1852 14.2309 37.8337 14.8715 38.2887 15.6491C38.7437 16.4267 38.9891 17.3135 39 18.2194ZM23.0293 31.1602C21.3234 31.1641 19.6468 30.7073 18.1693 29.8362L12.3332 26.9906V30.6685C12.334 32.1227 12.7897 33.5385 13.6338 34.7094C14.4779 35.8803 15.6662 36.7449 17.0253 37.1771C18.967 37.7466 20.9799 38.0234 22.9999 37.9985C25.0203 38.0216 27.0331 37.743 28.9746 37.1716C30.3337 36.7394 31.522 35.8748 32.3661 34.7039C33.2102 33.5331 33.6659 32.1172 33.6666 30.663V26.9974L27.7213 29.8988C26.2941 30.7365 24.6752 31.1727 23.0293 31.163V31.1602Z" fill="url(#paint0_linear_1894_1919)"/>
</g>
<defs>
<linearGradient id="paint0_linear_1894_1919" x1="23" y1="8" x2="23" y2="38" gradientUnits="userSpaceOnUse">
<stop stop-color="#1F7DEA"/>
<stop offset="1" stop-color="#1264C4"/>
</linearGradient>
<clipPath id="clip0_1894_1919">
<rect width="38" height="38" fill="white" transform="translate(4 4)"/>
</clipPath>
</defs>
</svg>
