<svg width="36" height="36" viewBox="0 0 36 36" fill="none" xmlns="http://www.w3.org/2000/svg">
<g clip-path="url(#clip0_3309_3118)">
<path d="M7.49975 21C8.32818 21 8.99975 20.3284 8.99975 19.5C8.99975 18.6716 8.32818 18 7.49975 18C6.67133 18 5.99976 18.6716 5.99976 19.5C5.99976 20.3284 6.67133 21 7.49975 21Z" fill="url(#paint0_linear_3309_3118)"/>
<path d="M1.5 15.0002C2.32843 15.0002 3 14.3286 3 13.5002C3 12.6718 2.32843 12.0002 1.5 12.0002C0.671573 12.0002 0 12.6718 0 13.5002C0 14.3286 0.671573 15.0002 1.5 15.0002Z" fill="url(#paint1_linear_3309_3118)"/>
<path d="M7.49975 8.99975C8.32818 8.99975 8.99975 8.32818 8.99975 7.49975C8.99975 6.67133 8.32818 5.99976 7.49975 5.99976C6.67133 5.99976 5.99976 6.67133 5.99976 7.49975C5.99976 8.32818 6.67133 8.99975 7.49975 8.99975Z" fill="url(#paint2_linear_3309_3118)"/>
<path d="M1.5 3C2.32843 3 3 2.32843 3 1.5C3 0.671573 2.32843 0 1.5 0C0.671573 0 0 0.671573 0 1.5C0 2.32843 0.671573 3 1.5 3Z" fill="url(#paint3_linear_3309_3118)"/>
<path d="M34.4997 21C35.3282 21 35.9997 20.3284 35.9997 19.5C35.9997 18.6716 35.3282 18 34.4997 18C33.6713 18 32.9998 18.6716 32.9998 19.5C32.9998 20.3284 33.6713 21 34.4997 21Z" fill="url(#paint4_linear_3309_3118)"/>
<path d="M28.5 15.0002C29.3284 15.0002 30 14.3286 30 13.5002C30 12.6718 29.3284 12.0002 28.5 12.0002C27.6716 12.0002 27 12.6718 27 13.5002C27 14.3286 27.6716 15.0002 28.5 15.0002Z" fill="url(#paint5_linear_3309_3118)"/>
<path d="M34.4997 8.99975C35.3282 8.99975 35.9997 8.32818 35.9997 7.49975C35.9997 6.67133 35.3282 5.99976 34.4997 5.99976C33.6713 5.99976 32.9998 6.67133 32.9998 7.49975C32.9998 8.32818 33.6713 8.99975 34.4997 8.99975Z" fill="url(#paint6_linear_3309_3118)"/>
<path d="M28.5 2.99998C29.3284 2.99998 30 2.32841 30 1.49998C30 0.671558 29.3284 -1.52588e-05 28.5 -1.52588e-05C27.6716 -1.52588e-05 27 0.671558 27 1.49998C27 2.32841 27.6716 2.99998 28.5 2.99998Z" fill="url(#paint7_linear_3309_3118)"/>
<path d="M20.9998 35.9998C21.8282 35.9998 22.4998 35.3282 22.4998 34.4998C22.4998 33.6714 21.8282 32.9998 20.9998 32.9998C20.1713 32.9998 19.4998 33.6714 19.4998 34.4998C19.4998 35.3282 20.1713 35.9998 20.9998 35.9998Z" fill="url(#paint8_linear_3309_3118)"/>
<path d="M15 30C15.8284 30 16.5 29.3284 16.5 28.5C16.5 27.6716 15.8284 27 15 27C14.1716 27 13.5 27.6716 13.5 28.5C13.5 29.3284 14.1716 30 15 30Z" fill="url(#paint9_linear_3309_3118)"/>
<path d="M20.9998 24.0002C21.8282 24.0002 22.4998 23.3287 22.4998 22.5002C22.4998 21.6718 21.8282 21.0002 20.9998 21.0002C20.1713 21.0002 19.4998 21.6718 19.4998 22.5002C19.4998 23.3287 20.1713 24.0002 20.9998 24.0002Z" fill="url(#paint10_linear_3309_3118)"/>
<path d="M15 17.9998C15.8284 17.9998 16.5 17.3282 16.5 16.4998C16.5 15.6713 15.8284 14.9998 15 14.9998C14.1716 14.9998 13.5 15.6713 13.5 16.4998C13.5 17.3282 14.1716 17.9998 15 17.9998Z" fill="url(#paint11_linear_3309_3118)"/>
<path d="M22.5002 4.49998C21.7046 4.49998 20.9415 4.18391 20.3789 3.62131C19.8163 3.0587 19.5002 2.29563 19.5002 1.49998C19.5002 1.10216 19.3422 0.720629 19.0609 0.439325C18.7796 0.15802 18.3981 -1.52588e-05 18.0002 -1.52588e-05C17.6024 -1.52588e-05 17.2209 0.15802 16.9396 0.439325C16.6583 0.720629 16.5002 1.10216 16.5002 1.49998C16.5002 2.29563 16.1842 3.0587 15.6216 3.62131C15.0589 4.18391 14.2959 4.49998 13.5002 4.49998C13.1024 4.49998 12.7209 4.65802 12.4396 4.93932C12.1583 5.22063 12.0002 5.60216 12.0002 5.99998C12.0002 6.39781 12.1583 6.77934 12.4396 7.06064C12.7209 7.34195 13.1024 7.49998 13.5002 7.49998C14.2959 7.49998 15.0589 7.81606 15.6216 8.37866C16.1842 8.94127 16.5002 9.70434 16.5002 10.5C16.5002 10.8978 16.6583 11.2793 16.9396 11.5606C17.2209 11.8419 17.6024 12 18.0002 12C18.3981 12 18.7796 11.8419 19.0609 11.5606C19.3422 11.2793 19.5002 10.8978 19.5002 10.5C19.5002 9.70434 19.8163 8.94127 20.3789 8.37866C20.9415 7.81606 21.7046 7.49998 22.5002 7.49998C22.898 7.49998 23.2796 7.34195 23.5609 7.06064C23.8422 6.77934 24.0002 6.39781 24.0002 5.99998C24.0002 5.60216 23.8422 5.22063 23.5609 4.93932C23.2796 4.65802 22.898 4.49998 22.5002 4.49998Z" fill="url(#paint12_linear_3309_3118)"/>
<path d="M10.5 28.4998C9.70435 28.4998 8.94129 28.1837 8.37868 27.6211C7.81607 27.0585 7.5 26.2954 7.5 25.4998C7.5 25.102 7.34196 24.7204 7.06066 24.4391C6.77936 24.1578 6.39782 23.9998 6 23.9998C5.60218 23.9998 5.22064 24.1578 4.93934 24.4391C4.65804 24.7204 4.5 25.102 4.5 25.4998C4.5 26.2954 4.18393 27.0585 3.62132 27.6211C3.05871 28.1837 2.29565 28.4998 1.5 28.4998C1.10218 28.4998 0.720644 28.6578 0.43934 28.9391C0.158035 29.2204 0 29.602 0 29.9998C0 30.3976 0.158035 30.7791 0.43934 31.0604C0.720644 31.3417 1.10218 31.4998 1.5 31.4998C2.29565 31.4998 3.05871 31.8158 3.62132 32.3785C4.18393 32.9411 4.5 33.7041 4.5 34.4998C4.5 34.8976 4.65804 35.2791 4.93934 35.5604C5.22064 35.8417 5.60218 35.9998 6 35.9998C6.39782 35.9998 6.77936 35.8417 7.06066 35.5604C7.34196 35.2791 7.5 34.8976 7.5 34.4998C7.5 33.7041 7.81607 32.9411 8.37868 32.3785C8.94129 31.8158 9.70435 31.4998 10.5 31.4998C10.8978 31.4998 11.2794 31.3417 11.5607 31.0604C11.842 30.7791 12 30.3976 12 29.9998C12 29.602 11.842 29.2204 11.5607 28.9391C11.2794 28.6578 10.8978 28.4998 10.5 28.4998Z" fill="url(#paint13_linear_3309_3118)"/>
<path d="M34.4997 28.4998C33.7041 28.4998 32.941 28.1837 32.3784 27.6211C31.8158 27.0585 31.4997 26.2954 31.4997 25.4998C31.4997 25.102 31.3417 24.7204 31.0604 24.4391C30.7791 24.1578 30.3976 23.9998 29.9997 23.9998C29.6019 23.9998 29.2204 24.1578 28.9391 24.4391C28.6578 24.7204 28.4997 25.102 28.4997 25.4998C28.4997 26.2954 28.1837 27.0585 27.6211 27.6211C27.0585 28.1837 26.2954 28.4998 25.4998 28.4998C25.1019 28.4998 24.7204 28.6578 24.4391 28.9391C24.1578 29.2204 23.9998 29.602 23.9998 29.9998C23.9998 30.3976 24.1578 30.7791 24.4391 31.0604C24.7204 31.3417 25.1019 31.4998 25.4998 31.4998C26.2954 31.4998 27.0585 31.8158 27.6211 32.3785C28.1837 32.9411 28.4997 33.7041 28.4997 34.4998C28.4997 34.8976 28.6578 35.2791 28.9391 35.5604C29.2204 35.8417 29.6019 35.9998 29.9997 35.9998C30.3976 35.9998 30.7791 35.8417 31.0604 35.5604C31.3417 35.2791 31.4997 34.8976 31.4997 34.4998C31.4997 33.7041 31.8158 32.9411 32.3784 32.3785C32.941 31.8158 33.7041 31.4998 34.4997 31.4998C34.8976 31.4998 35.2791 31.3417 35.5604 31.0604C35.8417 30.7791 35.9997 30.3976 35.9997 29.9998C35.9997 29.602 35.8417 29.2204 35.5604 28.9391C35.2791 28.6578 34.8976 28.4998 34.4997 28.4998Z" fill="url(#paint14_linear_3309_3118)"/>
</g>
<defs>
<linearGradient id="paint0_linear_3309_3118" x1="7.49975" y1="18" x2="7.49975" y2="21" gradientUnits="userSpaceOnUse">
<stop stop-color="#0D2138"/>
<stop offset="1" stop-color="#0F2948"/>
</linearGradient>
<linearGradient id="paint1_linear_3309_3118" x1="1.5" y1="12.0002" x2="1.5" y2="15.0002" gradientUnits="userSpaceOnUse">
<stop stop-color="#0D2138"/>
<stop offset="1" stop-color="#0F2948"/>
</linearGradient>
<linearGradient id="paint2_linear_3309_3118" x1="7.49975" y1="5.99976" x2="7.49975" y2="8.99975" gradientUnits="userSpaceOnUse">
<stop stop-color="#0D2138"/>
<stop offset="1" stop-color="#0F2948"/>
</linearGradient>
<linearGradient id="paint3_linear_3309_3118" x1="1.5" y1="0" x2="1.5" y2="3" gradientUnits="userSpaceOnUse">
<stop stop-color="#0D2138"/>
<stop offset="1" stop-color="#0F2948"/>
</linearGradient>
<linearGradient id="paint4_linear_3309_3118" x1="34.4997" y1="18" x2="34.4997" y2="21" gradientUnits="userSpaceOnUse">
<stop stop-color="#0D2138"/>
<stop offset="1" stop-color="#0F2948"/>
</linearGradient>
<linearGradient id="paint5_linear_3309_3118" x1="28.5" y1="12.0002" x2="28.5" y2="15.0002" gradientUnits="userSpaceOnUse">
<stop stop-color="#0D2138"/>
<stop offset="1" stop-color="#0F2948"/>
</linearGradient>
<linearGradient id="paint6_linear_3309_3118" x1="34.4997" y1="5.99976" x2="34.4997" y2="8.99975" gradientUnits="userSpaceOnUse">
<stop stop-color="#0D2138"/>
<stop offset="1" stop-color="#0F2948"/>
</linearGradient>
<linearGradient id="paint7_linear_3309_3118" x1="28.5" y1="-1.52588e-05" x2="28.5" y2="2.99998" gradientUnits="userSpaceOnUse">
<stop stop-color="#0D2138"/>
<stop offset="1" stop-color="#0F2948"/>
</linearGradient>
<linearGradient id="paint8_linear_3309_3118" x1="20.9998" y1="32.9998" x2="20.9998" y2="35.9998" gradientUnits="userSpaceOnUse">
<stop stop-color="#0D2138"/>
<stop offset="1" stop-color="#0F2948"/>
</linearGradient>
<linearGradient id="paint9_linear_3309_3118" x1="15" y1="27" x2="15" y2="30" gradientUnits="userSpaceOnUse">
<stop stop-color="#0D2138"/>
<stop offset="1" stop-color="#0F2948"/>
</linearGradient>
<linearGradient id="paint10_linear_3309_3118" x1="20.9998" y1="21.0002" x2="20.9998" y2="24.0002" gradientUnits="userSpaceOnUse">
<stop stop-color="#0D2138"/>
<stop offset="1" stop-color="#0F2948"/>
</linearGradient>
<linearGradient id="paint11_linear_3309_3118" x1="15" y1="14.9998" x2="15" y2="17.9998" gradientUnits="userSpaceOnUse">
<stop stop-color="#0D2138"/>
<stop offset="1" stop-color="#0F2948"/>
</linearGradient>
<linearGradient id="paint12_linear_3309_3118" x1="18.0002" y1="-1.52588e-05" x2="18.0002" y2="12" gradientUnits="userSpaceOnUse">
<stop stop-color="#0D2138"/>
<stop offset="1" stop-color="#0F2948"/>
</linearGradient>
<linearGradient id="paint13_linear_3309_3118" x1="6" y1="23.9998" x2="6" y2="35.9998" gradientUnits="userSpaceOnUse">
<stop stop-color="#0D2138"/>
<stop offset="1" stop-color="#0F2948"/>
</linearGradient>
<linearGradient id="paint14_linear_3309_3118" x1="29.9997" y1="23.9998" x2="29.9997" y2="35.9998" gradientUnits="userSpaceOnUse">
<stop stop-color="#0D2138"/>
<stop offset="1" stop-color="#0F2948"/>
</linearGradient>
<clipPath id="clip0_3309_3118">
<rect width="36" height="36" fill="white"/>
</clipPath>
</defs>
</svg>
