<svg width="46" height="46" viewBox="0 0 46 46" fill="none" xmlns="http://www.w3.org/2000/svg">
<g clip-path="url(#clip0_1894_1935)">
<path d="M33.3967 8H17.7969V30.5H35.9967V10.5C35.9967 9.11932 34.8326 8 33.3967 8Z" fill="url(#paint0_linear_1894_1935)"/>
<path d="M13.9 8C11.7461 8 10 9.67895 10 11.75V31.4563C10.7139 30.8394 11.6402 30.4987 12.6 30.5H15.1999V8H13.9Z" fill="url(#paint1_linear_1894_1935)"/>
<path d="M35.9998 38.0001H12.6C11.1641 38.0001 10 36.8808 10 35.5C10 34.1193 11.1641 33 12.6 33H35.9998V38.0001Z" fill="url(#paint2_linear_1894_1935)"/>
</g>
<defs>
<linearGradient id="paint0_linear_1894_1935" x1="26.8968" y1="8" x2="26.8968" y2="30.5" gradientUnits="userSpaceOnUse">
<stop stop-color="#1F7DEA"/>
<stop offset="1" stop-color="#1264C4"/>
</linearGradient>
<linearGradient id="paint1_linear_1894_1935" x1="12.6" y1="8" x2="12.6" y2="31.4563" gradientUnits="userSpaceOnUse">
<stop stop-color="#1F7DEA"/>
<stop offset="1" stop-color="#1264C4"/>
</linearGradient>
<linearGradient id="paint2_linear_1894_1935" x1="22.9999" y1="33" x2="22.9999" y2="38.0001" gradientUnits="userSpaceOnUse">
<stop stop-color="#1F7DEA"/>
<stop offset="1" stop-color="#1264C4"/>
</linearGradient>
<clipPath id="clip0_1894_1935">
<rect width="38" height="38" fill="white" transform="translate(4 4)"/>
</clipPath>
</defs>
</svg>
