<svg width="36" height="36" viewBox="0 0 36 36" fill="none" xmlns="http://www.w3.org/2000/svg">
<g clip-path="url(#clip0_3309_3151)">
<path d="M33.0852 7.84474L22.0242 2.57524C19.5895 1.12089 16.559 1.09509 14.0997 2.50774L2.91429 7.84474C2.87231 7.86576 2.82879 7.88826 2.78829 7.91224C0.133851 9.43 -0.787665 12.8122 0.7301 15.4667C1.24458 16.3665 2.00135 17.1038 2.91429 17.5948L5.99981 19.0648V26.4148C6.00164 29.7014 8.14019 32.605 11.2783 33.5818C13.4621 34.2135 15.7266 34.5228 17.9998 34.4998C20.2728 34.5252 22.5372 34.2185 24.7214 33.5893C27.8595 32.6126 29.998 29.7089 29.9999 26.4223V19.0618L32.9999 17.6277V29.9997C32.9999 30.8281 33.6714 31.4997 34.4999 31.4997C35.3283 31.4997 35.9998 30.8281 35.9998 29.9997V11.9997C36.0098 10.2383 34.619 8.61114 33.0852 7.84474ZM26.9998 26.4223C27.0005 28.3881 25.7251 30.127 23.8498 30.7168C21.9481 31.2601 19.9774 31.5239 17.9998 31.4998C16.0221 31.5239 14.0514 31.2601 12.1498 30.7168C10.2745 30.127 8.99899 28.3881 8.99976 26.4223V20.4943L13.9753 22.8643C15.2029 23.5933 16.605 23.9764 18.0328 23.9728C19.3918 23.9824 20.728 23.6226 21.8983 22.9318L26.9998 20.4942V26.4223ZM31.7998 14.8872L20.4868 20.2872C18.9094 21.2057 16.9542 21.1797 15.4018 20.2197L4.33326 14.9547C3.09949 14.2894 2.63866 12.7499 3.30396 11.5162C3.52896 11.099 3.86632 10.7531 4.27779 10.5177L15.5203 5.14776C17.0981 4.23131 19.0523 4.25725 20.6053 5.21526L31.6663 10.4848C32.4797 10.9364 32.9886 11.7894 32.9997 12.7198C33.0012 13.6011 32.5474 14.4206 31.7998 14.8872Z" fill="url(#paint0_linear_3309_3151)"/>
</g>
<defs>
<linearGradient id="paint0_linear_3309_3151" x1="17.9994" y1="1.46608" x2="17.9994" y2="34.5012" gradientUnits="userSpaceOnUse">
<stop stop-color="#0D2138"/>
<stop offset="1" stop-color="#0F2948"/>
</linearGradient>
<clipPath id="clip0_3309_3151">
<rect width="36" height="36" fill="white"/>
</clipPath>
</defs>
</svg>
