<svg width="16" height="16" viewBox="0 0 16 16" fill="none" xmlns="http://www.w3.org/2000/svg">
<path d="M2.06055 5.52051C2.02265 5.67431 2 5.8345 2 6V10C2 11.1046 2.89543 12 4 12H12C13.1046 12 14 11.1046 14 10V6C14 5.83458 13.9783 5.67424 13.9404 5.52051L8.77637 8.96289C8.30615 9.27632 7.69385 9.27632 7.22363 8.96289L2.06055 5.52051ZM4 4C3.35027 4 2.77451 4.31105 2.40918 4.79102L7.66699 8.29785C7.86849 8.43213 8.13151 8.43213 8.33301 8.29785L13.5918 4.79102C13.2265 4.31078 12.6499 4 12 4L4 4Z" fill="#8FA3B7"/>
</svg>
