<svg width="40" height="40" viewBox="0 0 40 40" fill="none" xmlns="http://www.w3.org/2000/svg">
<path fill-rule="evenodd" clip-rule="evenodd" d="M35 20C35 28.2843 28.2843 35 20 35C11.7157 35 5 28.2843 5 20C5 11.7157 11.7157 5 20 5C28.2843 5 35 11.7157 35 20ZM12.7441 27.2559C12.4186 26.9305 12.4186 26.4028 12.7441 26.0774L18.8215 20L12.7441 13.9226C12.4186 13.5972 12.4186 13.0695 12.7441 12.7441C13.0695 12.4186 13.5972 12.4186 13.9226 12.7441L20 18.8215L26.0774 12.7441C26.4028 12.4186 26.9305 12.4186 27.2559 12.7441C27.5814 13.0695 27.5814 13.5972 27.2559 13.9226L21.1785 20L27.2559 26.0774C27.5814 26.4028 27.5814 26.9305 27.2559 27.2559C26.9305 27.5814 26.4028 27.5814 26.0774 27.2559L20 21.1785L13.9226 27.2559C13.5972 27.5814 13.0695 27.5814 12.7441 27.2559Z" fill="#232323"/>
</svg>
