<svg width="512" height="512" viewBox="0 0 512 512" fill="none" xmlns="http://www.w3.org/2000/svg">
<rect width="512" height="512" fill="url(#paint0_linear_2157_564)"/>
<path d="M196.679 243.322C196.679 243.322 120.873 242.995 122.921 306.847C123.745 332.562 157.731 371.257 204.725 350.979C216.124 344.738 234.228 325.57 238.251 295.479L255.685 179.798C259.247 161.838 274.862 120.821 327.431 122.961C347.324 124.075 387.511 139.544 389.12 192.503C389.12 216.528 376.916 272.61 349.559 322.895" stroke="white" stroke-width="23.4918" stroke-linecap="round" stroke-linejoin="round"/>
<path d="M296.523 330.066C297.311 325.278 304.195 325.278 304.984 330.066C308.768 353.039 326.773 371.044 349.746 374.828C354.533 375.616 354.533 382.501 349.746 383.289C326.773 387.073 308.768 405.078 304.984 428.051C304.195 432.839 297.311 432.839 296.523 428.051C292.739 405.078 274.733 387.073 251.761 383.289C246.973 382.501 246.973 375.616 251.761 374.828C274.733 371.044 292.739 353.039 296.523 330.066Z" fill="white"/>
<path d="M179.943 153.089C180.874 147.438 188.998 147.438 189.928 153.089C191.649 163.536 199.838 171.724 210.285 173.445C215.935 174.376 215.935 182.5 210.285 183.431C199.838 185.151 191.649 193.34 189.928 203.787C188.998 209.437 180.874 209.437 179.943 203.787C178.222 193.34 170.034 185.151 159.586 183.431C153.936 182.5 153.936 174.376 159.586 173.445C170.034 171.724 178.222 163.536 179.943 153.089Z" fill="white"/>
<defs>
<linearGradient id="paint0_linear_2157_564" x1="256" y1="0" x2="256" y2="512" gradientUnits="userSpaceOnUse">
<stop stop-color="#0D2138"/>
<stop offset="1" stop-color="#0F2948"/>
</linearGradient>
</defs>
</svg>
