<svg width="39" height="14" viewBox="0 0 39 14" fill="none" xmlns="http://www.w3.org/2000/svg">
<path d="M4.0474 0.159824H4.9964C5.2154 0.159824 5.3614 0.320425 5.3614 0.539424V1.69282H7.931C8.15 1.69282 8.296 1.83882 8.296 2.05782V2.65642C8.296 2.87542 8.15 3.02142 7.931 3.02142H1.1274C0.879199 3.02142 0.718599 2.86082 0.718599 2.61262V2.10162C0.718599 1.85342 0.879199 1.69282 1.1274 1.69282H3.6824V0.539424C3.6824 0.320425 3.8284 0.159824 4.0474 0.159824ZM9.4786 9.40162V0.831424C9.4786 0.612424 9.6246 0.466424 9.8436 0.466424H10.8218C11.0408 0.466424 11.1868 0.612424 11.1868 0.831424V4.77342H12.9972C13.2454 4.77342 13.406 4.93402 13.406 5.18222V5.73702C13.406 5.98522 13.2454 6.14582 12.9972 6.14582H11.1868V9.40162C11.1868 9.62062 11.0408 9.76662 10.8218 9.76662H9.8436C9.6246 9.76662 9.4786 9.62062 9.4786 9.40162ZM7.9894 6.04362C7.9894 7.64962 6.6462 8.67162 4.5146 8.67162C2.383 8.67162 1.0252 7.64962 1.0252 6.04362C1.0252 4.43762 2.383 3.41562 4.5146 3.41562C6.6462 3.41562 7.9894 4.43762 7.9894 6.04362ZM2.7334 6.04362C2.7334 6.84662 3.3758 7.40142 4.5146 7.40142C5.6534 7.40142 6.2812 6.86122 6.2812 6.04362C6.2812 5.22602 5.6534 4.68582 4.5146 4.68582C3.3758 4.68582 2.7334 5.24062 2.7334 6.04362ZM4.427 9.79582C4.3394 10.4382 4.2956 10.8908 4.3102 11.4748C4.3102 11.8398 4.427 12.0296 4.8504 12.0588C6.3396 12.1464 9.0698 12.0442 10.8802 11.8398C11.0992 11.8106 11.289 11.8982 11.3182 12.1172L11.4058 12.7742C11.435 12.9932 11.3328 13.183 11.1138 13.2122C9.3326 13.4604 6.9382 13.5626 4.1934 13.4312C3.1276 13.3874 2.5436 12.8034 2.5436 11.7522C2.5436 10.8616 2.5874 10.336 2.6896 9.66442C2.7188 9.46002 2.894 9.31402 3.0984 9.32862L4.1204 9.40162C4.354 9.41622 4.4562 9.54762 4.427 9.79582ZM22.9095 13.1684V0.831424C22.9095 0.612424 23.0555 0.466424 23.2745 0.466424H24.2527C24.4717 0.466424 24.6177 0.612424 24.6177 0.831424V5.32822H26.4281C26.6763 5.32822 26.8369 5.48882 26.8369 5.73702V6.29182C26.8369 6.54002 26.6763 6.70062 26.4281 6.70062H24.6177V13.1684C24.6177 13.3874 24.4717 13.5334 24.2527 13.5334H23.2745C23.0555 13.5334 22.9095 13.3874 22.9095 13.1684ZM18.8653 2.51042C17.8141 2.45202 16.2811 2.56882 15.1715 2.74402C14.9525 2.78782 14.7919 2.64182 14.7627 2.43742L14.6751 1.78042C14.6459 1.56142 14.7773 1.41542 14.9963 1.38622C16.6023 1.12342 18.0477 1.07962 19.7121 1.18182C20.7341 1.24022 21.1283 1.85342 20.8071 2.97762C20.4713 4.16022 19.9749 5.37202 19.3179 6.59842C20.4129 8.05842 21.3619 9.69362 22.1211 11.1536C22.2379 11.3434 22.2233 11.5332 22.0335 11.6208L21.0261 12.0588C20.8217 12.1464 20.7049 12.0734 20.6027 11.869C20.0187 10.6426 19.2887 9.32862 18.4273 8.11682C17.5805 9.46002 16.5877 10.8032 15.4489 12.1026C15.2883 12.2778 15.1131 12.2924 14.9525 12.161L14.1787 11.5186C14.0327 11.3872 14.0619 11.1682 14.2079 11.0076C16.5147 8.37962 18.3251 5.48882 19.1281 2.87542C19.1865 2.65642 19.0989 2.52502 18.8653 2.51042ZM37.2309 13.1684V0.831424C37.2309 0.612424 37.3769 0.466424 37.5959 0.466424H38.5741C38.7931 0.466424 38.9391 0.612424 38.9391 0.831424V13.1684C38.9391 13.3874 38.7931 13.5334 38.5741 13.5334H37.5959C37.3769 13.5334 37.2309 13.3874 37.2309 13.1684ZM33.7999 7.05102H30.2959C30.0039 8.08762 29.9309 8.97822 29.9747 9.82502C30.0039 10.3798 30.3105 10.6426 30.9091 10.6426C32.6027 10.6426 34.0189 10.4382 35.4059 10.117C35.6395 10.0586 35.8147 10.1462 35.8731 10.3798L36.0191 10.9638C36.0775 11.1974 35.9607 11.358 35.7271 11.4164C33.7853 11.869 32.2523 12.0734 30.2813 11.9858C29.1133 11.9274 28.4709 11.285 28.3103 10.2776C28.1351 9.18262 28.3687 7.48902 28.8067 6.01442C28.8651 5.82462 28.9965 5.70782 29.2155 5.70782H32.7049C32.9239 4.86102 33.0115 3.69302 32.9823 3.05062C32.9677 2.59802 32.7779 2.30602 32.3545 2.26222C31.3763 2.17462 30.2083 2.23302 29.3177 2.40822C29.0987 2.45202 28.9235 2.34982 28.8797 2.13082L28.7629 1.51762C28.7191 1.29862 28.8067 1.12342 29.0257 1.07962C30.0331 0.860625 31.2449 0.787625 32.5151 0.889824C34.0043 1.00662 34.7197 1.72202 34.7197 2.90462C34.7197 4.01422 34.5737 5.40122 34.2525 6.74442C34.2087 6.93422 34.0335 7.05102 33.7999 7.05102Z" fill="#0E1D30"/>
</svg>
