<svg width="28" height="28" viewBox="0 0 28 28" fill="none" xmlns="http://www.w3.org/2000/svg">
<path d="M22 7C22.5523 7 23 7.44772 23 8C23 8.55229 22.5523 9 22 9L6 9C5.44772 9 5 8.55228 5 8C5 7.44772 5.44772 7 6 7L22 7Z" fill="#1C232C"/>
<path d="M22 13C22.5523 13 23 13.4477 23 14C23 14.5523 22.5523 15 22 15L6 15C5.44772 15 5 14.5523 5 14C5 13.4477 5.44772 13 6 13L22 13Z" fill="#1C232C"/>
<path d="M22 19C22.5523 19 23 19.4477 23 20C23 20.5523 22.5523 21 22 21L6 21C5.44772 21 5 20.5523 5 20C5 19.4477 5.44772 19 6 19L22 19Z" fill="#1C232C"/>
</svg>
