<svg width="28" height="31" viewBox="0 0 28 31" fill="none" xmlns="http://www.w3.org/2000/svg">
<path d="M8.87982 13.2281C8.87982 13.2281 1.81293 13.1976 2.0038 19.1501C2.08067 21.5474 5.24899 25.1547 9.62994 23.2644C10.6926 22.6826 12.3803 20.8956 12.7554 18.0904L14.3806 7.30614C14.7127 5.63185 16.1684 1.80804 21.0691 2.00751C22.9236 2.11141 26.67 3.55346 26.82 8.49054C26.82 10.7303 25.6823 15.9585 23.132 20.6462" stroke="url(#paint0_linear_2157_537)" stroke-width="2.19" stroke-linecap="round" stroke-linejoin="round"/>
<path d="M18.1876 21.3147C18.2611 20.8684 18.9029 20.8684 18.9764 21.3147C19.3292 23.4563 21.0077 25.1348 23.1493 25.4876C23.5956 25.5611 23.5956 26.2029 23.1493 26.2764C21.0077 26.6292 19.3292 28.3077 18.9764 30.4493C18.9029 30.8956 18.2611 30.8956 18.1876 30.4493C17.8349 28.3077 16.1563 26.6292 14.0148 26.2764C13.5684 26.2029 13.5684 25.5611 14.0148 25.4876C16.1563 25.1348 17.8349 23.4563 18.1876 21.3147Z" fill="#0D2138"/>
<path d="M7.31959 4.81614C7.40635 4.2894 8.16372 4.2894 8.25049 4.81614C8.41091 5.79008 9.17426 6.55342 10.1482 6.71385C10.6749 6.80061 10.6749 7.55798 10.1482 7.64474C9.17426 7.80517 8.41091 8.56851 8.25049 9.54245C8.16372 10.0692 7.40635 10.0692 7.31959 9.54245C7.15917 8.56851 6.39582 7.80517 5.42188 7.64474C4.89514 7.55798 4.89514 6.80061 5.42188 6.71385C6.39582 6.55342 7.15917 5.79007 7.31959 4.81614Z" fill="url(#paint1_linear_2157_537)"/>
<defs>
<linearGradient id="paint0_linear_2157_537" x1="14.41" y1="2" x2="14.41" y2="23.7928" gradientUnits="userSpaceOnUse">
<stop stop-color="#0A2647"/>
<stop offset="1" stop-color="#0E1D30"/>
</linearGradient>
<linearGradient id="paint1_linear_2157_537" x1="9.66498" y1="4.91996" x2="3.45998" y2="11.125" gradientUnits="userSpaceOnUse">
<stop offset="0.35" stop-color="#0F2948"/>
<stop offset="1" stop-color="#2463AE"/>
</linearGradient>
</defs>
</svg>
