<svg width="15" height="15" viewBox="0 0 15 15" fill="none" xmlns="http://www.w3.org/2000/svg">
<path fill-rule="evenodd" clip-rule="evenodd" d="M2.05806 3.93306C1.875 4.11612 1.875 4.41074 1.875 5V10C1.875 10.5893 1.875 10.8839 2.05806 11.0669C2.24112 11.25 2.53574 11.25 3.125 11.25H9.28704C9.942 11.25 10.2695 11.25 10.5458 11.1021C10.8222 10.9542 11.0039 10.6817 11.3672 10.1368L12.2005 8.88675C12.6486 8.21456 12.8727 7.87847 12.8727 7.5C12.8727 7.12153 12.6486 6.78544 12.2005 6.11326L12.2005 6.11325L11.3672 4.86325C11.0039 4.31829 10.8222 4.04581 10.5458 3.89791C10.2695 3.75 9.942 3.75 9.28704 3.75H3.125C2.53574 3.75 2.24112 3.75 2.05806 3.93306ZM9.375 8.75C10.0654 8.75 10.625 8.19036 10.625 7.5C10.625 6.80964 10.0654 6.25 9.375 6.25C8.68464 6.25 8.125 6.80964 8.125 7.5C8.125 8.19036 8.68464 8.75 9.375 8.75Z" fill="#989898"/>
</svg>
