<svg width="414" height="209" viewBox="0 0 414 209" fill="none" xmlns="http://www.w3.org/2000/svg">
<g clip-path="url(#clip0_2410_3915)">
<rect width="414" height="208.74" fill="url(#paint0_linear_2410_3915)"/>
<g style="mix-blend-mode:color-dodge">
<rect width="3.08982" height="3.08554" transform="translate(25.0935 55.9603)" fill="black"/>
<ellipse cx="26.6384" cy="57.503" rx="1.54491" ry="1.54277" fill="url(#paint1_radial_2410_3915)"/>
</g>
<g style="mix-blend-mode:color-dodge">
<rect width="3.08982" height="3.08554" transform="translate(48.885 -0.505066)" fill="black"/>
<ellipse cx="50.4299" cy="1.0377" rx="1.54491" ry="1.54277" fill="url(#paint2_radial_2410_3915)"/>
</g>
<g style="mix-blend-mode:color-dodge">
<rect width="3.08982" height="3.08554" transform="translate(22.0037 92.6782)" fill="black"/>
<ellipse cx="23.5486" cy="94.221" rx="1.54491" ry="1.54277" fill="url(#paint3_radial_2410_3915)" fill-opacity="0.5"/>
</g>
<g style="mix-blend-mode:color-dodge">
<rect width="3.08982" height="3.08554" transform="translate(81.946 135.876)" fill="black"/>
<ellipse cx="83.491" cy="137.419" rx="1.54491" ry="1.54277" fill="url(#paint4_radial_2410_3915)"/>
</g>
<g style="mix-blend-mode:color-dodge">
<rect width="3.08982" height="3.08554" transform="translate(283.402 133.407)" fill="black"/>
<ellipse cx="284.947" cy="134.95" rx="1.54491" ry="1.54277" fill="url(#paint5_radial_2410_3915)" fill-opacity="0.7"/>
</g>
<g style="mix-blend-mode:color-dodge">
<rect width="3.08982" height="3.08554" transform="translate(351.688 147.292)" fill="black"/>
<ellipse cx="353.232" cy="148.835" rx="1.54491" ry="1.54277" fill="url(#paint6_radial_2410_3915)"/>
</g>
<g style="mix-blend-mode:color-dodge">
<rect width="3.08982" height="3.08554" transform="translate(367.754 60.5886)" fill="black"/>
<ellipse cx="369.299" cy="62.1314" rx="1.54491" ry="1.54277" fill="url(#paint7_radial_2410_3915)"/>
</g>
<g style="mix-blend-mode:color-dodge">
<rect width="3.08982" height="3.08554" transform="translate(114.698 150.686)" fill="black"/>
<ellipse cx="116.243" cy="152.229" rx="1.54491" ry="1.54277" fill="url(#paint8_radial_2410_3915)" fill-opacity="0.7"/>
</g>
<g style="mix-blend-mode:color-dodge">
<rect width="3.08982" height="3.08554" transform="translate(249 112)" fill="black"/>
<ellipse cx="250.545" cy="113.543" rx="1.54491" ry="1.54277" fill="url(#paint9_radial_2410_3915)" fill-opacity="0.7"/>
</g>
<g style="mix-blend-mode:color-dodge">
<rect width="3.08982" height="3.08554" transform="translate(249.415 141.43)" fill="black"/>
<ellipse cx="250.959" cy="142.973" rx="1.54491" ry="1.54277" fill="url(#paint10_radial_2410_3915)" fill-opacity="0.7"/>
</g>
<g style="mix-blend-mode:color-dodge">
<rect width="3.08982" height="3.08554" transform="translate(264.863 151.303)" fill="black"/>
<ellipse cx="266.408" cy="152.846" rx="1.54491" ry="1.54277" fill="url(#paint11_radial_2410_3915)" fill-opacity="0.7"/>
</g>
<g style="mix-blend-mode:color-dodge">
<rect width="3.08982" height="3.08554" transform="translate(398.653 147.909)" fill="black"/>
<ellipse cx="400.198" cy="149.452" rx="1.54491" ry="1.54277" fill="url(#paint12_radial_2410_3915)" fill-opacity="0.7"/>
</g>
<g style="mix-blend-mode:color-dodge">
<rect width="3.08982" height="3.08554" transform="translate(377.951 55.9603)" fill="black"/>
<ellipse cx="379.496" cy="57.503" rx="1.54491" ry="1.54277" fill="url(#paint13_radial_2410_3915)"/>
</g>
<g style="mix-blend-mode:color-dodge">
<rect width="3.08982" height="3.08554" transform="translate(205.848 8.1344)" fill="black"/>
<ellipse cx="207.393" cy="9.67717" rx="1.54491" ry="1.54277" fill="url(#paint14_radial_2410_3915)"/>
</g>
<g style="mix-blend-mode:color-dodge">
<rect width="3.08982" height="3.08554" transform="translate(223.46 30.0417)" fill="black"/>
<ellipse cx="225.005" cy="31.5845" rx="1.54491" ry="1.54277" fill="url(#paint15_radial_2410_3915)"/>
</g>
<g style="mix-blend-mode:color-dodge">
<rect width="3.08982" height="3.08554" transform="translate(374.861 75.3992)" fill="black"/>
<ellipse cx="376.406" cy="76.9419" rx="1.54491" ry="1.54277" fill="url(#paint16_radial_2410_3915)"/>
</g>
<g style="mix-blend-mode:color-dodge">
<rect width="3.08982" height="3.08554" transform="translate(353.85 59.0458)" fill="black"/>
<ellipse cx="355.395" cy="60.5886" rx="1.54491" ry="1.54277" fill="url(#paint17_radial_2410_3915)"/>
</g>
<g style="mix-blend-mode:color-dodge">
<rect width="3.08982" height="3.08554" transform="translate(161.045 1.34625)" fill="black"/>
<ellipse cx="162.59" cy="2.88902" rx="1.54491" ry="1.54277" fill="url(#paint18_radial_2410_3915)"/>
</g>
<g style="mix-blend-mode:color-dodge">
<rect width="3.08982" height="3.08554" transform="translate(43.6323 91.1354)" fill="black"/>
<ellipse cx="45.1772" cy="92.6782" rx="1.54491" ry="1.54277" fill="url(#paint19_radial_2410_3915)" fill-opacity="0.8"/>
</g>
<g style="mix-blend-mode:color-dodge">
<rect width="3.08982" height="3.08554" transform="translate(311.829 37.7556)" fill="black"/>
<ellipse cx="313.374" cy="39.2984" rx="1.54491" ry="1.54277" fill="url(#paint20_radial_2410_3915)"/>
</g>
<g style="mix-blend-mode:color-dodge">
<rect width="3.08982" height="3.08554" transform="translate(5.93652 142.047)" fill="black"/>
<ellipse cx="7.48143" cy="143.59" rx="1.54491" ry="1.54277" fill="url(#paint21_radial_2410_3915)" fill-opacity="0.7"/>
</g>
<g style="mix-blend-mode:color-dodge">
<rect width="3.08982" height="3.08554" transform="translate(17.3689 131.865)" fill="black"/>
<ellipse cx="18.9138" cy="133.407" rx="1.54491" ry="1.54277" fill="url(#paint22_radial_2410_3915)" fill-opacity="0.7"/>
</g>
<g style="mix-blend-mode:color-dodge">
<rect width="3.08982" height="3.08554" transform="translate(49.1941 42.6924)" fill="black"/>
<ellipse cx="50.739" cy="44.2352" rx="1.54491" ry="1.54277" fill="url(#paint23_radial_2410_3915)"/>
</g>
<g style="mix-blend-mode:color-dodge">
<rect width="3.08982" height="3.08554" transform="translate(41.4695 75.0906)" fill="black"/>
<ellipse cx="43.0144" cy="76.6334" rx="1.54491" ry="1.54277" fill="url(#paint24_radial_2410_3915)"/>
</g>
<g style="mix-blend-mode:color-dodge">
<rect width="3.08982" height="3.08554" transform="translate(148.377 33.1273)" fill="black"/>
<ellipse cx="149.922" cy="34.6701" rx="1.54491" ry="1.54277" fill="url(#paint25_radial_2410_3915)"/>
</g>
<g style="mix-blend-mode:color-dodge">
<rect width="3.08982" height="3.08554" transform="translate(167.534 50.7148)" fill="black"/>
<ellipse cx="169.079" cy="52.2576" rx="1.54491" ry="1.54277" fill="url(#paint26_radial_2410_3915)"/>
</g>
<g style="mix-blend-mode:color-dodge">
<rect width="3.08982" height="3.08554" transform="translate(249.415 73.5479)" fill="black"/>
<ellipse cx="250.959" cy="75.0906" rx="1.54491" ry="1.54277" fill="url(#paint27_radial_2410_3915)"/>
</g>
<g style="mix-blend-mode:color-dodge">
<rect width="3.08982" height="3.08554" transform="translate(242.617 80.6446)" fill="black"/>
<ellipse cx="244.162" cy="82.1874" rx="1.54491" ry="1.54277" fill="url(#paint28_radial_2410_3915)"/>
</g>
<g style="mix-blend-mode:color-dodge">
<rect width="3.08982" height="3.08554" transform="translate(258.684 28.1904)" fill="black"/>
<ellipse cx="260.229" cy="29.7332" rx="1.54491" ry="1.54277" fill="url(#paint29_radial_2410_3915)"/>
</g>
<g style="mix-blend-mode:color-dodge">
<rect width="3.08982" height="3.08554" transform="translate(223.46 50.0978)" fill="black"/>
<ellipse cx="225.005" cy="51.6405" rx="1.54491" ry="1.54277" fill="url(#paint30_radial_2410_3915)"/>
</g>
<g style="mix-blend-mode:color-dodge">
<rect width="3.08982" height="3.08554" transform="translate(287.11 18.3167)" fill="black"/>
<ellipse cx="288.655" cy="19.8595" rx="1.54491" ry="1.54277" fill="url(#paint31_radial_2410_3915)"/>
</g>
<g style="mix-blend-mode:color-dodge">
<rect width="3.08982" height="3.08554" transform="translate(321.407 17.3911)" fill="black"/>
<ellipse cx="322.952" cy="18.9338" rx="1.54491" ry="1.54277" fill="url(#paint32_radial_2410_3915)"/>
</g>
<g style="mix-blend-mode:color-dodge">
<rect width="3.08982" height="3.08554" transform="translate(309.357 22.6365)" fill="black"/>
<ellipse cx="310.902" cy="24.1792" rx="1.54491" ry="1.54277" fill="url(#paint33_radial_2410_3915)"/>
</g>
<g style="mix-blend-mode:color-dodge">
<rect width="3.08982" height="3.08554" transform="translate(309.357 14.3055)" fill="black"/>
<ellipse cx="310.902" cy="15.8483" rx="1.54491" ry="1.54277" fill="url(#paint34_radial_2410_3915)"/>
</g>
<g style="mix-blend-mode:color-dodge">
<rect width="3.08982" height="3.08554" transform="translate(340.255 34.67)" fill="black"/>
<ellipse cx="341.8" cy="36.2128" rx="1.54491" ry="1.54277" fill="url(#paint35_radial_2410_3915)"/>
</g>
<g style="mix-blend-mode:color-dodge">
<rect width="3.08982" height="3.08554" transform="translate(372.698 29.7332)" fill="black"/>
<ellipse cx="374.243" cy="31.276" rx="1.54491" ry="1.54277" fill="url(#paint36_radial_2410_3915)"/>
</g>
<g style="mix-blend-mode:color-dodge">
<rect width="3.08982" height="3.08554" transform="translate(363.12 47.3208)" fill="black"/>
<ellipse cx="364.665" cy="48.8636" rx="1.54491" ry="1.54277" fill="url(#paint37_radial_2410_3915)"/>
</g>
<g style="mix-blend-mode:color-dodge">
<rect width="3.08982" height="3.08554" transform="translate(351.688 30.3503)" fill="black"/>
<ellipse cx="353.232" cy="31.8931" rx="1.54491" ry="1.54277" fill="url(#paint38_radial_2410_3915)"/>
</g>
<g style="mix-blend-mode:color-dodge">
<rect width="3.08982" height="3.08554" transform="translate(402.011 10)" fill="black"/>
<ellipse cx="403.556" cy="11.5428" rx="1.54491" ry="1.54277" fill="url(#paint39_radial_2410_3915)"/>
</g>
<g style="mix-blend-mode:color-dodge">
<rect width="3.08982" height="3.08554" transform="translate(392.432 27.5876)" fill="black"/>
<ellipse cx="393.977" cy="29.1304" rx="1.54491" ry="1.54277" fill="url(#paint40_radial_2410_3915)"/>
</g>
<g style="mix-blend-mode:color-dodge">
<rect width="3.08982" height="3.08554" transform="translate(357 12)" fill="black"/>
<ellipse cx="358.545" cy="13.5428" rx="1.54491" ry="1.54277" fill="url(#paint41_radial_2410_3915)"/>
</g>
<g style="mix-blend-mode:color-dodge">
<rect width="3.08982" height="3.08554" transform="translate(117.17 22.945)" fill="black"/>
<ellipse cx="118.715" cy="24.4878" rx="1.54491" ry="1.54277" fill="url(#paint42_radial_2410_3915)"/>
</g>
<g style="mix-blend-mode:color-dodge">
<rect width="3.08982" height="3.08554" transform="translate(121.207 61.1823)" fill="black"/>
<ellipse cx="122.752" cy="62.725" rx="1.54491" ry="1.54277" fill="url(#paint43_radial_2410_3915)"/>
</g>
<g style="mix-blend-mode:color-dodge">
<rect width="3.08982" height="3.08554" transform="translate(90 51)" fill="black"/>
<ellipse cx="91.5449" cy="52.5428" rx="1.54491" ry="1.54277" fill="url(#paint44_radial_2410_3915)"/>
</g>
<g style="mix-blend-mode:color-dodge">
<rect width="3.08982" height="3.08554" transform="translate(129.529 12.1456)" fill="black"/>
<ellipse cx="131.074" cy="13.6884" rx="1.54491" ry="1.54277" fill="url(#paint45_radial_2410_3915)"/>
</g>
<g style="mix-blend-mode:color-dodge">
<rect width="3.08982" height="3.08554" transform="translate(119.333 0.729126)" fill="black"/>
<ellipse cx="120.878" cy="2.2719" rx="1.54491" ry="1.54277" fill="url(#paint46_radial_2410_3915)"/>
</g>
<g style="mix-blend-mode:color-dodge">
<rect width="3.08982" height="3.08554" transform="translate(162.59 15.5397)" fill="black"/>
<ellipse cx="164.135" cy="17.0825" rx="1.54491" ry="1.54277" fill="url(#paint47_radial_2410_3915)"/>
</g>
<g style="mix-blend-mode:color-dodge">
<rect width="3.08982" height="3.08554" transform="translate(140.653 13.0713)" fill="black"/>
<ellipse cx="142.197" cy="14.6141" rx="1.54491" ry="1.54277" fill="url(#paint48_radial_2410_3915)"/>
</g>
<g style="mix-blend-mode:color-dodge">
<rect width="3.08982" height="3.08554" transform="translate(90.2886 1.03766)" fill="black"/>
<ellipse cx="91.8335" cy="2.58043" rx="1.54491" ry="1.54277" fill="url(#paint49_radial_2410_3915)"/>
</g>
<g style="mix-blend-mode:color-dodge">
<rect width="3.08982" height="3.08554" transform="translate(51.9749 26.6476)" fill="black"/>
<ellipse cx="53.5198" cy="28.1904" rx="1.54491" ry="1.54277" fill="url(#paint50_radial_2410_3915)"/>
</g>
<g style="mix-blend-mode:color-dodge">
<rect width="3.08982" height="3.08554" transform="translate(74.5305 24.1792)" fill="black"/>
<ellipse cx="76.0754" cy="25.722" rx="1.54491" ry="1.54277" fill="url(#paint51_radial_2410_3915)"/>
</g>
<g style="mix-blend-mode:color-dodge">
<rect width="3.08982" height="3.08554" transform="translate(38.3796 134.024)" fill="black"/>
<ellipse cx="39.9245" cy="135.567" rx="1.54491" ry="1.54277" fill="url(#paint52_radial_2410_3915)" fill-opacity="0.7"/>
</g>
<g style="mix-blend-mode:color-dodge">
<rect width="3.08982" height="3.08554" transform="translate(50.739 142.664)" fill="black"/>
<ellipse cx="52.2839" cy="144.207" rx="1.54491" ry="1.54277" fill="url(#paint53_radial_2410_3915)" fill-opacity="0.7"/>
</g>
<g style="mix-blend-mode:color-dodge">
<rect width="3.08982" height="3.08554" transform="translate(141.58 143.59)" fill="black"/>
<ellipse cx="143.124" cy="145.132" rx="1.54491" ry="1.54277" fill="url(#paint54_radial_2410_3915)" fill-opacity="0.7"/>
</g>
<g style="mix-blend-mode:color-dodge">
<rect width="3.08982" height="3.08554" transform="translate(301.323 -0.81366)" fill="black"/>
<ellipse cx="302.868" cy="0.72911" rx="1.54491" ry="1.54277" fill="url(#paint55_radial_2410_3915)"/>
</g>
<g style="mix-blend-mode:color-dodge">
<rect width="3.08982" height="3.08554" transform="translate(247.251 5.66602)" fill="black"/>
<ellipse cx="248.796" cy="7.20879" rx="1.54491" ry="1.54277" fill="url(#paint56_radial_2410_3915)"/>
</g>
<g style="mix-blend-mode:color-dodge">
<rect width="3.08982" height="3.08554" transform="translate(170.933 19.8595)" fill="black"/>
<ellipse cx="172.478" cy="21.4023" rx="1.54491" ry="1.54277" fill="url(#paint57_radial_2410_3915)"/>
</g>
<g style="mix-blend-mode:color-dodge">
<rect width="3.08982" height="3.08554" transform="translate(158.574 26.0305)" fill="black"/>
<ellipse cx="160.119" cy="27.5733" rx="1.54491" ry="1.54277" fill="url(#paint58_radial_2410_3915)"/>
</g>
<g style="mix-blend-mode:color-dodge">
<rect width="3.08982" height="3.08554" transform="translate(170.624 40.8411)" fill="black"/>
<ellipse cx="172.169" cy="42.3839" rx="1.54491" ry="1.54277" fill="url(#paint59_radial_2410_3915)"/>
</g>
<g style="mix-blend-mode:color-dodge">
<rect width="3.08982" height="3.08554" transform="translate(236.746 36.5214)" fill="black"/>
<ellipse cx="238.291" cy="38.0641" rx="1.54491" ry="1.54277" fill="url(#paint60_radial_2410_3915)"/>
</g>
<g style="mix-blend-mode:color-dodge">
<rect width="3.08982" height="3.08554" transform="translate(256.521 44.5438)" fill="black"/>
<ellipse cx="258.066" cy="46.0865" rx="1.54491" ry="1.54277" fill="url(#paint61_radial_2410_3915)"/>
</g>
<g style="mix-blend-mode:color-dodge">
<rect width="3.08982" height="3.08554" transform="translate(234.274 50.0978)" fill="black"/>
<ellipse cx="235.819" cy="51.6405" rx="1.54491" ry="1.54277" fill="url(#paint62_radial_2410_3915)"/>
</g>
<g style="mix-blend-mode:color-dodge">
<rect width="3.08982" height="3.08554" transform="translate(200.595 63.057)" fill="black"/>
<ellipse cx="202.14" cy="64.5998" rx="1.54491" ry="1.54277" fill="url(#paint63_radial_2410_3915)"/>
</g>
<g style="mix-blend-mode:color-dodge">
<rect width="3.08982" height="3.08554" transform="translate(221.915 63.057)" fill="black"/>
<ellipse cx="223.46" cy="64.5998" rx="1.54491" ry="1.54277" fill="url(#paint64_radial_2410_3915)"/>
</g>
<path d="M308.642 99.0001C308.642 99.0001 296.683 98.9484 297.006 109.021C297.137 113.078 302.498 119.182 309.911 115.983C311.709 114.999 314.565 111.975 315.2 107.228L317.95 88.979C318.512 86.1458 320.976 79.6752 329.268 80.0127C332.407 80.1885 338.746 82.6287 339 90.9832C339 94.7732 337.075 103.62 332.759 111.553" stroke="white" stroke-width="3.70588" stroke-linecap="round" stroke-linejoin="round"/>
<path d="M324.392 112.684C324.517 111.929 325.603 111.929 325.727 112.684C326.324 116.308 329.164 119.148 332.788 119.745C333.544 119.87 333.544 120.956 332.788 121.08C329.164 121.677 326.324 124.517 325.727 128.141C325.603 128.897 324.517 128.897 324.392 128.141C323.795 124.517 320.955 121.677 317.331 121.08C316.576 120.956 316.576 119.87 317.331 119.745C320.955 119.148 323.795 116.308 324.392 112.684Z" fill="white"/>
<path d="M306.002 84.7655C306.149 83.8741 307.43 83.8742 307.577 84.7655C307.849 86.4136 309.14 87.7053 310.788 87.9768C311.68 88.1236 311.68 89.4052 310.788 89.552C309.14 89.8235 307.849 91.1152 307.577 92.7633C307.43 93.6546 306.149 93.6546 306.002 92.7633C305.73 91.1152 304.439 89.8235 302.791 89.552C301.899 89.4052 301.899 88.1236 302.791 87.9768C304.439 87.7053 305.73 86.4136 306.002 84.7655Z" fill="white"/>
<path d="M70.5166 81.1022V86.6478H72.982V88.4365H70.5166V94.2928H68.3343V81.1022H70.5166ZM56.6008 84.7831V83.0566H60.7652V81.0884H62.9268V83.0566H67.0773V84.7831H56.6008ZM57.5124 88.8992C57.5055 86.8688 59.2735 85.5221 61.8494 85.5221C64.384 85.5221 66.145 86.8688 66.1519 88.8992C66.145 90.9088 64.384 92.2348 61.8494 92.2279C59.2735 92.2348 57.5055 90.9088 57.5124 88.8992ZM59.2044 98.395V93.2569H61.366V96.634H71.2072V98.395H59.2044ZM59.6188 88.8992C59.605 89.9558 60.5028 90.5704 61.8494 90.5635C63.1823 90.5704 64.0801 89.9558 64.0939 88.8992C64.0801 87.8218 63.1823 87.1934 61.8494 87.1934C60.5028 87.1934 59.605 87.8218 59.6188 88.8992ZM90.1912 83.4365V85.2182H87.8017V87.2417H90.1912V89.0373H87.8017V91.4544H85.6194V81.0884H87.8017V83.4365H90.1912ZM74.0655 86.3163C74.0517 83.8232 76.1028 82.0829 78.8307 82.0898C81.5517 82.0829 83.5752 83.8232 83.589 86.3163C83.5752 88.7956 81.5517 90.5428 78.8307 90.5497C76.1028 90.5428 74.0517 88.7956 74.0655 86.3163ZM76.0821 95.3011C76.0752 93.1464 78.3957 91.8688 82.0559 91.8688C85.6747 91.8688 87.9606 93.1464 87.9606 95.3011C87.9606 97.442 85.6747 98.7196 82.0559 98.7127C78.3957 98.7196 76.0752 97.442 76.0821 95.3011ZM76.1995 86.3163C76.1857 87.7873 77.3114 88.7058 78.8307 88.7127C80.3363 88.7058 81.462 87.7873 81.4689 86.3163C81.462 84.8591 80.3363 83.9061 78.8307 83.913C77.3114 83.9061 76.1857 84.8591 76.1995 86.3163ZM78.2506 95.3011C78.2437 96.4199 79.6318 96.9862 82.0559 96.9793C84.473 96.9862 85.8266 96.4199 85.8266 95.3011C85.8266 94.1961 84.473 93.6022 82.0559 93.6022C79.6318 93.6022 78.2437 94.1961 78.2506 95.3011ZM106.344 81.0884V98.7265H104.286V89.7417H102.297V97.8494H100.301V81.4199H102.297V87.9876H104.286V81.0884H106.344ZM91.7029 94.6105V83.174H98.2982V84.9213H93.8783V92.7804C95.8051 92.7666 97.3797 92.6699 99.1753 92.3246L99.3479 94.1064C97.2071 94.5345 95.3562 94.5967 92.9046 94.6105H91.7029ZM118.933 82.7735V84.4931H108.456V82.7735H112.621V81.0055H114.782V82.7735H118.933ZM109.368 88.4088C109.361 86.4751 111.143 85.1837 113.705 85.1768C116.246 85.1837 118 86.4751 118.007 88.4088C118 90.3425 116.246 91.634 113.705 91.634C111.143 91.634 109.361 90.3425 109.368 88.4088ZM110.604 94.7072V92.9599H122.372V98.7265H120.19V94.7072H110.604ZM111.474 88.4088C111.46 89.4033 112.358 89.9627 113.705 89.9558C115.038 89.9627 115.936 89.4033 115.949 88.4088C115.936 87.4075 115.038 86.8273 113.705 86.8204C112.358 86.8273 111.46 87.4075 111.474 88.4088ZM120.19 92.1381V81.0884H122.372V85.7776H124.838V87.5525H122.372V92.1381H120.19ZM140.21 82.6975V84.5C140.196 86.6892 140.196 89.0649 139.561 92.5318L137.427 92.3177C138.034 89.0442 138.034 86.634 138.034 84.5V84.4448H127.351V82.6975H140.21ZM125.728 96.4613V94.6796H129.333V89.0442H131.501V94.6796H133.746V89.0442H135.88V94.6796H141.812V96.4613H125.728ZM148.491 97V82.8564H157.676V84.9972H151.025V88.8508H157.193V90.9848H151.025V94.8591H157.724V97H148.491ZM160.132 97V82.8564H165.422C168.674 82.8564 170.408 84.6796 170.408 87.3798C170.408 89.2997 169.531 90.7224 167.859 91.3923L170.926 97H168.08L165.304 91.8135H162.666V97H160.132ZM162.666 89.7003H165.049C166.955 89.7003 167.811 88.8854 167.811 87.3798C167.811 85.8743 166.955 84.9834 165.035 84.9834H162.666V89.7003ZM175.147 82.8564V97H172.612V82.8564H175.147ZM187.297 87.6285C187.007 85.9296 185.654 84.9489 183.934 84.9489C181.614 84.9489 179.977 86.7307 179.977 89.9282C179.977 93.1809 181.628 94.9075 183.92 94.9075C185.612 94.9075 186.966 93.9682 187.297 92.3108L189.873 92.3246C189.48 95.0249 187.242 97.1934 183.893 97.1934C180.157 97.1934 177.422 94.4862 177.422 89.9282C177.422 85.3564 180.191 82.663 183.893 82.663C187.014 82.663 189.431 84.4793 189.873 87.6285H187.297ZM193.671 97H190.95L195.936 82.8564H199.072L204.058 97H201.344L200.17 93.4986H194.845L193.671 97ZM195.529 91.4544H199.479L197.559 85.7431H197.449L195.529 91.4544Z" fill="white"/>
<path d="M70.6989 116.541V118.268H54.587V116.541H61.5829V114.849H56.5691V108.883H68.7445V110.588H58.7238V113.137H68.8412V114.849H63.7099V116.541H70.6989ZM56.4586 122.515C56.4586 120.45 58.7721 119.283 62.605 119.283C66.424 119.283 68.7169 120.45 68.7238 122.515C68.7169 124.566 66.424 125.733 62.605 125.74C58.7721 125.733 56.4586 124.566 56.4586 122.515ZM58.6685 122.515C58.6547 123.537 60.0428 124.069 62.605 124.055C65.1395 124.069 66.5414 123.537 66.5552 122.515C66.5414 121.5 65.1395 120.954 62.605 120.954C60.0428 120.954 58.6547 121.5 58.6685 122.515ZM76.6097 109.366C79.2755 109.373 81.1885 111.79 81.2023 115.602C81.1885 119.442 79.2755 121.859 76.6097 121.852C73.9371 121.859 72.0172 119.442 72.0241 115.602C72.0172 111.79 73.9371 109.373 76.6097 109.366ZM74.1166 115.602C74.1097 118.316 75.1318 119.891 76.6097 119.891C78.1153 119.891 79.1097 118.316 79.1097 115.602C79.1097 112.909 78.1153 111.327 76.6097 111.327C75.1318 111.327 74.1097 112.909 74.1166 115.602ZM83.5227 125.727V108.088H85.6981V114.87H88.4191V116.693H85.6981V125.727H83.5227ZM103.867 108.088V125.768H101.706V108.088H103.867ZM90.1173 111.383V109.622H98.4322V116.244H92.3687V119.794C95.1449 119.78 97.5413 119.642 100.297 119.18L100.49 120.954C97.4861 121.472 94.8479 121.583 91.678 121.583H90.1311V114.518H96.2222V111.383H90.1173ZM117.708 112.329C117.708 115.602 119.276 118.82 122.093 120.064L120.774 121.797C118.778 120.816 117.376 118.945 116.617 116.638C115.85 119.076 114.414 121.099 112.383 122.122L111.016 120.36C113.889 119.021 115.491 115.616 115.505 112.329V109.504H117.708V112.329ZM120.139 115.547V113.793H123.834V108.088H125.988V125.768H123.834V115.547H120.139ZM143.163 108.088V125.768H140.974V108.088H143.163ZM129.399 121.597V109.525H131.575V113.938H135.849V109.525H137.997V121.597H129.399ZM131.575 119.815H135.849V115.637H131.575V119.815ZM154.882 110.499C154.875 113.233 157.548 115.968 161.242 116.617L160.269 118.427C157.306 117.812 154.882 116.023 153.735 113.648C152.575 116.003 150.151 117.798 147.202 118.427L146.249 116.617C149.889 115.954 152.561 113.22 152.575 110.499V109.2H154.882V110.499ZM145.759 123.489V121.693H161.898V123.489H145.759ZM166.49 122.591L164.86 128.068H163.003L164.004 122.591H166.49ZM186.837 108.102V113.648H189.302V115.436H186.837V121.293H184.655V108.102H186.837ZM172.921 111.783V110.057H177.086V108.088H179.247V110.057H183.398V111.783H172.921ZM173.833 115.899C173.826 113.869 175.594 112.522 178.17 112.522C180.704 112.522 182.465 113.869 182.472 115.899C182.465 117.909 180.704 119.235 178.17 119.228C175.594 119.235 173.826 117.909 173.833 115.899ZM175.525 125.395V120.257H177.686V123.634H187.527V125.395H175.525ZM175.939 115.899C175.925 116.956 176.823 117.57 178.17 117.564C179.503 117.57 180.4 116.956 180.414 115.899C180.4 114.822 179.503 114.193 178.17 114.193C176.823 114.193 175.925 114.822 175.939 115.899ZM196.525 113.095C196.512 115.83 198.148 118.931 200.931 120.229L199.716 121.942C197.727 121.017 196.256 119.117 195.462 116.907C194.661 119.331 193.121 121.403 191.097 122.384L189.82 120.671C192.63 119.345 194.343 116.037 194.35 113.095V111.61H190.503V109.829H200.213V111.61H196.525V113.095ZM201.843 125.727V108.088H204.018V114.953H206.739V116.776H204.018V125.727H201.843ZM222.188 108.088V125.768H220.026V108.088H222.188ZM208.438 111.383V109.622H216.753V116.244H210.689V119.794C213.465 119.78 215.862 119.642 218.617 119.18L218.811 120.954C215.806 121.472 213.168 121.583 209.998 121.583H208.451V114.518H214.543V111.383H208.438Z" fill="white"/>
</g>
<defs>
<linearGradient id="paint0_linear_2410_3915" x1="207" y1="0" x2="207" y2="208.74" gradientUnits="userSpaceOnUse">
<stop stop-color="#051528"/>
<stop offset="1" stop-color="#29476A"/>
</linearGradient>
<radialGradient id="paint1_radial_2410_3915" cx="0" cy="0" r="1" gradientUnits="userSpaceOnUse" gradientTransform="translate(26.6384 57.503) rotate(90) scale(1.54277 1.54491)">
<stop offset="0.145833" stop-color="white"/>
<stop offset="1" stop-color="#FF5E5E" stop-opacity="0"/>
</radialGradient>
<radialGradient id="paint2_radial_2410_3915" cx="0" cy="0" r="1" gradientUnits="userSpaceOnUse" gradientTransform="translate(50.4299 1.0377) rotate(90) scale(1.54277 1.54491)">
<stop offset="0.145833" stop-color="white"/>
<stop offset="1" stop-color="#FF5E5E" stop-opacity="0"/>
</radialGradient>
<radialGradient id="paint3_radial_2410_3915" cx="0" cy="0" r="1" gradientUnits="userSpaceOnUse" gradientTransform="translate(23.5486 94.221) rotate(90) scale(1.54277 1.54491)">
<stop offset="0.145833" stop-color="white"/>
<stop offset="1" stop-color="#FF5E5E" stop-opacity="0"/>
</radialGradient>
<radialGradient id="paint4_radial_2410_3915" cx="0" cy="0" r="1" gradientUnits="userSpaceOnUse" gradientTransform="translate(83.491 137.419) rotate(90) scale(1.54277 1.54491)">
<stop offset="0.145833" stop-color="white"/>
<stop offset="1" stop-color="#FF5E5E" stop-opacity="0"/>
</radialGradient>
<radialGradient id="paint5_radial_2410_3915" cx="0" cy="0" r="1" gradientUnits="userSpaceOnUse" gradientTransform="translate(284.947 134.95) rotate(90) scale(1.54277 1.54491)">
<stop offset="0.145833" stop-color="white"/>
<stop offset="1" stop-color="#FF5E5E" stop-opacity="0"/>
</radialGradient>
<radialGradient id="paint6_radial_2410_3915" cx="0" cy="0" r="1" gradientUnits="userSpaceOnUse" gradientTransform="translate(353.232 148.835) rotate(90) scale(1.54277 1.54491)">
<stop offset="0.145833" stop-color="white"/>
<stop offset="1" stop-color="#FF5E5E" stop-opacity="0"/>
</radialGradient>
<radialGradient id="paint7_radial_2410_3915" cx="0" cy="0" r="1" gradientUnits="userSpaceOnUse" gradientTransform="translate(369.299 62.1314) rotate(90) scale(1.54277 1.54491)">
<stop offset="0.145833" stop-color="white"/>
<stop offset="1" stop-color="#FF5E5E" stop-opacity="0"/>
</radialGradient>
<radialGradient id="paint8_radial_2410_3915" cx="0" cy="0" r="1" gradientUnits="userSpaceOnUse" gradientTransform="translate(116.243 152.229) rotate(90) scale(1.54277 1.54491)">
<stop offset="0.015625" stop-color="white"/>
<stop offset="1" stop-color="#FF5E5E" stop-opacity="0"/>
</radialGradient>
<radialGradient id="paint9_radial_2410_3915" cx="0" cy="0" r="1" gradientUnits="userSpaceOnUse" gradientTransform="translate(250.545 113.543) rotate(90) scale(1.54277 1.54491)">
<stop offset="0.015625" stop-color="white"/>
<stop offset="1" stop-color="#FF5E5E" stop-opacity="0"/>
</radialGradient>
<radialGradient id="paint10_radial_2410_3915" cx="0" cy="0" r="1" gradientUnits="userSpaceOnUse" gradientTransform="translate(250.959 142.973) rotate(90) scale(1.54277 1.54491)">
<stop offset="0.015625" stop-color="white"/>
<stop offset="1" stop-color="#FF5E5E" stop-opacity="0"/>
</radialGradient>
<radialGradient id="paint11_radial_2410_3915" cx="0" cy="0" r="1" gradientUnits="userSpaceOnUse" gradientTransform="translate(266.408 152.846) rotate(90) scale(1.54277 1.54491)">
<stop offset="0.015625" stop-color="white"/>
<stop offset="1" stop-color="#FF5E5E" stop-opacity="0"/>
</radialGradient>
<radialGradient id="paint12_radial_2410_3915" cx="0" cy="0" r="1" gradientUnits="userSpaceOnUse" gradientTransform="translate(400.198 149.452) rotate(90) scale(1.54277 1.54491)">
<stop offset="0.015625" stop-color="white"/>
<stop offset="1" stop-color="#FF5E5E" stop-opacity="0"/>
</radialGradient>
<radialGradient id="paint13_radial_2410_3915" cx="0" cy="0" r="1" gradientUnits="userSpaceOnUse" gradientTransform="translate(379.496 57.503) rotate(90) scale(1.54277 1.54491)">
<stop offset="0.015625" stop-color="white"/>
<stop offset="1" stop-color="#FF5E5E" stop-opacity="0"/>
</radialGradient>
<radialGradient id="paint14_radial_2410_3915" cx="0" cy="0" r="1" gradientUnits="userSpaceOnUse" gradientTransform="translate(207.393 9.67717) rotate(90) scale(1.54277 1.54491)">
<stop offset="0.015625" stop-color="white"/>
<stop offset="1" stop-color="#FF5E5E" stop-opacity="0"/>
</radialGradient>
<radialGradient id="paint15_radial_2410_3915" cx="0" cy="0" r="1" gradientUnits="userSpaceOnUse" gradientTransform="translate(225.005 31.5845) rotate(90) scale(1.54277 1.54491)">
<stop offset="0.015625" stop-color="white"/>
<stop offset="1" stop-color="#FF5E5E" stop-opacity="0"/>
</radialGradient>
<radialGradient id="paint16_radial_2410_3915" cx="0" cy="0" r="1" gradientUnits="userSpaceOnUse" gradientTransform="translate(376.406 76.9419) rotate(90) scale(1.54277 1.54491)">
<stop offset="0.015625" stop-color="white"/>
<stop offset="1" stop-color="#FF5E5E" stop-opacity="0"/>
</radialGradient>
<radialGradient id="paint17_radial_2410_3915" cx="0" cy="0" r="1" gradientUnits="userSpaceOnUse" gradientTransform="translate(355.395 60.5886) rotate(90) scale(1.54277 1.54491)">
<stop offset="0.015625" stop-color="white"/>
<stop offset="1" stop-color="#FF5E5E" stop-opacity="0"/>
</radialGradient>
<radialGradient id="paint18_radial_2410_3915" cx="0" cy="0" r="1" gradientUnits="userSpaceOnUse" gradientTransform="translate(162.59 2.88902) rotate(90) scale(1.54277 1.54491)">
<stop offset="0.015625" stop-color="white"/>
<stop offset="1" stop-color="#FF5E5E" stop-opacity="0"/>
</radialGradient>
<radialGradient id="paint19_radial_2410_3915" cx="0" cy="0" r="1" gradientUnits="userSpaceOnUse" gradientTransform="translate(45.1772 92.6782) rotate(90) scale(1.54277 1.54491)">
<stop offset="0.015625" stop-color="white"/>
<stop offset="1" stop-color="#FF5E5E" stop-opacity="0"/>
</radialGradient>
<radialGradient id="paint20_radial_2410_3915" cx="0" cy="0" r="1" gradientUnits="userSpaceOnUse" gradientTransform="translate(313.374 39.2984) rotate(90) scale(1.54277 1.54491)">
<stop offset="0.015625" stop-color="white"/>
<stop offset="1" stop-color="#FF5E5E" stop-opacity="0"/>
</radialGradient>
<radialGradient id="paint21_radial_2410_3915" cx="0" cy="0" r="1" gradientUnits="userSpaceOnUse" gradientTransform="translate(7.48143 143.59) rotate(90) scale(1.54277 1.54491)">
<stop offset="0.015625" stop-color="white"/>
<stop offset="1" stop-color="#FF5E5E" stop-opacity="0"/>
</radialGradient>
<radialGradient id="paint22_radial_2410_3915" cx="0" cy="0" r="1" gradientUnits="userSpaceOnUse" gradientTransform="translate(18.9138 133.407) rotate(90) scale(1.54277 1.54491)">
<stop offset="0.015625" stop-color="white"/>
<stop offset="1" stop-color="#FF5E5E" stop-opacity="0"/>
</radialGradient>
<radialGradient id="paint23_radial_2410_3915" cx="0" cy="0" r="1" gradientUnits="userSpaceOnUse" gradientTransform="translate(50.739 44.2352) rotate(90) scale(1.54277 1.54491)">
<stop offset="0.015625" stop-color="white"/>
<stop offset="1" stop-color="#FF5E5E" stop-opacity="0"/>
</radialGradient>
<radialGradient id="paint24_radial_2410_3915" cx="0" cy="0" r="1" gradientUnits="userSpaceOnUse" gradientTransform="translate(43.0144 76.6334) rotate(90) scale(1.54277 1.54491)">
<stop offset="0.015625" stop-color="white"/>
<stop offset="1" stop-color="#FF5E5E" stop-opacity="0"/>
</radialGradient>
<radialGradient id="paint25_radial_2410_3915" cx="0" cy="0" r="1" gradientUnits="userSpaceOnUse" gradientTransform="translate(149.922 34.6701) rotate(90) scale(1.54277 1.54491)">
<stop offset="0.015625" stop-color="white"/>
<stop offset="1" stop-color="#FF5E5E" stop-opacity="0"/>
</radialGradient>
<radialGradient id="paint26_radial_2410_3915" cx="0" cy="0" r="1" gradientUnits="userSpaceOnUse" gradientTransform="translate(169.079 52.2576) rotate(90) scale(1.54277 1.54491)">
<stop offset="0.015625" stop-color="white"/>
<stop offset="1" stop-color="#FF5E5E" stop-opacity="0"/>
</radialGradient>
<radialGradient id="paint27_radial_2410_3915" cx="0" cy="0" r="1" gradientUnits="userSpaceOnUse" gradientTransform="translate(250.959 75.0906) rotate(90) scale(1.54277 1.54491)">
<stop offset="0.015625" stop-color="white"/>
<stop offset="1" stop-color="#FF5E5E" stop-opacity="0"/>
</radialGradient>
<radialGradient id="paint28_radial_2410_3915" cx="0" cy="0" r="1" gradientUnits="userSpaceOnUse" gradientTransform="translate(244.162 82.1874) rotate(90) scale(1.54277 1.54491)">
<stop offset="0.015625" stop-color="white"/>
<stop offset="1" stop-color="#FF5E5E" stop-opacity="0"/>
</radialGradient>
<radialGradient id="paint29_radial_2410_3915" cx="0" cy="0" r="1" gradientUnits="userSpaceOnUse" gradientTransform="translate(260.229 29.7332) rotate(90) scale(1.54277 1.54491)">
<stop offset="0.015625" stop-color="white"/>
<stop offset="1" stop-color="#FF5E5E" stop-opacity="0"/>
</radialGradient>
<radialGradient id="paint30_radial_2410_3915" cx="0" cy="0" r="1" gradientUnits="userSpaceOnUse" gradientTransform="translate(225.005 51.6405) rotate(90) scale(1.54277 1.54491)">
<stop offset="0.015625" stop-color="white"/>
<stop offset="1" stop-color="#FF5E5E" stop-opacity="0"/>
</radialGradient>
<radialGradient id="paint31_radial_2410_3915" cx="0" cy="0" r="1" gradientUnits="userSpaceOnUse" gradientTransform="translate(288.655 19.8595) rotate(90) scale(1.54277 1.54491)">
<stop offset="0.015625" stop-color="white"/>
<stop offset="1" stop-color="#FF5E5E" stop-opacity="0"/>
</radialGradient>
<radialGradient id="paint32_radial_2410_3915" cx="0" cy="0" r="1" gradientUnits="userSpaceOnUse" gradientTransform="translate(322.952 18.9338) rotate(90) scale(1.54277 1.54491)">
<stop offset="0.015625" stop-color="white"/>
<stop offset="1" stop-color="#FF5E5E" stop-opacity="0"/>
</radialGradient>
<radialGradient id="paint33_radial_2410_3915" cx="0" cy="0" r="1" gradientUnits="userSpaceOnUse" gradientTransform="translate(310.902 24.1792) rotate(90) scale(1.54277 1.54491)">
<stop offset="0.015625" stop-color="white"/>
<stop offset="1" stop-color="#FF5E5E" stop-opacity="0"/>
</radialGradient>
<radialGradient id="paint34_radial_2410_3915" cx="0" cy="0" r="1" gradientUnits="userSpaceOnUse" gradientTransform="translate(310.902 15.8483) rotate(90) scale(1.54277 1.54491)">
<stop offset="0.015625" stop-color="white"/>
<stop offset="1" stop-color="#FF5E5E" stop-opacity="0"/>
</radialGradient>
<radialGradient id="paint35_radial_2410_3915" cx="0" cy="0" r="1" gradientUnits="userSpaceOnUse" gradientTransform="translate(341.8 36.2128) rotate(90) scale(1.54277 1.54491)">
<stop offset="0.015625" stop-color="white"/>
<stop offset="1" stop-color="#FF5E5E" stop-opacity="0"/>
</radialGradient>
<radialGradient id="paint36_radial_2410_3915" cx="0" cy="0" r="1" gradientUnits="userSpaceOnUse" gradientTransform="translate(374.243 31.276) rotate(90) scale(1.54277 1.54491)">
<stop offset="0.015625" stop-color="white"/>
<stop offset="1" stop-color="#FF5E5E" stop-opacity="0"/>
</radialGradient>
<radialGradient id="paint37_radial_2410_3915" cx="0" cy="0" r="1" gradientUnits="userSpaceOnUse" gradientTransform="translate(364.665 48.8636) rotate(90) scale(1.54277 1.54491)">
<stop offset="0.015625" stop-color="white"/>
<stop offset="1" stop-color="#FF5E5E" stop-opacity="0"/>
</radialGradient>
<radialGradient id="paint38_radial_2410_3915" cx="0" cy="0" r="1" gradientUnits="userSpaceOnUse" gradientTransform="translate(353.232 31.8931) rotate(90) scale(1.54277 1.54491)">
<stop offset="0.015625" stop-color="white"/>
<stop offset="1" stop-color="#FF5E5E" stop-opacity="0"/>
</radialGradient>
<radialGradient id="paint39_radial_2410_3915" cx="0" cy="0" r="1" gradientUnits="userSpaceOnUse" gradientTransform="translate(403.556 11.5428) rotate(90) scale(1.54277 1.54491)">
<stop offset="0.015625" stop-color="white"/>
<stop offset="1" stop-color="#FF5E5E" stop-opacity="0"/>
</radialGradient>
<radialGradient id="paint40_radial_2410_3915" cx="0" cy="0" r="1" gradientUnits="userSpaceOnUse" gradientTransform="translate(393.977 29.1304) rotate(90) scale(1.54277 1.54491)">
<stop offset="0.015625" stop-color="white"/>
<stop offset="1" stop-color="#FF5E5E" stop-opacity="0"/>
</radialGradient>
<radialGradient id="paint41_radial_2410_3915" cx="0" cy="0" r="1" gradientUnits="userSpaceOnUse" gradientTransform="translate(358.545 13.5428) rotate(90) scale(1.54277 1.54491)">
<stop offset="0.015625" stop-color="white"/>
<stop offset="1" stop-color="#FF5E5E" stop-opacity="0"/>
</radialGradient>
<radialGradient id="paint42_radial_2410_3915" cx="0" cy="0" r="1" gradientUnits="userSpaceOnUse" gradientTransform="translate(118.715 24.4878) rotate(90) scale(1.54277 1.54491)">
<stop offset="0.015625" stop-color="white"/>
<stop offset="1" stop-color="#FF5E5E" stop-opacity="0"/>
</radialGradient>
<radialGradient id="paint43_radial_2410_3915" cx="0" cy="0" r="1" gradientUnits="userSpaceOnUse" gradientTransform="translate(122.752 62.725) rotate(90) scale(1.54277 1.54491)">
<stop offset="0.015625" stop-color="white"/>
<stop offset="1" stop-color="#FF5E5E" stop-opacity="0"/>
</radialGradient>
<radialGradient id="paint44_radial_2410_3915" cx="0" cy="0" r="1" gradientUnits="userSpaceOnUse" gradientTransform="translate(91.5449 52.5428) rotate(90) scale(1.54277 1.54491)">
<stop offset="0.015625" stop-color="white"/>
<stop offset="1" stop-color="#FF5E5E" stop-opacity="0"/>
</radialGradient>
<radialGradient id="paint45_radial_2410_3915" cx="0" cy="0" r="1" gradientUnits="userSpaceOnUse" gradientTransform="translate(131.074 13.6884) rotate(90) scale(1.54277 1.54491)">
<stop offset="0.015625" stop-color="white"/>
<stop offset="1" stop-color="#FF5E5E" stop-opacity="0"/>
</radialGradient>
<radialGradient id="paint46_radial_2410_3915" cx="0" cy="0" r="1" gradientUnits="userSpaceOnUse" gradientTransform="translate(120.878 2.2719) rotate(90) scale(1.54277 1.54491)">
<stop offset="0.015625" stop-color="white"/>
<stop offset="1" stop-color="#FF5E5E" stop-opacity="0"/>
</radialGradient>
<radialGradient id="paint47_radial_2410_3915" cx="0" cy="0" r="1" gradientUnits="userSpaceOnUse" gradientTransform="translate(164.135 17.0825) rotate(90) scale(1.54277 1.54491)">
<stop offset="0.015625" stop-color="white"/>
<stop offset="1" stop-color="#FF5E5E" stop-opacity="0"/>
</radialGradient>
<radialGradient id="paint48_radial_2410_3915" cx="0" cy="0" r="1" gradientUnits="userSpaceOnUse" gradientTransform="translate(142.197 14.6141) rotate(90) scale(1.54277 1.54491)">
<stop offset="0.015625" stop-color="white"/>
<stop offset="1" stop-color="#FF5E5E" stop-opacity="0"/>
</radialGradient>
<radialGradient id="paint49_radial_2410_3915" cx="0" cy="0" r="1" gradientUnits="userSpaceOnUse" gradientTransform="translate(91.8335 2.58043) rotate(90) scale(1.54277 1.54491)">
<stop offset="0.015625" stop-color="white"/>
<stop offset="1" stop-color="#FF5E5E" stop-opacity="0"/>
</radialGradient>
<radialGradient id="paint50_radial_2410_3915" cx="0" cy="0" r="1" gradientUnits="userSpaceOnUse" gradientTransform="translate(53.5198 28.1904) rotate(90) scale(1.54277 1.54491)">
<stop offset="0.015625" stop-color="white"/>
<stop offset="1" stop-color="#FF5E5E" stop-opacity="0"/>
</radialGradient>
<radialGradient id="paint51_radial_2410_3915" cx="0" cy="0" r="1" gradientUnits="userSpaceOnUse" gradientTransform="translate(76.0754 25.722) rotate(90) scale(1.54277 1.54491)">
<stop offset="0.015625" stop-color="white"/>
<stop offset="1" stop-color="#FF5E5E" stop-opacity="0"/>
</radialGradient>
<radialGradient id="paint52_radial_2410_3915" cx="0" cy="0" r="1" gradientUnits="userSpaceOnUse" gradientTransform="translate(39.9245 135.567) rotate(90) scale(1.54277 1.54491)">
<stop offset="0.015625" stop-color="white"/>
<stop offset="1" stop-color="#FF5E5E" stop-opacity="0"/>
</radialGradient>
<radialGradient id="paint53_radial_2410_3915" cx="0" cy="0" r="1" gradientUnits="userSpaceOnUse" gradientTransform="translate(52.2839 144.207) rotate(90) scale(1.54277 1.54491)">
<stop offset="0.015625" stop-color="white"/>
<stop offset="1" stop-color="#FF5E5E" stop-opacity="0"/>
</radialGradient>
<radialGradient id="paint54_radial_2410_3915" cx="0" cy="0" r="1" gradientUnits="userSpaceOnUse" gradientTransform="translate(143.124 145.132) rotate(90) scale(1.54277 1.54491)">
<stop offset="0.015625" stop-color="white"/>
<stop offset="1" stop-color="#FF5E5E" stop-opacity="0"/>
</radialGradient>
<radialGradient id="paint55_radial_2410_3915" cx="0" cy="0" r="1" gradientUnits="userSpaceOnUse" gradientTransform="translate(302.868 0.72911) rotate(90) scale(1.54277 1.54491)">
<stop offset="0.145833" stop-color="white"/>
<stop offset="1" stop-color="#FF5E5E" stop-opacity="0"/>
</radialGradient>
<radialGradient id="paint56_radial_2410_3915" cx="0" cy="0" r="1" gradientUnits="userSpaceOnUse" gradientTransform="translate(248.796 7.20879) rotate(90) scale(1.54277 1.54491)">
<stop offset="0.145833" stop-color="white"/>
<stop offset="1" stop-color="#FF5E5E" stop-opacity="0"/>
</radialGradient>
<radialGradient id="paint57_radial_2410_3915" cx="0" cy="0" r="1" gradientUnits="userSpaceOnUse" gradientTransform="translate(172.478 21.4023) rotate(90) scale(1.54277 1.54491)">
<stop offset="0.145833" stop-color="white"/>
<stop offset="1" stop-color="#FF5E5E" stop-opacity="0"/>
</radialGradient>
<radialGradient id="paint58_radial_2410_3915" cx="0" cy="0" r="1" gradientUnits="userSpaceOnUse" gradientTransform="translate(160.119 27.5733) rotate(90) scale(1.54277 1.54491)">
<stop offset="0.145833" stop-color="white"/>
<stop offset="1" stop-color="#FF5E5E" stop-opacity="0"/>
</radialGradient>
<radialGradient id="paint59_radial_2410_3915" cx="0" cy="0" r="1" gradientUnits="userSpaceOnUse" gradientTransform="translate(172.169 42.3839) rotate(90) scale(1.54277 1.54491)">
<stop offset="0.145833" stop-color="white"/>
<stop offset="1" stop-color="#FF5E5E" stop-opacity="0"/>
</radialGradient>
<radialGradient id="paint60_radial_2410_3915" cx="0" cy="0" r="1" gradientUnits="userSpaceOnUse" gradientTransform="translate(238.291 38.0641) rotate(90) scale(1.54277 1.54491)">
<stop offset="0.145833" stop-color="white"/>
<stop offset="1" stop-color="#FF5E5E" stop-opacity="0"/>
</radialGradient>
<radialGradient id="paint61_radial_2410_3915" cx="0" cy="0" r="1" gradientUnits="userSpaceOnUse" gradientTransform="translate(258.066 46.0865) rotate(90) scale(1.54277 1.54491)">
<stop offset="0.145833" stop-color="white"/>
<stop offset="1" stop-color="#FF5E5E" stop-opacity="0"/>
</radialGradient>
<radialGradient id="paint62_radial_2410_3915" cx="0" cy="0" r="1" gradientUnits="userSpaceOnUse" gradientTransform="translate(235.819 51.6405) rotate(90) scale(1.54277 1.54491)">
<stop offset="0.145833" stop-color="white"/>
<stop offset="1" stop-color="#FF5E5E" stop-opacity="0"/>
</radialGradient>
<radialGradient id="paint63_radial_2410_3915" cx="0" cy="0" r="1" gradientUnits="userSpaceOnUse" gradientTransform="translate(202.14 64.5998) rotate(90) scale(1.54277 1.54491)">
<stop offset="0.145833" stop-color="white"/>
<stop offset="1" stop-color="#FF5E5E" stop-opacity="0"/>
</radialGradient>
<radialGradient id="paint64_radial_2410_3915" cx="0" cy="0" r="1" gradientUnits="userSpaceOnUse" gradientTransform="translate(223.46 64.5998) rotate(90) scale(1.54277 1.54491)">
<stop offset="0.145833" stop-color="white"/>
<stop offset="1" stop-color="#FF5E5E" stop-opacity="0"/>
</radialGradient>
<clipPath id="clip0_2410_3915">
<rect width="414" height="208.74" fill="white"/>
</clipPath>
</defs>
</svg>
