<svg width="360" height="165" viewBox="0 0 360 165" fill="none" xmlns="http://www.w3.org/2000/svg">
<g clip-path="url(#clip0_2544_1304)">
<rect width="360" height="165" fill="url(#paint0_linear_2544_1304)"/>
<path d="M278.028 81.262C278.028 81.262 264.646 81.2042 265.007 92.4761C265.153 97.0156 271.152 103.847 279.448 100.267C281.461 99.1652 284.657 95.7813 285.367 90.4694L288.444 70.0479C289.073 66.8774 291.83 59.6365 301.11 60.0142C304.622 60.211 311.716 62.9417 312 72.2907C312 76.5319 309.846 86.4323 305.016 95.3091" stroke="#FBFBFB" stroke-width="3.34277" stroke-linecap="round" stroke-linejoin="round"/>
<path d="M295.654 96.5751C295.793 95.7299 297.008 95.7299 297.147 96.5751C297.815 100.63 300.994 103.809 305.049 104.477C305.894 104.616 305.894 105.831 305.049 105.971C300.994 106.639 297.815 109.817 297.147 113.873C297.008 114.718 295.793 114.718 295.654 113.873C294.986 109.817 291.807 106.639 287.752 105.971C286.907 105.831 286.907 104.616 287.752 104.477C291.807 103.809 294.986 100.63 295.654 96.5751Z" fill="#FBFBFB"/>
<path d="M275.073 65.3328C275.238 64.3353 276.672 64.3353 276.836 65.3328C277.14 67.1771 278.585 68.6226 280.43 68.9263C281.427 69.0906 281.427 70.5248 280.43 70.6891C278.585 70.9929 277.14 72.4384 276.836 74.2827C276.672 75.2801 275.238 75.2801 275.073 74.2827C274.77 72.4384 273.324 70.9929 271.48 70.6891C270.482 70.5248 270.482 69.0906 271.48 68.9263C273.324 68.6226 274.77 67.1771 275.073 65.3328Z" fill="#FBFBFB"/>
<path d="M50.1616 51.8715V55.7535H51.8874V57.0055H50.1616V61.105H48.634V51.8715H50.1616ZM40.4206 54.4482V53.2396H43.3356V51.8619H44.8488V53.2396H47.7541V54.4482H40.4206ZM41.0587 57.3294C41.0539 55.9081 42.2914 54.9655 44.0946 54.9655C45.8688 54.9655 47.1015 55.9081 47.1064 57.3294C47.1015 58.7362 45.8688 59.6644 44.0946 59.6595C42.2914 59.6644 41.0539 58.7362 41.0587 57.3294ZM42.2431 63.9765V60.3798H43.7562V62.7438H50.645V63.9765H42.2431ZM42.5331 57.3294C42.5235 58.0691 43.1519 58.4993 44.0946 58.4945C45.0276 58.4993 45.6561 58.0691 45.6657 57.3294C45.6561 56.5753 45.0276 56.1354 44.0946 56.1354C43.1519 56.1354 42.5235 56.5753 42.5331 57.3294ZM63.9339 53.5055V54.7528H62.2612V56.1692H63.9339V57.4261H62.2612V59.1181H60.7336V51.8619H62.2612V53.5055H63.9339ZM52.6459 55.5214C52.6362 53.7762 54.072 52.558 55.9815 52.5628C57.8862 52.558 59.3026 53.7762 59.3123 55.5214C59.3026 57.2569 57.8862 58.48 55.9815 58.4848C54.072 58.48 52.6362 57.2569 52.6459 55.5214ZM54.0575 61.8108C54.0526 60.3025 55.677 59.4081 58.2391 59.4081C60.7723 59.4081 62.3724 60.3025 62.3724 61.8108C62.3724 63.3094 60.7723 64.2037 58.2391 64.1989C55.677 64.2037 54.0526 63.3094 54.0575 61.8108ZM54.1397 55.5214C54.13 56.5511 54.918 57.1941 55.9815 57.1989C57.0354 57.1941 57.8234 56.5511 57.8282 55.5214C57.8234 54.5014 57.0354 53.8343 55.9815 53.8391C54.918 53.8343 54.13 54.5014 54.1397 55.5214ZM55.5754 61.8108C55.5706 62.5939 56.5423 62.9903 58.2391 62.9855C59.9311 62.9903 60.8786 62.5939 60.8786 61.8108C60.8786 61.0373 59.9311 60.6215 58.2391 60.6215C56.5423 60.6215 55.5706 61.0373 55.5754 61.8108ZM75.2407 51.8619V64.2086H73.8V57.9192H72.4078V63.5946H71.0107V52.0939H72.4078V56.6913H73.8V51.8619H75.2407ZM64.992 61.3273V53.3218H69.6087V54.5449H66.5148V60.0463C67.8636 60.0366 68.9658 59.9689 70.2227 59.7272L70.3436 60.9744C68.8449 61.2742 67.5494 61.3177 65.8332 61.3273H64.992ZM84.053 53.0414V54.2452H76.7194V53.0414H79.6345V51.8039H81.1476V53.0414H84.053ZM77.3575 56.9862C77.3527 55.6326 78.5999 54.7286 80.3934 54.7238C82.1724 54.7286 83.4003 55.6326 83.4052 56.9862C83.4003 58.3398 82.1724 59.2438 80.3934 59.2438C78.5999 59.2438 77.3527 58.3398 77.3575 56.9862ZM78.2229 61.395V60.172H86.4604V64.2086H84.9328V61.395H78.2229ZM78.832 56.9862C78.8223 57.6823 79.4508 58.0739 80.3934 58.0691C81.3265 58.0739 81.9549 57.6823 81.9646 56.9862C81.9549 56.2852 81.3265 55.8791 80.3934 55.8743C79.4508 55.8791 78.8223 56.2852 78.832 56.9862ZM84.9328 59.5967V51.8619H86.4604V55.1443H88.1863V56.3867H86.4604V59.5967H84.9328ZM98.9468 52.9883V54.25C98.9371 55.7825 98.9371 57.4454 98.4924 59.8722L96.9986 59.7224C97.424 57.4309 97.424 55.7438 97.424 54.25V54.2113H89.9454V52.9883H98.9468ZM88.8093 62.6229V61.3757H91.3328V57.4309H92.8508V61.3757H94.4219V57.4309H95.9157V61.3757H100.068V62.6229H88.8093ZM104.744 63V53.0994H111.173V54.5981H106.518V57.2956H110.835V58.7894H106.518V61.5014H111.207V63H104.744ZM112.892 63V53.0994H116.595C118.872 53.0994 120.085 54.3757 120.085 56.2659C120.085 57.6098 119.472 58.6057 118.302 59.0746L120.448 63H118.456L116.513 59.3695H114.666V63H112.892ZM114.666 57.8902H116.334C117.668 57.8902 118.268 57.3198 118.268 56.2659C118.268 55.212 117.668 54.5884 116.324 54.5884H114.666V57.8902ZM123.403 53.0994V63H121.628V53.0994H123.403ZM131.908 56.4399C131.705 55.2507 130.758 54.5642 129.554 54.5642C127.93 54.5642 126.784 55.8115 126.784 58.0497C126.784 60.3267 127.939 61.5352 129.544 61.5352C130.729 61.5352 131.676 60.8778 131.908 59.7175L133.711 59.7272C133.436 61.6174 131.87 63.1354 129.525 63.1354C126.91 63.1354 124.995 61.2403 124.995 58.0497C124.995 54.8494 126.934 52.9641 129.525 52.9641C131.71 52.9641 133.402 54.2355 133.711 56.4399H131.908ZM136.37 63H134.465L137.955 53.0994H140.15L143.641 63H141.741L140.919 60.549H137.192L136.37 63ZM137.67 59.1181H140.435L139.091 55.1202H139.014L137.67 59.1181Z" fill="#FBFBFB"/>
<path d="M55.029 80.2873V81.8412H40.5283V80.2873H46.8246V78.7645H42.3122V73.3943H53.27V74.9296H44.2514V77.2231H53.357V78.7645H48.739V80.2873H55.029ZM42.2127 85.6637C42.2127 83.8052 44.2949 82.7548 47.7445 82.7548C51.1816 82.7548 53.2452 83.8052 53.2514 85.6637C53.2452 87.5097 51.1816 88.5601 47.7445 88.5663C44.2949 88.5601 42.2127 87.5097 42.2127 85.6637ZM44.2017 85.6637C44.1892 86.5836 45.4385 87.0622 47.7445 87.0497C50.0256 87.0622 51.2873 86.5836 51.2997 85.6637C51.2873 84.75 50.0256 84.259 47.7445 84.259C45.4385 84.259 44.1892 84.75 44.2017 85.6637ZM60.3488 73.8294C62.7479 73.8356 64.4696 76.011 64.4821 79.442C64.4696 82.8978 62.7479 85.0732 60.3488 85.067C57.9434 85.0732 56.2155 82.8978 56.2217 79.442C56.2155 76.011 57.9434 73.8356 60.3488 73.8294ZM58.105 79.442C58.0988 81.8847 59.0187 83.3018 60.3488 83.3018C61.7037 83.3018 62.5988 81.8847 62.5988 79.442C62.5988 77.018 61.7037 75.5946 60.3488 75.5946C59.0187 75.5946 58.0988 77.018 58.105 79.442ZM66.5705 88.5539V72.6796H68.5283V78.7831H70.9772V80.424H68.5283V88.5539H66.5705ZM84.8805 72.6796V88.5912H82.9351V72.6796H84.8805ZM72.5055 75.6443V74.0594H79.989V80.02H74.5318V83.2148C77.0304 83.2023 79.1872 83.078 81.6671 82.6616L81.8412 84.259C79.1375 84.7251 76.7631 84.8246 73.9102 84.8246H72.518V78.4662H78V75.6443H72.5055ZM97.3371 76.4959C97.3371 79.442 98.748 82.3384 101.284 83.4572L100.097 85.0173C98.3005 84.1347 97.0388 82.4503 96.3551 80.3743C95.6652 82.5684 94.3723 84.3895 92.545 85.3094L91.3143 83.7244C93.9 82.5186 95.342 79.4544 95.3544 76.4959V73.9537H97.3371V76.4959ZM99.525 79.3923V77.8135H102.85V72.6796H104.789V88.5912H102.85V79.3923H99.525ZM120.247 72.6796V88.5912H118.276V72.6796H120.247ZM107.859 84.837V73.9724H109.817V77.9441H113.664V73.9724H115.597V84.837H107.859ZM109.817 83.2334H113.664V79.4731H109.817V83.2334ZM130.794 74.8488C130.787 77.3101 133.193 79.7714 136.518 80.3557L135.642 81.9841C132.975 81.4309 130.794 79.8211 129.762 77.683C128.718 79.8025 126.536 81.4185 123.882 81.9841L123.024 80.3557C126.3 79.759 128.705 77.2977 128.718 74.8488V73.6802H130.794V74.8488ZM122.583 86.5401V84.924H137.109V86.5401H122.583ZM141.241 85.732L139.774 90.6609H138.102L139.004 85.732H141.241ZM159.553 72.692V77.683H161.772V79.2928H159.553V84.5635H157.589V72.692H159.553ZM147.029 76.0048V74.451H150.777V72.6796H152.722V74.451H156.458V76.0048H147.029ZM147.849 79.7093C147.843 77.8819 149.434 76.6699 151.753 76.6699C154.034 76.6699 155.619 77.8819 155.625 79.7093C155.619 81.518 154.034 82.7113 151.753 82.7051C149.434 82.7113 147.843 81.518 147.849 79.7093ZM149.372 88.2555V83.6312H151.318V86.6706H160.175V88.2555H149.372ZM149.745 79.7093C149.733 80.6602 150.541 81.2134 151.753 81.2072C152.952 81.2134 153.76 80.6602 153.773 79.7093C153.76 78.7396 152.952 78.174 151.753 78.174C150.541 78.174 149.733 78.7396 149.745 79.7093ZM168.273 77.1858C168.26 79.6471 169.733 82.4378 172.238 83.6064L171.144 85.1478C169.354 84.3149 168.03 82.6057 167.316 80.6167C166.595 82.7983 165.209 84.663 163.387 85.5456L162.238 84.0041C164.767 82.8108 166.309 79.8336 166.315 77.1858V75.8494H162.853V74.2459H171.592V75.8494H168.273V77.1858ZM173.059 88.5539V72.6796H175.017V78.8577H177.466V80.4986H175.017V88.5539H173.059ZM191.369 72.6796V88.5912H189.423V72.6796H191.369ZM178.994 75.6443V74.0594H186.477V80.02H181.02V83.2148C183.519 83.2023 185.675 83.078 188.155 82.6616L188.329 84.259C185.626 84.7251 183.251 84.8246 180.399 84.8246H179.006V78.4662H184.488V75.6443H178.994Z" fill="#FBFBFB"/>
<rect x="40.497" y="101.497" width="165.006" height="28.0059" rx="14.003" stroke="#FBFBFB" stroke-width="0.994083"/>
<path d="M61.9195 111.294V114.39H63.3135V115.241H61.9195V118.5H60.8978V111.294H61.9195ZM54.3684 113.239V112.419H56.731V111.29H57.7452V112.419H60.0963V113.239H54.3684ZM54.8926 115.526C54.8888 114.42 55.8384 113.702 57.2362 113.702C58.615 113.702 59.5646 114.42 59.5684 115.526C59.5646 116.612 58.615 117.322 57.2362 117.322C55.8384 117.322 54.8888 116.612 54.8926 115.526ZM55.8194 120.714V117.926H56.8336V119.878H62.3298V120.714H55.8194ZM55.8764 115.526C55.8688 116.148 56.4157 116.532 57.2362 116.528C58.049 116.532 58.596 116.148 58.6036 115.526C58.596 114.887 58.049 114.492 57.2362 114.492C56.4157 114.492 55.8688 114.887 55.8764 115.526ZM67.2178 114.128C67.2102 115.643 68.213 117.341 69.6715 118.029L69.0942 118.834C68.0117 118.314 67.157 117.227 66.7202 115.97C66.2796 117.341 65.3794 118.53 64.2855 119.073L63.6816 118.268C65.1401 117.569 66.1999 115.753 66.2075 114.128V113.098H64.0386V112.255H69.3069V113.098H67.2178V114.128ZM70.3401 120.912V111.287H71.3618V115.104H72.9039V115.966H71.3618V120.912H70.3401ZM81.3548 111.287V120.931H80.3445V111.287H81.3548ZM73.9025 112.988V112.153H78.4111V115.674H74.9622V117.778C76.5195 117.77 77.8831 117.698 79.4936 117.432L79.5886 118.276C77.8831 118.557 76.4322 118.621 74.7381 118.621H73.9139V114.853H77.378V112.988H73.9025ZM94.3715 118.857V119.689H85.5631V118.857H89.4184V116.562H90.4212V118.857H94.3715ZM85.8594 115.89C87.713 115.586 89.369 114.158 89.3766 112.627V111.906H90.4516V112.627C90.4516 114.158 92.1266 115.586 93.9878 115.89L93.5396 116.737C91.9823 116.43 90.5503 115.465 89.916 114.143C89.2779 115.457 87.8611 116.433 86.3076 116.737L85.8594 115.89ZM103.312 111.287V120.912H102.325V115.921H101.14V120.448H100.186V111.545H101.14V115.089H102.325V111.287H103.312ZM95.032 118.158C97.178 116.942 98.0744 115.305 98.2302 113.345H95.4422V112.513H99.2253C99.2177 115.043 98.3783 117.318 95.6245 118.876L95.032 118.158ZM112.899 111.287V120.912H111.919V111.287H112.899ZM104.47 117.736C104.748 117.736 105.067 117.736 105.412 117.732V113.304H104.668V112.472H109.085V113.304H108.341V117.607C108.671 117.58 108.987 117.55 109.283 117.508L109.351 118.253C107.832 118.549 105.83 118.591 104.588 118.591L104.47 117.736ZM106.332 117.713C106.681 117.702 107.042 117.691 107.403 117.672V113.304H106.332V117.713ZM108.823 115.81V114.895H110.027V111.507H110.992V120.418H110.027V115.81H108.823ZM122.056 111.287V120.931H121.031V111.287H122.056ZM114.414 115.385C114.414 113.323 115.451 112.012 116.902 112.008C118.338 112.012 119.386 113.323 119.386 115.385C119.386 117.459 118.338 118.769 116.902 118.769C115.451 118.769 114.414 117.459 114.414 115.385ZM115.398 115.385C115.398 116.912 116.013 117.854 116.902 117.854C117.791 117.854 118.399 116.912 118.399 115.385C118.399 113.869 117.791 112.927 116.902 112.92C116.013 112.927 115.398 113.869 115.398 115.385ZM127.13 114.128C127.13 115.734 128.186 117.398 129.668 118.029L129.109 118.834C127.974 118.333 127.077 117.269 126.629 115.993C126.181 117.36 125.277 118.53 124.16 119.073L123.564 118.268C125.015 117.592 126.09 115.78 126.097 114.128V113.098H123.902V112.255H129.326V113.098H127.13V114.128ZM130.538 120.912V111.287H131.563V120.912H130.538ZM144.591 118.876V119.719H135.783V118.876H139.657V116.901H136.786V111.944H137.807V113.604H142.532V111.944H143.547V116.901H140.667V118.876H144.591ZM137.807 116.073H142.532V114.424H137.807V116.073ZM153.304 111.287V120.931H152.294V115.753H150.528V114.906H152.294V111.287H153.304ZM145.616 112.988V112.153H149.962V115.598H146.657V117.782C148.195 117.778 149.38 117.729 150.729 117.482L150.809 118.325C149.369 118.579 148.1 118.636 146.399 118.64H145.647V114.766H148.966V112.988H145.616ZM162.294 111.287V115.123H163.787V115.978H162.294V120.9H161.273V111.287H162.294ZM154.8 118.336C157.216 117.132 158.523 115.393 158.739 113.148H155.283V112.305H159.776C159.769 115.081 158.542 117.565 155.37 119.126L154.8 118.336ZM172.303 111.287V120.912H171.277V111.287H172.303ZM164.394 118.333C166.955 117.117 168.2 115.381 168.402 113.136H164.862V112.324H169.442C169.435 115.138 168.238 117.58 164.934 119.157L164.394 118.333Z" fill="white"/>
<path d="M183.875 112.25L187.125 115.5L183.875 118.75" stroke="white" stroke-width="1.08333" stroke-linecap="round"/>
<g style="mix-blend-mode:color-dodge">
<rect width="2.6868" height="2.88245" transform="translate(1.00317 23.9114)" fill="black"/>
<ellipse cx="2.34657" cy="25.3526" rx="1.3434" ry="1.44122" fill="url(#paint1_radial_2544_1304)"/>
</g>
<g style="mix-blend-mode:color-dodge">
<rect width="3.08982" height="3.08554" transform="translate(28.6726 6.17102)" fill="black"/>
<ellipse cx="30.2175" cy="7.71379" rx="1.54491" ry="1.54277" fill="url(#paint2_radial_2544_1304)"/>
</g>
<g style="mix-blend-mode:color-dodge">
<rect width="3.08982" height="3.08554" transform="translate(185.635 14.8105)" fill="black"/>
<ellipse cx="187.18" cy="16.3533" rx="1.54491" ry="1.54277" fill="url(#paint3_radial_2544_1304)"/>
</g>
<g style="mix-blend-mode:color-dodge">
<rect width="3.08982" height="3.08554" transform="translate(140.833 8.02234)" fill="black"/>
<ellipse cx="142.378" cy="9.56511" rx="1.54491" ry="1.54277" fill="url(#paint4_radial_2544_1304)"/>
</g>
<g style="mix-blend-mode:color-dodge">
<rect width="3.08982" height="3.08554" transform="translate(266.898 24.9928)" fill="black"/>
<ellipse cx="268.443" cy="26.5356" rx="1.54491" ry="1.54277" fill="url(#paint5_radial_2544_1304)"/>
</g>
<g style="mix-blend-mode:color-dodge">
<rect width="3.08982" height="3.08554" transform="translate(301.195 24.0671)" fill="black"/>
<ellipse cx="302.74" cy="25.6099" rx="1.54491" ry="1.54277" fill="url(#paint6_radial_2544_1304)"/>
</g>
<g style="mix-blend-mode:color-dodge">
<rect width="3.08982" height="3.08554" transform="translate(289.145 29.3126)" fill="black"/>
<ellipse cx="290.689" cy="30.8554" rx="1.54491" ry="1.54277" fill="url(#paint7_radial_2544_1304)"/>
</g>
<g style="mix-blend-mode:color-dodge">
<rect width="3.08982" height="3.08554" transform="translate(289.145 20.9817)" fill="black"/>
<ellipse cx="290.689" cy="22.5245" rx="1.54491" ry="1.54277" fill="url(#paint8_radial_2544_1304)"/>
</g>
<g style="mix-blend-mode:color-dodge">
<rect width="3.08982" height="3.08554" transform="translate(336.788 18.6761)" fill="black"/>
<ellipse cx="338.333" cy="20.2189" rx="1.54491" ry="1.54277" fill="url(#paint9_radial_2544_1304)"/>
</g>
<g style="mix-blend-mode:color-dodge">
<rect width="3.08982" height="3.08554" transform="translate(96.9578 29.6212)" fill="black"/>
<ellipse cx="98.5027" cy="31.164" rx="1.54491" ry="1.54277" fill="url(#paint10_radial_2544_1304)"/>
</g>
<g style="mix-blend-mode:color-dodge">
<rect width="3.08982" height="3.08554" transform="translate(109.317 18.8218)" fill="black"/>
<ellipse cx="110.862" cy="20.3645" rx="1.54491" ry="1.54277" fill="url(#paint11_radial_2544_1304)"/>
</g>
<g style="mix-blend-mode:color-dodge">
<rect width="3.08982" height="3.08554" transform="translate(99.1206 7.40527)" fill="black"/>
<ellipse cx="100.666" cy="8.94804" rx="1.54491" ry="1.54277" fill="url(#paint12_radial_2544_1304)"/>
</g>
<g style="mix-blend-mode:color-dodge">
<rect width="3.08982" height="3.08554" transform="translate(142.378 22.2158)" fill="black"/>
<ellipse cx="143.923" cy="23.7586" rx="1.54491" ry="1.54277" fill="url(#paint13_radial_2544_1304)"/>
</g>
<g style="mix-blend-mode:color-dodge">
<rect width="3.08982" height="3.08554" transform="translate(120.44 19.7474)" fill="black"/>
<ellipse cx="121.985" cy="21.2902" rx="1.54491" ry="1.54277" fill="url(#paint14_radial_2544_1304)"/>
</g>
<g style="mix-blend-mode:color-dodge">
<rect width="3.08982" height="3.08554" transform="translate(70.0762 7.71387)" fill="black"/>
<ellipse cx="71.6211" cy="9.25664" rx="1.54491" ry="1.54277" fill="url(#paint15_radial_2544_1304)"/>
</g>
<g style="mix-blend-mode:color-dodge">
<rect width="3.08982" height="3.08554" transform="translate(55.2451)" fill="black"/>
<ellipse cx="56.79" cy="1.54277" rx="1.54491" ry="1.54277" fill="url(#paint16_radial_2544_1304)"/>
</g>
<g style="mix-blend-mode:color-dodge">
<rect width="3.08982" height="3.08554" transform="translate(54.3181 30.8553)" fill="black"/>
<ellipse cx="55.863" cy="32.3981" rx="1.54491" ry="1.54277" fill="url(#paint17_radial_2544_1304)"/>
</g>
<g style="mix-blend-mode:color-dodge">
<rect width="3.08982" height="3.08554" transform="translate(163.389 1.54272)" fill="black"/>
<ellipse cx="164.934" cy="3.08549" rx="1.54491" ry="1.54277" fill="url(#paint18_radial_2544_1304)"/>
</g>
<g style="mix-blend-mode:color-dodge">
<rect width="3.08982" height="3.08554" transform="translate(185.018)" fill="black"/>
<ellipse cx="186.562" cy="1.54277" rx="1.54491" ry="1.54277" fill="url(#paint19_radial_2544_1304)"/>
</g>
<g style="mix-blend-mode:color-dodge">
<rect width="3.08982" height="3.08554" transform="translate(281.111 5.86255)" fill="black"/>
<ellipse cx="282.656" cy="7.40532" rx="1.54491" ry="1.54277" fill="url(#paint20_radial_2544_1304)"/>
</g>
<g style="mix-blend-mode:color-dodge">
<rect width="3.08982" height="3.08554" transform="translate(227.039 12.3422)" fill="black"/>
<ellipse cx="228.584" cy="13.8849" rx="1.54491" ry="1.54277" fill="url(#paint21_radial_2544_1304)"/>
</g>
<g style="mix-blend-mode:color-dodge">
<rect width="3.08982" height="3.08554" transform="translate(122.272 38.3309)" fill="black"/>
<ellipse cx="123.817" cy="39.8737" rx="1.54491" ry="1.54277" fill="url(#paint22_radial_2544_1304)"/>
</g>
<g style="mix-blend-mode:color-dodge">
<rect width="3.08982" height="3.08554" transform="translate(323.729 35.8625)" fill="black"/>
<ellipse cx="325.274" cy="37.4053" rx="1.54491" ry="1.54277" fill="url(#paint23_radial_2544_1304)" fill-opacity="0.7"/>
</g>
<g style="mix-blend-mode:color-dodge">
<rect width="3.08982" height="3.08554" transform="translate(193.275 42)" fill="black"/>
<ellipse cx="194.82" cy="43.5428" rx="1.54491" ry="1.54277" fill="url(#paint24_radial_2544_1304)" fill-opacity="0.7"/>
</g>
<g style="mix-blend-mode:color-dodge">
<rect width="3.08982" height="3.08554" transform="translate(256.275 44)" fill="black"/>
<ellipse cx="257.82" cy="45.5428" rx="1.54491" ry="1.54277" fill="url(#paint25_radial_2544_1304)" fill-opacity="0.7"/>
</g>
<g style="mix-blend-mode:color-dodge">
<rect width="3.08982" height="3.08554" transform="translate(46.2629 44.5021)" fill="black"/>
<ellipse cx="47.8078" cy="46.0448" rx="1.54491" ry="1.54277" fill="url(#paint26_radial_2544_1304)" fill-opacity="0.7"/>
</g>
<g style="mix-blend-mode:color-dodge">
<rect width="3.08982" height="3.08554" transform="translate(12.2749 30)" fill="black"/>
<ellipse cx="13.8198" cy="31.5428" rx="1.54491" ry="1.54277" fill="url(#paint27_radial_2544_1304)"/>
</g>
<g style="mix-blend-mode:color-dodge">
<rect width="3.08982" height="3.08554" transform="translate(78.7061 36.4796)" fill="black"/>
<ellipse cx="80.251" cy="38.0224" rx="1.54491" ry="1.54277" fill="url(#paint28_radial_2544_1304)" fill-opacity="0.7"/>
</g>
<g style="mix-blend-mode:color-dodge">
<rect width="3.08982" height="3.08554" transform="translate(166.275 31)" fill="black"/>
<ellipse cx="167.82" cy="32.5428" rx="1.54491" ry="1.54277" fill="url(#paint29_radial_2544_1304)" fill-opacity="0.7"/>
</g>
<g style="mix-blend-mode:color-dodge">
<rect width="3.08982" height="3.08554" transform="translate(208.275 36)" fill="black"/>
<ellipse cx="209.82" cy="37.5428" rx="1.54491" ry="1.54277" fill="url(#paint30_radial_2544_1304)" fill-opacity="0.7"/>
</g>
</g>
<defs>
<linearGradient id="paint0_linear_2544_1304" x1="180" y1="0" x2="180" y2="219.154" gradientUnits="userSpaceOnUse">
<stop stop-color="#051528"/>
<stop offset="1" stop-color="#275081"/>
</linearGradient>
<radialGradient id="paint1_radial_2544_1304" cx="0" cy="0" r="1" gradientUnits="userSpaceOnUse" gradientTransform="translate(2.34657 25.3526) rotate(90) scale(1.44122 1.3434)">
<stop offset="0.015625" stop-color="white"/>
<stop offset="1" stop-color="#FF5E5E" stop-opacity="0"/>
</radialGradient>
<radialGradient id="paint2_radial_2544_1304" cx="0" cy="0" r="1" gradientUnits="userSpaceOnUse" gradientTransform="translate(30.2175 7.71379) rotate(90) scale(1.54277 1.54491)">
<stop offset="0.145833" stop-color="white"/>
<stop offset="1" stop-color="#FF5E5E" stop-opacity="0"/>
</radialGradient>
<radialGradient id="paint3_radial_2544_1304" cx="0" cy="0" r="1" gradientUnits="userSpaceOnUse" gradientTransform="translate(187.18 16.3533) rotate(90) scale(1.54277 1.54491)">
<stop offset="0.015625" stop-color="white"/>
<stop offset="1" stop-color="#FF5E5E" stop-opacity="0"/>
</radialGradient>
<radialGradient id="paint4_radial_2544_1304" cx="0" cy="0" r="1" gradientUnits="userSpaceOnUse" gradientTransform="translate(142.378 9.56511) rotate(90) scale(1.54277 1.54491)">
<stop offset="0.015625" stop-color="white"/>
<stop offset="1" stop-color="#FF5E5E" stop-opacity="0"/>
</radialGradient>
<radialGradient id="paint5_radial_2544_1304" cx="0" cy="0" r="1" gradientUnits="userSpaceOnUse" gradientTransform="translate(268.443 26.5356) rotate(90) scale(1.54277 1.54491)">
<stop offset="0.015625" stop-color="white"/>
<stop offset="1" stop-color="#FF5E5E" stop-opacity="0"/>
</radialGradient>
<radialGradient id="paint6_radial_2544_1304" cx="0" cy="0" r="1" gradientUnits="userSpaceOnUse" gradientTransform="translate(302.74 25.6099) rotate(90) scale(1.54277 1.54491)">
<stop offset="0.015625" stop-color="white"/>
<stop offset="1" stop-color="#FF5E5E" stop-opacity="0"/>
</radialGradient>
<radialGradient id="paint7_radial_2544_1304" cx="0" cy="0" r="1" gradientUnits="userSpaceOnUse" gradientTransform="translate(290.689 30.8554) rotate(90) scale(1.54277 1.54491)">
<stop offset="0.015625" stop-color="white"/>
<stop offset="1" stop-color="#FF5E5E" stop-opacity="0"/>
</radialGradient>
<radialGradient id="paint8_radial_2544_1304" cx="0" cy="0" r="1" gradientUnits="userSpaceOnUse" gradientTransform="translate(290.689 22.5245) rotate(90) scale(1.54277 1.54491)">
<stop offset="0.015625" stop-color="white"/>
<stop offset="1" stop-color="#FF5E5E" stop-opacity="0"/>
</radialGradient>
<radialGradient id="paint9_radial_2544_1304" cx="0" cy="0" r="1" gradientUnits="userSpaceOnUse" gradientTransform="translate(338.333 20.2189) rotate(90) scale(1.54277 1.54491)">
<stop offset="0.015625" stop-color="white"/>
<stop offset="1" stop-color="#FF5E5E" stop-opacity="0"/>
</radialGradient>
<radialGradient id="paint10_radial_2544_1304" cx="0" cy="0" r="1" gradientUnits="userSpaceOnUse" gradientTransform="translate(98.5027 31.164) rotate(90) scale(1.54277 1.54491)">
<stop offset="0.015625" stop-color="white"/>
<stop offset="1" stop-color="#FF5E5E" stop-opacity="0"/>
</radialGradient>
<radialGradient id="paint11_radial_2544_1304" cx="0" cy="0" r="1" gradientUnits="userSpaceOnUse" gradientTransform="translate(110.862 20.3645) rotate(90) scale(1.54277 1.54491)">
<stop offset="0.015625" stop-color="white"/>
<stop offset="1" stop-color="#FF5E5E" stop-opacity="0"/>
</radialGradient>
<radialGradient id="paint12_radial_2544_1304" cx="0" cy="0" r="1" gradientUnits="userSpaceOnUse" gradientTransform="translate(100.666 8.94804) rotate(90) scale(1.54277 1.54491)">
<stop offset="0.015625" stop-color="white"/>
<stop offset="1" stop-color="#FF5E5E" stop-opacity="0"/>
</radialGradient>
<radialGradient id="paint13_radial_2544_1304" cx="0" cy="0" r="1" gradientUnits="userSpaceOnUse" gradientTransform="translate(143.923 23.7586) rotate(90) scale(1.54277 1.54491)">
<stop offset="0.015625" stop-color="white"/>
<stop offset="1" stop-color="#FF5E5E" stop-opacity="0"/>
</radialGradient>
<radialGradient id="paint14_radial_2544_1304" cx="0" cy="0" r="1" gradientUnits="userSpaceOnUse" gradientTransform="translate(121.985 21.2902) rotate(90) scale(1.54277 1.54491)">
<stop offset="0.015625" stop-color="white"/>
<stop offset="1" stop-color="#FF5E5E" stop-opacity="0"/>
</radialGradient>
<radialGradient id="paint15_radial_2544_1304" cx="0" cy="0" r="1" gradientUnits="userSpaceOnUse" gradientTransform="translate(71.6211 9.25664) rotate(90) scale(1.54277 1.54491)">
<stop offset="0.015625" stop-color="white"/>
<stop offset="1" stop-color="#FF5E5E" stop-opacity="0"/>
</radialGradient>
<radialGradient id="paint16_radial_2544_1304" cx="0" cy="0" r="1" gradientUnits="userSpaceOnUse" gradientTransform="translate(56.79 1.54277) rotate(90) scale(1.54277 1.54491)">
<stop offset="0.015625" stop-color="white"/>
<stop offset="1" stop-color="#FF5E5E" stop-opacity="0"/>
</radialGradient>
<radialGradient id="paint17_radial_2544_1304" cx="0" cy="0" r="1" gradientUnits="userSpaceOnUse" gradientTransform="translate(55.863 32.3981) rotate(90) scale(1.54277 1.54491)">
<stop offset="0.015625" stop-color="white"/>
<stop offset="1" stop-color="#FF5E5E" stop-opacity="0"/>
</radialGradient>
<radialGradient id="paint18_radial_2544_1304" cx="0" cy="0" r="1" gradientUnits="userSpaceOnUse" gradientTransform="translate(164.934 3.08549) rotate(90) scale(1.54277 1.54491)">
<stop offset="0.015625" stop-color="white"/>
<stop offset="1" stop-color="#FF5E5E" stop-opacity="0"/>
</radialGradient>
<radialGradient id="paint19_radial_2544_1304" cx="0" cy="0" r="1" gradientUnits="userSpaceOnUse" gradientTransform="translate(186.562 1.54277) rotate(90) scale(1.54277 1.54491)">
<stop offset="0.015625" stop-color="white"/>
<stop offset="1" stop-color="#FF5E5E" stop-opacity="0"/>
</radialGradient>
<radialGradient id="paint20_radial_2544_1304" cx="0" cy="0" r="1" gradientUnits="userSpaceOnUse" gradientTransform="translate(282.656 7.40532) rotate(90) scale(1.54277 1.54491)">
<stop offset="0.145833" stop-color="white"/>
<stop offset="1" stop-color="#FF5E5E" stop-opacity="0"/>
</radialGradient>
<radialGradient id="paint21_radial_2544_1304" cx="0" cy="0" r="1" gradientUnits="userSpaceOnUse" gradientTransform="translate(228.584 13.8849) rotate(90) scale(1.54277 1.54491)">
<stop offset="0.145833" stop-color="white"/>
<stop offset="1" stop-color="#FF5E5E" stop-opacity="0"/>
</radialGradient>
<radialGradient id="paint22_radial_2544_1304" cx="0" cy="0" r="1" gradientUnits="userSpaceOnUse" gradientTransform="translate(123.817 39.8737) rotate(90) scale(1.54277 1.54491)">
<stop offset="0.145833" stop-color="white"/>
<stop offset="1" stop-color="#FF5E5E" stop-opacity="0"/>
</radialGradient>
<radialGradient id="paint23_radial_2544_1304" cx="0" cy="0" r="1" gradientUnits="userSpaceOnUse" gradientTransform="translate(325.274 37.4053) rotate(90) scale(1.54277 1.54491)">
<stop offset="0.145833" stop-color="white"/>
<stop offset="1" stop-color="#FF5E5E" stop-opacity="0"/>
</radialGradient>
<radialGradient id="paint24_radial_2544_1304" cx="0" cy="0" r="1" gradientUnits="userSpaceOnUse" gradientTransform="translate(194.82 43.5428) rotate(90) scale(1.54277 1.54491)">
<stop offset="0.015625" stop-color="white"/>
<stop offset="1" stop-color="#FF5E5E" stop-opacity="0"/>
</radialGradient>
<radialGradient id="paint25_radial_2544_1304" cx="0" cy="0" r="1" gradientUnits="userSpaceOnUse" gradientTransform="translate(257.82 45.5428) rotate(90) scale(1.54277 1.54491)">
<stop offset="0.015625" stop-color="white"/>
<stop offset="1" stop-color="#FF5E5E" stop-opacity="0"/>
</radialGradient>
<radialGradient id="paint26_radial_2544_1304" cx="0" cy="0" r="1" gradientUnits="userSpaceOnUse" gradientTransform="translate(47.8078 46.0448) rotate(90) scale(1.54277 1.54491)">
<stop offset="0.015625" stop-color="white"/>
<stop offset="1" stop-color="#FF5E5E" stop-opacity="0"/>
</radialGradient>
<radialGradient id="paint27_radial_2544_1304" cx="0" cy="0" r="1" gradientUnits="userSpaceOnUse" gradientTransform="translate(13.8198 31.5428) rotate(90) scale(1.54277 1.54491)">
<stop offset="0.015625" stop-color="white"/>
<stop offset="1" stop-color="#FF5E5E" stop-opacity="0"/>
</radialGradient>
<radialGradient id="paint28_radial_2544_1304" cx="0" cy="0" r="1" gradientUnits="userSpaceOnUse" gradientTransform="translate(80.251 38.0224) rotate(90) scale(1.54277 1.54491)">
<stop offset="0.015625" stop-color="white"/>
<stop offset="1" stop-color="#FF5E5E" stop-opacity="0"/>
</radialGradient>
<radialGradient id="paint29_radial_2544_1304" cx="0" cy="0" r="1" gradientUnits="userSpaceOnUse" gradientTransform="translate(167.82 32.5428) rotate(90) scale(1.54277 1.54491)">
<stop offset="0.015625" stop-color="white"/>
<stop offset="1" stop-color="#FF5E5E" stop-opacity="0"/>
</radialGradient>
<radialGradient id="paint30_radial_2544_1304" cx="0" cy="0" r="1" gradientUnits="userSpaceOnUse" gradientTransform="translate(209.82 37.5428) rotate(90) scale(1.54277 1.54491)">
<stop offset="0.015625" stop-color="white"/>
<stop offset="1" stop-color="#FF5E5E" stop-opacity="0"/>
</radialGradient>
<clipPath id="clip0_2544_1304">
<rect width="360" height="165" fill="white"/>
</clipPath>
</defs>
</svg>
