<svg width="16" height="16" viewBox="0 0 16 16" fill="none" xmlns="http://www.w3.org/2000/svg">
<path d="M3.63196 5.37981C3.77505 8.41087 7.98585 12.6223 11.0172 12.7651C11.702 12.7975 12.3356 12.5589 12.7817 12.1009L13.1154 11.7099C13.5991 11.2471 13.5609 10.4258 13.0298 9.87284C13.0143 9.85728 12.0341 9.08456 12.0341 9.08456C11.4894 8.58444 10.703 8.54838 10.2438 9.00246L9.60827 9.52629C9.01788 9.2482 8.47183 8.86481 8.00015 8.39725C7.53614 7.92137 7.15382 7.3745 6.87277 6.78463L7.39423 6.15286C7.84832 5.69363 7.81227 4.90729 7.31213 4.36256C7.31213 4.36256 6.53941 3.3824 6.52385 3.36684C5.98279 2.84095 5.17512 2.79282 4.70938 3.25873L4.27493 3.63733C3.82971 4.08119 3.59961 4.70581 3.63326 5.37925L3.63196 5.37981Z" fill="#8FA3B7"/>
</svg>
