<svg width="15" height="15" viewBox="0 0 15 15" fill="none" xmlns="http://www.w3.org/2000/svg">
<path d="M4.17476 2.07524L4.55806 1.69194C4.80214 1.44786 5.19786 1.44786 5.44194 1.69194L7.05806 3.30806C7.30214 3.55214 7.30214 3.94786 7.05806 4.19194L5.9378 5.3122C5.751 5.499 5.70469 5.78438 5.82283 6.02067C6.50581 7.38661 7.61339 8.49419 8.97933 9.17717C9.21562 9.29531 9.501 9.249 9.6878 9.0622L10.8081 7.94194C11.0521 7.69786 11.4479 7.69786 11.6919 7.94194L13.3081 9.55806C13.5521 9.80214 13.5521 10.1979 13.3081 10.4419L12.9248 10.8252C11.6052 12.1448 9.51607 12.2933 8.02311 11.1736L7.26786 10.6071C6.17815 9.78986 5.21014 8.82185 4.39286 7.73214L3.82641 6.97689C2.7067 5.48393 2.85517 3.39483 4.17476 2.07524Z" fill="#989898"/>
</svg>
