<svg width="16" height="16" viewBox="0 0 16 16" fill="none" xmlns="http://www.w3.org/2000/svg">
<path d="M5 2C3.34315 2 2 3.34315 2 5V11C2 12.6569 3.34315 14 5 14H11C12.6569 14 14 12.6569 14 11V5C14 3.34315 12.6569 2 11 2H5ZM10.8457 3.0127C12.0558 3.13576 13 4.15787 13 5.40039V10.5996C13 11.8421 12.0558 12.8642 10.8457 12.9873L10.5996 13H5.40039C4.07491 13 3 11.9251 3 10.5996V5.40039C3 4.07491 4.07491 3 5.40039 3H10.5996L10.8457 3.0127ZM5.40039 4C4.62719 4 4 4.62719 4 5.40039V10.5996C4 11.3728 4.62719 12 5.40039 12H10.5996C11.3728 12 12 11.3728 12 10.5996V5.40039C12 4.62719 11.3728 4 10.5996 4H5.40039ZM8 5.5C9.38071 5.5 10.5 6.61929 10.5 8C10.5 9.38071 9.38071 10.5 8 10.5C6.61929 10.5 5.5 9.38071 5.5 8C5.5 6.61929 6.61929 5.5 8 5.5ZM8 6.5C7.17157 6.5 6.5 7.17157 6.5 8C6.5 8.82843 7.17157 9.5 8 9.5C8.82843 9.5 9.5 8.82843 9.5 8C9.5 7.17157 8.82843 6.5 8 6.5ZM5.5 5C5.77614 5 6 5.22386 6 5.5C6 5.77614 5.77614 6 5.5 6C5.22386 6 5 5.77614 5 5.5C5 5.22386 5.22386 5 5.5 5Z" fill="#8FA3B7"/>
</svg>
