<svg width="320" height="70" viewBox="0 0 320 70" fill="none" xmlns="http://www.w3.org/2000/svg">
<rect width="320" height="70" rx="10" fill="url(#paint0_linear_2447_938)"/>
<path d="M30.1616 21.8715V25.7535H31.8874V27.0055H30.1616V31.105H28.634V21.8715H30.1616ZM20.4206 24.4482V23.2396H23.3356V21.8619H24.8488V23.2396H27.7541V24.4482H20.4206ZM21.0587 27.3294C21.0539 25.9081 22.2914 24.9655 24.0946 24.9655C25.8688 24.9655 27.1015 25.9081 27.1064 27.3294C27.1015 28.7362 25.8688 29.6644 24.0946 29.6595C22.2914 29.6644 21.0539 28.7362 21.0587 27.3294ZM22.2431 33.9765V30.3798H23.7562V32.7438H30.645V33.9765H22.2431ZM22.5331 27.3294C22.5235 28.0691 23.1519 28.4993 24.0946 28.4945C25.0276 28.4993 25.6561 28.0691 25.6657 27.3294C25.6561 26.5753 25.0276 26.1354 24.0946 26.1354C23.1519 26.1354 22.5235 26.5753 22.5331 27.3294ZM36.9435 25.3667C36.9339 27.2811 38.0796 29.4517 40.0278 30.3605L39.177 31.5594C37.7847 30.9116 36.755 29.5822 36.1991 28.0352C35.6383 29.732 34.5602 31.1823 33.1438 31.8688L32.2495 30.6699C34.217 29.7417 35.4159 27.4261 35.4207 25.3667V24.3273H32.7281V23.0801H39.525V24.3273H36.9435V25.3667ZM40.6659 34.2086V21.8619H42.1887V26.6671H44.0934V27.9434H42.1887V34.2086H40.6659ZM54.9071 21.8619V34.2376H53.394V21.8619H54.9071ZM45.2821 24.1678V22.9351H51.1025V27.5711H46.8581V30.0559C48.8014 30.0463 50.4789 29.9496 52.4078 29.6257L52.5431 30.8681C50.4402 31.2307 48.5936 31.308 46.3746 31.308H45.2918V26.3626H49.5556V24.1678H45.2821ZM59.122 32.0138L57.9811 35.8474H56.6807L57.3817 32.0138H59.122ZM66.9883 22.7562C68.661 22.761 69.8986 24.1533 70.1161 26.4061H72.4656V21.8619H73.9738V34.2376H72.4656V27.634H70.1306C69.9711 30.0221 68.7093 31.5014 66.9883 31.4965C65.132 31.5014 63.8122 29.8094 63.8219 27.1215C63.8122 24.453 65.132 22.761 66.9883 22.7562ZM65.277 27.1215C65.2722 29.0214 65.9732 30.1236 66.9883 30.1236C68.0132 30.1236 68.7045 29.0214 68.7093 27.1215C68.7045 25.2362 68.0132 24.1291 66.9883 24.1291C65.9732 24.1291 65.2722 25.2362 65.277 27.1215ZM79.1701 23.0318V24.2597H77.5265V29.8432C78.0824 29.8239 78.5997 29.7707 79.175 29.645L79.3345 30.8923C78.4063 31.0905 77.628 31.105 76.608 31.105H76.0327V23.0318H79.1701ZM79.7938 31.105V23.0318H83.1729V24.2597H81.3165V29.8481C82.1964 29.8336 82.8587 29.7852 83.6031 29.6112L83.7288 30.8343C82.7136 31.0856 81.8725 31.105 80.4657 31.105H79.7938ZM82.6363 27.4744V26.2514H84.6909V21.8619H86.2088V34.2086H84.6909V27.4744H82.6363ZM98.1634 21.8619V29.0166H96.6454V26.759H94.4604V25.5456H96.6454V24.4095H94.4604V23.1865H96.6454V21.8619H98.1634ZM87.7601 27.7742C89.7615 27.0442 90.7622 25.3377 90.7718 23.5104V22.3115H92.2994V23.5104C92.2898 25.2072 93.2615 26.904 95.1807 27.6001L94.3105 28.799C93.0004 28.2914 92.0674 27.3004 91.5405 26.0628C91.0039 27.3826 90.0177 28.4365 88.6109 28.9779L87.7601 27.7742ZM88.4804 32.9227C90.0854 32.3715 90.854 31.0905 90.8588 29.8722V29.4565H92.3333V29.8722C92.3236 30.9164 92.7925 31.9945 93.8657 32.6906C94.9389 31.9461 95.4127 30.8052 95.4224 29.8722V29.4565H96.9162V29.8722C96.9162 31.1581 97.6703 32.4006 99.3284 32.9227L98.5501 34.049C97.3561 33.6285 96.5681 32.8308 96.1427 31.8398C95.7366 32.8163 95.0066 33.6913 93.8706 34.1506C92.7152 33.7203 91.9804 32.8743 91.584 31.8785C91.1441 32.8308 90.3657 33.6236 89.22 34.049L88.4804 32.9227ZM111.423 26.6285V27.8757H109.591V34.1892H108.068V21.8619H109.591V26.6285H111.423ZM100.343 31.134V23.0559H101.856V29.8771C103.505 29.8577 105.255 29.7079 107.121 29.326L107.285 30.6022C105.197 31.0228 103.224 31.1388 101.382 31.134H100.343ZM123.31 31.4675V32.7148H112.012V31.4675H114.623V28.3398C113.637 27.7742 113.042 26.8895 113.047 25.7921C113.042 23.8246 114.971 22.5242 117.635 22.5193C120.298 22.5242 122.242 23.8246 122.242 25.7921C122.242 26.8702 121.662 27.7403 120.704 28.3108V31.4675H123.31ZM114.536 25.7921C114.536 27.0587 115.783 27.866 117.635 27.866C119.472 27.866 120.748 27.0587 120.748 25.7921C120.748 24.5062 119.472 23.7279 117.635 23.7327C115.783 23.7279 114.536 24.5062 114.536 25.7921ZM116.126 31.4675H119.167V28.8957C118.693 28.9972 118.181 29.0504 117.635 29.0504C117.098 29.0504 116.595 28.9972 116.126 28.8957V31.4675ZM126.205 29.9689C126.215 28.2238 126.708 27.692 127.564 27.1554C128.154 26.788 128.598 26.3287 128.598 25.6471C128.598 24.8785 128.004 24.3902 127.259 24.3902C126.578 24.3902 125.92 24.8253 125.872 25.7341H124.16C124.214 23.9019 125.582 22.9641 127.269 22.9641C129.111 22.9641 130.382 23.9938 130.382 25.6181C130.382 26.73 129.826 27.4551 128.942 27.9869C128.149 28.4655 127.82 28.9392 127.805 29.9689V30.0946H126.205V29.9689ZM125.988 32.0477C125.978 31.4675 126.462 30.9986 127.046 30.9986C127.617 30.9986 128.1 31.4675 128.105 32.0477C128.1 32.6326 127.617 33.1064 127.046 33.1064C126.462 33.1064 125.978 32.6326 125.988 32.0477Z" fill="white"/>
<path d="M142.5 22L142.812 23.8917C143.09 25.5836 144.416 26.9097 146.108 27.1884L148 27.5L146.108 27.8116C144.416 28.0903 143.09 29.4164 142.812 31.1083L142.5 33L142.188 31.1083C141.91 29.4164 140.584 28.0903 138.892 27.8116L137 27.5L138.892 27.1884C140.584 26.9097 141.91 25.5836 142.188 23.8917L142.5 22Z" fill="white"/>
<path d="M27.5725 41.0787V49.846H26.6402V41.0787H27.5725ZM20.625 44.8046C20.625 42.9296 21.5677 41.7383 22.8867 41.7348C24.192 41.7383 25.145 42.9296 25.145 44.8046C25.145 46.6899 24.192 47.8812 22.8867 47.8812C21.5677 47.8812 20.625 46.6899 20.625 44.8046ZM21.5193 44.8046C21.5193 46.1927 22.0787 47.049 22.8867 47.049C23.6948 47.049 24.2472 46.1927 24.2472 44.8046C24.2472 43.4268 23.6948 42.5704 22.8867 42.5635C22.0787 42.5704 21.5193 43.4268 21.5193 44.8046ZM36.9437 45.3467V46.0994H28.9672V45.3467H30.8801V44.1727C30.2034 43.8999 29.8201 43.4579 29.8201 42.8778C29.8201 41.8384 31.0252 41.2341 32.9485 41.2307C34.865 41.2341 36.0701 41.8384 36.0701 42.8778C36.0701 43.4579 35.6868 43.8999 35.01 44.1761V45.3467H36.9437ZM29.9098 48.2507C29.9098 47.2493 31.0459 46.6934 32.9451 46.7003C34.8304 46.6934 35.963 47.2493 35.9699 48.2507C35.963 49.259 34.8304 49.8115 32.9451 49.8115C31.0459 49.8115 29.9098 49.259 29.9098 48.2507ZM30.7835 42.8778C30.7766 43.4648 31.588 43.7894 32.9485 43.7894C34.3021 43.7894 35.1205 43.4648 35.1205 42.8778C35.1205 42.2907 34.3021 41.9523 32.9485 41.9523C31.588 41.9523 30.7766 42.2907 30.7835 42.8778ZM30.8525 48.2507C30.8456 48.7963 31.6087 49.107 32.9451 49.1001C34.2676 49.107 35.0376 48.7963 35.0445 48.2507C35.0376 47.7086 34.2676 47.4116 32.9451 47.4047C31.6087 47.4116 30.8456 47.7086 30.8525 48.2507ZM31.8125 45.3467H34.088V44.4178C33.7462 44.4731 33.3629 44.5007 32.9485 44.5007C32.5342 44.5007 32.1543 44.4731 31.8125 44.4213V45.3467ZM47.344 41.0856V46.2721H46.4186V45.1982H44.2121V44.4385H46.4186V43.375H44.3018C43.7355 44.7804 42.4234 45.7749 40.5277 46.3204L40.1547 45.5884C42.2335 44.9979 43.4386 43.8826 43.6009 42.4738H40.6071V41.7141H44.6092C44.6092 42.0387 44.5781 42.346 44.5194 42.6395H46.4186V41.0856H47.344ZM41.5118 48.0711C41.5118 47.011 42.6686 46.3653 44.4641 46.3653C46.2355 46.3653 47.3958 47.011 47.3992 48.0711C47.3958 49.1347 46.2355 49.7873 44.4641 49.7873C42.6686 49.7873 41.5118 49.1347 41.5118 48.0711ZM42.4337 48.0711C42.4337 48.6892 43.2141 49.0449 44.4641 49.0449C45.69 49.0449 46.4703 48.6892 46.4738 48.0711C46.4703 47.4496 45.69 47.0939 44.4641 47.0974C43.2141 47.0939 42.4337 47.4496 42.4337 48.0711ZM55.9865 41.0787V46.3791H55.0611V44.4731H53.6937V43.7065H55.0611V41.0787H55.9865ZM48.7041 42.6948V41.9454H50.8139V40.9993H51.7255V41.9454H53.8284V42.6948H48.7041ZM49.2117 44.6561C49.2117 43.7376 50.0646 43.0919 51.2697 43.0919C52.4714 43.0919 53.3173 43.7376 53.3243 44.6561C53.3173 45.5988 52.4714 46.2203 51.2697 46.2238C50.0646 46.2203 49.2117 45.5988 49.2117 44.6561ZM50.1026 44.6561C50.0957 45.1878 50.5687 45.5193 51.2697 45.5228C51.9568 45.5193 52.4334 45.1878 52.4334 44.6561C52.4334 44.1416 51.9568 43.7997 51.2697 43.7997C50.5687 43.7997 50.0957 44.1416 50.1026 44.6561ZM50.2096 49.7182V46.8108H55.9865V49.7182H50.2096ZM51.1385 48.9655H55.0784V47.5497H51.1385V48.9655ZM61.3177 41.2238C63.2893 41.2238 64.4392 41.7555 64.4392 42.7258C64.4392 43.7099 63.2893 44.2417 61.3177 44.2486C59.346 44.2417 58.1892 43.7099 58.1892 42.7258C58.1892 41.7555 59.346 41.2238 61.3177 41.2238ZM57.3363 45.5228V44.7804H65.3128V45.5228H57.3363ZM58.2859 46.8902V46.1961H64.3011V48.2438H59.2113V49.0276H64.5532V49.7459H58.3032V47.5773H63.3895V46.8902H58.2859ZM59.1595 42.7258C59.1526 43.2714 59.9261 43.5511 61.3177 43.5511C62.7196 43.5511 63.4896 43.2714 63.4896 42.7258C63.4896 42.2148 62.7196 41.9109 61.3177 41.9144C59.9261 41.9109 59.1526 42.2148 59.1595 42.7258ZM72.3671 46.5794C74.2594 46.5794 75.4541 47.1768 75.461 48.2023C75.4541 49.2175 74.2594 49.8149 72.3671 49.8149C70.4887 49.8149 69.287 49.2175 69.287 48.2023C69.287 47.1768 70.4887 46.5794 72.3671 46.5794ZM68.4306 45.8543V45.1015H71.6213V43.4613H72.5329V45.1015H76.3864V45.8543H68.4306ZM69.3595 42.2528V41.5069H75.3954V42.2424C75.3954 42.9399 75.3954 43.6651 75.1503 44.5663L74.2387 44.4731C74.4735 43.5718 74.4735 42.933 74.4735 42.2528H69.3595ZM70.2124 48.2023C70.2055 48.7652 71.0411 49.0932 72.3671 49.0932C73.7 49.0932 74.5322 48.7652 74.5391 48.2023C74.5322 47.6257 73.7 47.2838 72.3671 47.2804C71.0411 47.2838 70.2055 47.6257 70.2124 48.2023ZM85.0567 46.0235V46.7831H83.0297V49.8287H82.0905V46.7831H79.9979V49.8287H79.0449V46.7831H77.0491V46.0235H85.0567ZM77.9227 43.3439C77.9227 42.163 79.183 41.4137 81.0339 41.4068C82.8847 41.4137 84.1554 42.163 84.1554 43.3439C84.1554 44.511 82.8847 45.25 81.0339 45.2431C79.183 45.25 77.9227 44.511 77.9227 43.3439ZM78.8757 43.3439C78.8688 44.0622 79.7355 44.5041 81.0339 44.5076C82.3357 44.5041 83.1989 44.0622 83.1989 43.3439C83.1989 42.6084 82.3357 42.1595 81.0339 42.1595C79.7355 42.1595 78.8688 42.6084 78.8757 43.3439ZM90.0252 42.529V43.2783H85.6847V42.529H87.4043V41.3377H88.3228V42.529H90.0252ZM85.9679 45.8163C85.961 44.6388 86.7621 43.8032 87.8636 43.8032C88.9686 43.8032 89.7593 44.6388 89.7662 45.8163C89.7593 47.011 88.9686 47.8501 87.8636 47.8501C86.7621 47.8501 85.961 47.011 85.9679 45.8163ZM86.7828 45.8163C86.7828 46.5587 87.2317 47.0594 87.8636 47.0525C88.492 47.0594 88.9444 46.5587 88.9444 45.8163C88.9444 45.0877 88.492 44.5801 87.8636 44.5767C87.2317 44.5801 86.7828 45.0877 86.7828 45.8163ZM90.4327 49.4178V41.2756H91.3063V44.7251H92.3146V41.0787H93.1985V49.8287H92.3146V45.4814H91.3063V49.4178H90.4327ZM104.766 46.0097V46.7659H101.213V49.8253H100.301V46.7659H96.7894V46.0097H104.766ZM97.2349 44.6146C98.8682 44.3936 100.222 43.4164 100.253 42.3391H97.5284V41.6001H104.017V42.3391H101.303C101.323 43.4164 102.673 44.3936 104.324 44.6146L103.982 45.3467C102.549 45.1222 101.309 44.4144 100.774 43.4164C100.239 44.4144 98.9994 45.1222 97.5836 45.3467L97.2349 44.6146ZM108.643 43.3059C108.636 44.9047 109.6 46.5138 110.957 47.1112L110.397 47.8501C109.393 47.3702 108.598 46.386 108.188 45.1878C107.784 46.4689 106.979 47.529 105.933 48.0366L105.359 47.2631C106.737 46.6485 107.704 44.9772 107.711 43.3059V41.8073H108.643V43.3059ZM111.748 49.846V41.0787H112.68V49.846H111.748ZM118.532 41.8246V42.567H120.442V41.0856H121.367V47.4634H120.442V45.1982H118.532V45.9682H114.468V41.8246H118.532ZM115.387 45.2327H117.624V42.5739H115.387V45.2327ZM115.653 49.6492V46.8833H116.588V48.8895H121.564V49.6492H115.653ZM118.532 44.4454H120.442V43.3301H118.532V44.4454ZM132.652 41.0787V49.8287H131.754V45.2914H130.677V49.4075H129.81V41.3135H130.677V44.5352H131.754V41.0787H132.652ZM125.124 47.3253C127.075 46.2203 127.89 44.732 128.031 42.9503H125.497V42.1941H128.936C128.929 44.4938 128.166 46.5622 125.663 47.9779L125.124 47.3253ZM135.051 41.4551V42.6395H137.344V41.4551H138.262V45.2673H134.136V41.4551H135.051ZM135.017 46.6934V45.9613H140.676V48.1678H135.949V49H140.973V49.7459H135.037V47.4807H139.754V46.6934H135.017ZM135.051 44.5283H137.344V43.3543H135.051V44.5283ZM139.747 45.5815V41.0787H140.676V42.9123H141.943V43.672H140.676V45.5815H139.747ZM149.968 41.0787V49.8287H149.077V41.0787H149.968ZM142.54 44.8564C142.54 42.9641 143.283 41.7797 144.422 41.7797C145.486 41.7797 146.208 42.788 146.318 44.4316H147.306V41.2479H148.19V49.3971H147.306V45.1844H146.321C146.235 46.8936 145.507 47.9503 144.422 47.9468C143.283 47.9503 142.54 46.759 142.54 44.8564ZM143.404 44.8564C143.397 46.2514 143.794 47.0698 144.422 47.0628C145.068 47.0698 145.469 46.2514 145.469 44.8564C145.469 43.4648 145.068 42.6499 144.422 42.6499C143.794 42.6499 143.397 43.4648 143.404 44.8564ZM160.613 45.1188V45.8612H157.968V47.9917H161.535V48.7583H153.528V47.9917H157.05V45.8612H154.522V41.759H160.537V42.5083H155.448V45.1188H160.613ZM166.152 41.2307C168.072 41.2307 169.273 41.8453 169.273 42.895C169.273 43.924 168.072 44.5387 166.152 44.5318C164.239 44.5387 163.023 43.924 163.023 42.895C163.023 41.8453 164.239 41.2307 166.152 41.2307ZM162.17 45.8888V45.1326H170.147V45.8888H166.611V46.8073H169.173V49.7182H163.127V46.8073H165.696V45.8888H162.17ZM163.987 42.895C163.98 43.482 164.805 43.817 166.152 43.817C167.491 43.817 168.324 43.482 168.324 42.895C168.324 42.2907 167.491 41.9454 166.152 41.9489C164.805 41.9454 163.98 42.2907 163.987 42.895ZM164.042 48.9655H168.272V47.5463H164.042V48.9655ZM178.061 41.0787V49.846H177.128V41.0787H178.061ZM171.113 44.8046C171.113 42.9296 172.056 41.7383 173.375 41.7348C174.68 41.7383 175.633 42.9296 175.633 44.8046C175.633 46.6899 174.68 47.8812 173.375 47.8812C172.056 47.8812 171.113 46.6899 171.113 44.8046ZM172.008 44.8046C172.008 46.1927 172.567 47.049 173.375 47.049C174.183 47.049 174.736 46.1927 174.736 44.8046C174.736 43.4268 174.183 42.5704 173.375 42.5635C172.567 42.5704 172.008 43.4268 172.008 44.8046ZM189.165 41.0856V46.1236H188.23V41.0856H189.165ZM181.918 45.2051C182.643 45.2051 183.478 45.1982 184.352 45.1706V44.3108H182.695V41.5035H186.88V42.2597H183.627V43.5787H186.952V44.3108H185.277V45.1326C186.054 45.0946 186.835 45.0325 187.567 44.9358L187.615 45.5884C185.719 45.9164 183.62 45.9441 182.049 45.9544L181.918 45.2051ZM183.33 49.7182V46.5069H184.252V47.3494H188.254V46.5069H189.165V49.7182H183.33ZM184.252 48.9655H188.254V48.0608H184.252V48.9655ZM197.798 41.0787V49.8287H196.879V41.0787H197.798ZM191.075 47.605V41.9316H191.986V46.8073C193.267 46.797 194.611 46.6899 196.019 46.3999L196.14 47.1802C194.593 47.5014 193.188 47.6084 191.807 47.605H191.075ZM205.998 41.0787V44.4662H207.4V45.2362H205.998V49.846H205.069V41.0787H205.998ZM199.551 47.674V41.9213H203.643V42.674H200.477V46.9006C201.944 46.8936 203.046 46.8315 204.299 46.6036L204.41 47.3943C203.043 47.6326 201.879 47.6775 200.256 47.674H199.551ZM208.819 49.0656C208.436 49.0656 208.118 48.7548 208.125 48.375C208.118 47.9952 208.436 47.6844 208.819 47.6844C209.192 47.6844 209.51 47.9952 209.51 48.375C209.51 48.7548 209.192 49.0656 208.819 49.0656Z" fill="white"/>
<defs>
<linearGradient id="paint0_linear_2447_938" x1="156.5" y1="-16" x2="156.5" y2="191.5" gradientUnits="userSpaceOnUse">
<stop stop-color="#0F2641"/>
<stop offset="1" stop-color="#2762A7"/>
</linearGradient>
</defs>
</svg>
