<svg width="320" height="69" viewBox="0 0 320 69" fill="none" xmlns="http://www.w3.org/2000/svg">
<rect width="320" height="69" rx="12" fill="#0E4C95"/>
<path d="M30.1582 19.8711V23.7539H31.8809V25.0117H30.1582V29.0996H28.6406V19.8711H30.1582ZM27.752 21.2383V22.4551H20.4238V21.2383H23.3359V19.8574H24.8535V21.2383H27.752ZM24.0879 22.9609C25.8652 22.9609 27.0957 23.9043 27.1094 25.3262C27.0957 26.7344 25.8652 27.6641 24.0879 27.6641C22.2969 27.6641 21.0527 26.7344 21.0527 25.3262C21.0527 23.9043 22.2969 22.9609 24.0879 22.9609ZM24.0879 24.1367C23.1445 24.1367 22.5293 24.5742 22.5293 25.3262C22.5293 26.0645 23.1445 26.502 24.0879 26.4883C25.0312 26.502 25.6602 26.0645 25.6602 25.3262C25.6602 24.5742 25.0312 24.1367 24.0879 24.1367ZM30.6504 30.7402V31.9707H22.2422V28.375H23.7598V30.7402H30.6504ZM36.6595 23.3711C36.6595 25.2852 37.7942 27.459 39.7493 28.3613L38.9016 29.5645C37.5071 28.9082 36.4749 27.582 35.9212 26.0371C35.3606 27.7324 34.2805 29.1816 32.8587 29.8652L31.97 28.6758C33.9388 27.7461 35.1282 25.4219 35.1419 23.3711V22.332H32.4485V21.0742H39.2434V22.332H36.6595V23.3711ZM41.9095 19.8574V24.6699H43.8098V25.9414H41.9095V32.2168H40.3919V19.8574H41.9095ZM54.3443 19.8574V32.2305H52.8404V19.8574H54.3443ZM50.5435 20.9375V25.5723H46.2916V28.0605C48.2398 28.0469 49.9214 27.9512 51.8423 27.623L51.9791 28.8672C49.8736 29.2363 48.0279 29.3047 45.813 29.3047H44.733V24.3691H48.9986V22.168H44.7193V20.9375H50.5435ZM58.2752 30.0293L57.1268 33.8574H55.828L56.5389 30.0293H58.2752ZM65.5766 20.7598C67.2514 20.7598 68.4887 22.1543 68.7074 24.4102H71.059V19.8574H72.5629V32.2305H71.059V25.6406H68.7211C68.557 28.0264 67.2992 29.4961 65.5766 29.4961C63.7172 29.4961 62.4047 27.8145 62.4047 25.1211C62.4047 22.4551 63.7172 20.7598 65.5766 20.7598ZM65.5766 22.127C64.5512 22.127 63.8539 23.2344 63.8676 25.1211C63.8539 27.0215 64.5512 28.1289 65.5766 28.1289C66.602 28.1289 67.2855 27.0215 67.2992 25.1211C67.2855 23.2344 66.602 22.127 65.5766 22.127ZM77.4782 21.0332V22.2637H75.8376V27.8418C76.3913 27.8213 76.904 27.7734 77.4782 27.6367L77.6423 28.8945C76.7126 29.0859 75.9333 29.0996 74.9216 29.0996H74.3337V21.0332H77.4782ZM81.4841 21.0332V22.2637H79.6247V27.8418C80.4997 27.835 81.1628 27.7871 81.9079 27.6094L82.0309 28.8398C81.0192 29.0859 80.1852 29.0996 78.777 29.0996H78.1071V21.0332H81.4841ZM84.5192 19.8574V32.2168H83.0016V25.4766H80.9372V24.2461H83.0016V19.8574H84.5192ZM96.1884 19.8574V27.0215H94.6709V24.7656H92.4834V23.5488H94.6709V22.4141H92.4834V21.1836H94.6709V19.8574H96.1884ZM90.3232 21.5117C90.3232 23.207 91.2939 24.9023 93.208 25.5996L92.333 26.8027C91.0273 26.29 90.0908 25.2988 89.5713 24.0684C89.0312 25.3877 88.0468 26.4404 86.6455 26.9805L85.7841 25.7773C87.7802 25.0391 88.792 23.3438 88.792 21.5117V20.3086H90.3232V21.5117ZM90.3642 27.8691C90.3505 28.915 90.8291 29.9951 91.8955 30.6855C92.9619 29.9404 93.4404 28.7988 93.4541 27.8691V27.459H94.9443V27.8691C94.9443 29.1543 95.6963 30.3984 97.3505 30.918L96.5849 32.0527C95.3886 31.6289 94.5957 30.8359 94.1787 29.8379C93.7685 30.8223 93.0302 31.6973 91.8955 32.1484C90.7402 31.7109 90.0019 30.8633 89.6123 29.8652C89.1679 30.8291 88.3955 31.6221 87.247 32.0527L86.5088 30.918C88.1084 30.3711 88.874 29.0859 88.8877 27.8691V27.459H90.3642V27.8691ZM109.17 24.6289V25.873H107.338V32.1895H105.821V19.8574H107.338V24.6289H109.17ZM99.5998 21.0605V27.8828C101.247 27.8555 103.004 27.7119 104.864 27.3223L105.028 28.6074C102.949 29.0176 100.967 29.1406 99.135 29.1406H98.0959V21.0605H99.5998ZM120.771 29.4688V30.7129H109.478V29.4688H112.089V26.3379C111.105 25.7773 110.51 24.8955 110.517 23.7949C110.503 21.8262 112.445 20.5273 115.097 20.5273C117.763 20.5273 119.705 21.8262 119.705 23.7949C119.705 24.875 119.13 25.7432 118.173 26.3105V29.4688H120.771ZM115.097 21.7305C113.251 21.7305 111.994 22.5098 112.007 23.7949C111.994 25.0664 113.251 25.8594 115.097 25.8594C116.943 25.8594 118.214 25.0664 118.214 23.7949C118.214 22.5098 116.943 21.7305 115.097 21.7305ZM113.593 29.4688H116.628V26.8848C116.157 26.9941 115.644 27.0488 115.097 27.0488C114.564 27.0488 114.058 26.9941 113.593 26.8984V29.4688ZM123.389 27.9648C123.403 26.2285 123.895 25.6953 124.757 25.1621C125.345 24.793 125.782 24.3281 125.782 23.6445C125.782 22.8789 125.194 22.3867 124.442 22.3867C123.759 22.3867 123.102 22.8242 123.061 23.7402H121.352C121.393 21.9082 122.774 20.9648 124.456 20.9648C126.302 20.9648 127.573 21.9902 127.573 23.6172C127.573 24.7246 127.012 25.4492 126.124 25.9824C125.331 26.4609 125.003 26.9395 124.989 27.9648V28.0879H123.389V27.9648ZM124.237 31.1094C123.649 31.1094 123.171 30.6309 123.171 30.043C123.171 29.4688 123.649 28.9902 124.237 28.9902C124.798 28.9902 125.29 29.4688 125.29 30.043C125.29 30.6309 124.798 31.1094 124.237 31.1094Z" fill="#DAE9FC"/>
<path d="M29.0117 39.5312V49.9727H28.0859V39.5312H29.0117ZM23.4688 40.3398C25.0156 40.3516 26.1289 41.7578 26.1289 43.9727C26.1289 46.1875 25.0156 47.5938 23.4688 47.5938C21.9102 47.5938 20.8086 46.1875 20.8086 43.9727C20.8086 41.7578 21.9102 40.3516 23.4688 40.3398ZM23.4688 41.1602C22.4258 41.1719 21.6992 42.2734 21.6992 43.9727C21.6992 45.6719 22.4258 46.7734 23.4688 46.7734C24.5117 46.7734 25.2383 45.6719 25.2383 43.9727C25.2383 42.2734 24.5117 41.1719 23.4688 41.1602ZM40.1652 44.6875V45.4492H30.673V44.6875H33.0284V43.2227C32.1964 42.9004 31.7277 42.3672 31.7277 41.6641C31.7277 40.4336 33.1339 39.7305 35.4191 39.7305C37.6808 39.7305 39.0988 40.4336 39.0988 41.6641C39.0988 42.3613 38.6359 42.8945 37.8097 43.2109V44.6875H40.1652ZM35.4191 46.2461C37.6573 46.2461 38.9933 46.8906 39.005 48.0859C38.9933 49.2695 37.6573 49.9258 35.4191 49.9258C33.1573 49.9258 31.8214 49.2695 31.8214 48.0859C31.8214 46.8906 33.1573 46.2461 35.4191 46.2461ZM35.4191 46.9492C33.7433 46.9609 32.7472 47.3711 32.7589 48.0859C32.7472 48.7891 33.7433 49.2109 35.4191 49.2109C37.0714 49.2109 38.0792 48.7891 38.0792 48.0859C38.0792 47.3711 37.0714 46.9609 35.4191 46.9492ZM35.4191 40.457C33.7198 40.457 32.6652 40.9141 32.6769 41.6641C32.6652 42.4258 33.7198 42.8711 35.4191 42.8711C37.1066 42.8711 38.1613 42.4258 38.1613 41.6641C38.1613 40.9141 37.1066 40.457 35.4191 40.457ZM33.9425 44.6875H36.8956V43.4688C36.4562 43.5449 35.964 43.5859 35.4191 43.5859C34.8741 43.5859 34.382 43.5449 33.9425 43.4688V44.6875ZM52.4525 39.543V45.8008H51.5267V44.3945H48.7611V43.6328H51.5267V42.2266H48.8666C48.181 43.9023 46.5697 45.1152 44.3431 45.7773L43.9564 45.0508C46.4759 44.3008 48.0404 42.8945 48.2337 41.0898H44.4837V40.3164H49.2298C49.2298 40.7266 49.183 41.1191 49.1009 41.4883H51.5267V39.543H52.4525ZM49.0423 45.9062C51.1517 45.9062 52.5111 46.6562 52.5111 47.8984C52.5111 49.1523 51.1517 49.9023 49.0423 49.9023C46.9095 49.9023 45.5619 49.1523 45.5619 47.8984C45.5619 46.6562 46.9095 45.9062 49.0423 45.9062ZM49.0423 46.6445C47.472 46.6328 46.4642 47.1133 46.4642 47.8984C46.4642 48.6836 47.472 49.1523 49.0423 49.1523C50.5892 49.1523 51.5853 48.6836 51.597 47.8984C51.5853 47.1133 50.5892 46.6328 49.0423 46.6445ZM62.7036 39.5312V45.8477H61.7778V43.4688H60.0083V42.707H61.7778V39.5312H62.7036ZM62.7036 46.4102V49.8086H55.895V46.4102H62.7036ZM56.8091 47.1484V49.0586H61.8013V47.1484H56.8091ZM60.1606 40.6328V41.3828H54.0786V40.6328H56.6684V39.4375H57.5708V40.6328H60.1606ZM57.1138 41.9219C58.5317 41.9219 59.5278 42.6836 59.5395 43.7734C59.5278 44.8984 58.5317 45.6367 57.1138 45.6367C55.6958 45.6367 54.6997 44.8984 54.6997 43.7734C54.6997 42.6836 55.6958 41.9219 57.1138 41.9219ZM57.1138 42.6367C56.2114 42.6367 55.5786 43.1055 55.5786 43.7734C55.5786 44.4648 56.2114 44.9219 57.1138 44.9336C58.0161 44.9219 58.6489 44.4648 58.6489 43.7734C58.6489 43.1055 58.0161 42.6367 57.1138 42.6367ZM69.0641 39.7188C71.3844 39.7188 72.7438 40.3516 72.7438 41.5117C72.7438 42.6953 71.3844 43.3281 69.0641 43.3398C66.7438 43.3281 65.3727 42.6953 65.3727 41.5117C65.3727 40.3516 66.7438 39.7188 69.0641 39.7188ZM69.0641 40.4102C67.3297 40.4102 66.3219 40.832 66.3336 41.5117C66.3219 42.2383 67.3297 42.6367 69.0641 42.6367C70.7867 42.6367 71.8063 42.2383 71.8063 41.5117C71.8063 40.832 70.7867 40.4102 69.0641 40.4102ZM73.8102 44.043V44.793H64.318V44.043H73.8102ZM72.5914 45.6953V48.0273H66.4039V49.1055H72.9078V49.832H65.4898V47.3477H71.6891V46.3984H65.4664V45.6953H72.5914ZM82.1717 46.1172C84.41 46.1172 85.828 46.8203 85.828 48.0273C85.828 49.2227 84.41 49.9258 82.1717 49.9258C79.9452 49.9258 78.5272 49.2227 78.5272 48.0273C78.5272 46.8203 79.9452 46.1172 82.1717 46.1172ZM82.1717 46.8203C80.5077 46.832 79.4295 47.2891 79.4412 48.0273C79.4295 48.7539 80.5077 49.1992 82.1717 49.1992C83.8358 49.1992 84.9022 48.7539 84.9139 48.0273C84.9022 47.2891 83.8358 46.832 82.1717 46.8203ZM85.7459 40.0703V40.9492C85.7459 41.793 85.7459 42.6367 85.453 43.7148L84.5506 43.6094C84.8319 42.5312 84.8319 41.7695 84.8319 40.9492V40.8203H78.5975V40.0703H85.7459ZM86.953 44.3945V45.1445H77.4725V44.3945H81.3983V42.3789H82.3006V44.3945H86.953ZM97.2392 45.4727V46.2344H94.7197V49.9492H93.7939V46.2344H91.122V49.9492H90.1728V46.2344H87.7002V45.4727H97.2392ZM92.4463 39.9531C94.6377 39.9531 96.1142 40.832 96.1142 42.2266C96.1142 43.6094 94.6377 44.4883 92.4463 44.4766C90.2548 44.4883 88.7783 43.6094 88.7783 42.2266C88.7783 40.832 90.2548 39.9531 92.4463 39.9531ZM92.4463 40.7031C90.8173 40.7031 89.7158 41.3008 89.7275 42.2266C89.7158 43.1523 90.8173 43.7383 92.4463 43.7383C94.0634 43.7383 95.1767 43.1523 95.1767 42.2266C95.1767 41.3008 94.0634 40.7031 92.4463 40.7031ZM103.166 41.3359V42.0859H97.9395V41.3359H100.107V39.8477H101.022V41.3359H103.166ZM100.553 42.7891C101.865 42.7891 102.803 43.7734 102.815 45.1562C102.803 46.5508 101.865 47.5469 100.553 47.5469C99.252 47.5469 98.3145 46.5508 98.3145 45.1562C98.3145 43.7734 99.252 42.7891 100.553 42.7891ZM100.553 43.5625C99.7325 43.5742 99.1348 44.2422 99.1348 45.1562C99.1348 46.082 99.7325 46.75 100.553 46.7383C101.385 46.75 101.994 46.082 101.994 45.1562C101.994 44.2422 101.385 43.5742 100.553 43.5625ZM106.834 39.5312V49.9492H105.955V44.6875H104.572V49.4336H103.705V39.7891H104.572V43.9258H105.955V39.5312H106.834ZM113.476 41.0078C113.464 42.4023 115.327 43.5859 117.144 43.8555L116.804 44.582C115.175 44.3066 113.593 43.4395 112.96 42.1797C112.327 43.4395 110.739 44.3066 109.14 44.582L108.777 43.8555C110.581 43.5859 112.445 42.4023 112.445 41.0078V40.9375H109.105V40.1875H116.804V40.9375H113.476V41.0078ZM117.706 45.4727V46.2344H113.394V49.9492H112.491V46.2344H108.214V45.4727H117.706ZM122.168 42.332C122.157 44.2305 123.457 46.1523 124.993 46.8438L124.43 47.5703C123.246 46.9902 122.221 45.7656 121.723 44.2773C121.237 45.8535 120.211 47.166 118.993 47.7812L118.407 47.0078C119.953 46.293 121.243 44.3125 121.254 42.332V40.4336H122.168V42.332ZM127.055 39.5312V49.9727H126.129V39.5312H127.055ZM133.99 40.4453V41.3711H136.427V39.543H137.353V47.1484H136.427V44.3711H133.99V45.3086H129.208V40.4453H133.99ZM130.122 41.207V44.5703H133.087V41.207H130.122ZM137.587 48.9531V49.7266H130.615V46.4688H131.54V48.9531H137.587ZM133.99 43.6094H136.427V42.1445H133.99V43.6094ZM150.754 39.5312V49.9492H149.851V44.5H148.41V49.4336H147.531V39.8125H148.41V43.7383H149.851V39.5312H150.754ZM146.347 40.8906C146.336 43.5391 145.41 46.0469 142.41 47.7109L141.871 47.0664C144.291 45.7188 145.293 43.8086 145.445 41.6523H142.269V40.8906H146.347ZM153.458 39.9766V41.4766H156.493V39.9766H157.407V44.5117H152.555V39.9766H153.458ZM153.458 43.7617H156.493V42.1914H153.458V43.7617ZM160.255 39.5312V41.793H161.825V42.5664H160.255V44.9219H159.341V39.5312H160.255ZM160.255 45.4141V47.9336H154.536V49.082H160.641V49.832H153.634V47.2305H159.341V46.1523H153.61V45.4141H160.255ZM171.291 39.5312V49.9492H170.4V39.5312H171.291ZM169.193 39.7539V49.4219H168.314V44.3594H166.978C166.879 46.3867 166.018 47.6523 164.728 47.6523C163.369 47.6523 162.49 46.2461 162.49 44.0312C162.49 41.8164 163.369 40.4102 164.728 40.4102C165.994 40.4102 166.85 41.6348 166.967 43.5977H168.314V39.7539H169.193ZM164.728 41.2773C163.885 41.2773 163.346 42.332 163.357 44.0312C163.346 45.7188 163.885 46.7852 164.728 46.7734C165.572 46.7852 166.111 45.7188 166.111 44.0312C166.111 42.332 165.572 41.2773 164.728 41.2773ZM183.918 44.418V45.168H180.695V47.8633H185.043V48.6367H175.504V47.8633H179.793V45.168H176.723V40.3867H183.813V41.1367H177.649V44.418H183.918ZM190.501 39.7305C192.763 39.7305 194.181 40.457 194.181 41.6992C194.181 42.918 192.763 43.6328 190.501 43.6328C188.24 43.6328 186.81 42.918 186.81 41.6992C186.81 40.457 188.24 39.7305 190.501 39.7305ZM190.501 40.457C188.814 40.457 187.747 40.9141 187.759 41.6992C187.747 42.4609 188.814 42.9062 190.501 42.9062C192.165 42.9062 193.243 42.4609 193.243 41.6992C193.243 40.9141 192.165 40.457 190.501 40.457ZM194.087 46.3867V49.8086H186.915V46.3867H190.044V45.1914H185.755V44.4297H195.247V45.1914H190.947V46.3867H194.087ZM187.829 47.125V49.0586H193.185V47.125H187.829ZM204.596 39.5312V49.9727H203.67V39.5312H204.596ZM199.053 40.3398C200.6 40.3516 201.713 41.7578 201.713 43.9727C201.713 46.1875 200.6 47.5938 199.053 47.5938C197.495 47.5938 196.393 46.1875 196.393 43.9727C196.393 41.7578 197.495 40.3516 199.053 40.3398ZM199.053 41.1602C198.01 41.1719 197.284 42.2734 197.284 43.9727C197.284 45.6719 198.01 46.7734 199.053 46.7734C200.096 46.7734 200.823 45.6719 200.823 43.9727C200.823 42.2734 200.096 41.1719 199.053 41.1602ZM217.751 39.543V45.5312H216.825V39.543H217.751ZM209.184 44.5117C210.069 44.5117 211.1 44.5059 212.173 44.4648V43.3516H210.133V40.0586H215.079V40.8203H211.059V42.6133H215.173V43.3516H213.098V44.4297C214.065 44.3887 215.044 44.3066 215.958 44.1836L216.016 44.8516C213.731 45.2383 211.2 45.2734 209.325 45.2734L209.184 44.5117ZM211.798 46V47.1133H216.848V46H217.751V49.8086H210.883V46H211.798ZM211.798 49.0586H216.848V47.8281H211.798V49.0586ZM227.99 39.5312V49.9492H227.076V39.5312H227.99ZM220.982 40.5625V46.4688C222.57 46.4629 224.217 46.334 225.963 45.9648L226.092 46.75C224.24 47.1367 222.588 47.2656 220.924 47.2656H220.08V40.5625H220.982ZM237.714 39.5312V43.6562H239.46V44.4297H237.714V49.9727H236.8V39.5312H237.714ZM234.972 40.5508V41.3125H231.022V46.5859C232.909 46.5859 234.245 46.498 235.792 46.2109L235.909 47.0078C234.28 47.3008 232.909 47.3594 230.929 47.3594H230.108V40.5508H234.972ZM241.004 49.0703C240.594 49.0703 240.242 48.7305 240.254 48.3086C240.242 47.8984 240.594 47.5586 241.004 47.5586C241.414 47.5586 241.754 47.8984 241.754 48.3086C241.754 48.7305 241.414 49.0703 241.004 49.0703Z" fill="#DAE9FC"/>
<path d="M286.37 21.2411C285.951 20.8816 285.32 20.9296 284.96 21.3485C284.601 21.7676 284.648 22.3991 285.067 22.7586L290.157 27.1229L285.09 31.2225C284.66 31.5699 284.594 32.1994 284.941 32.6288C285.289 33.0581 285.918 33.1246 286.348 32.7772L293.281 27.1678L286.37 21.2411Z" fill="#F9FAFB"/>
</svg>
