<svg width="46" height="46" viewBox="0 0 46 46" fill="none" xmlns="http://www.w3.org/2000/svg">
<g clip-path="url(#clip0_1894_1951)">
<path d="M28 38H18C17.1768 37.9967 16.3775 37.7225 15.7256 37.2199C15.0736 36.7172 14.6052 36.014 14.3925 35.2188C14.7505 33.196 15.8093 31.364 17.3833 30.0441C18.9573 28.7242 20.9458 28.0008 23 28.0008C25.0542 28.0008 27.0427 28.7242 28.6167 30.0441C30.1907 31.364 31.2495 33.196 31.6075 35.2188C31.3948 36.014 30.9264 36.7172 30.2744 37.2199C29.6225 37.7225 28.8232 37.9967 28 38ZM11.75 34.25V24.78C10.6367 25.2659 9.68912 26.0657 9.02312 27.0815C8.35713 28.0974 8.0016 29.2853 8 30.5L8 31.75C8.00195 33.1725 8.48907 34.5517 9.38089 35.6599C10.2727 36.7681 11.5159 37.5389 12.905 37.845C12.1551 36.7962 11.7513 35.5394 11.75 34.25ZM34.25 24.78V34.25C34.2487 35.5394 33.8449 36.7962 33.095 37.845C34.4841 37.5389 35.7273 36.7681 36.6191 35.6599C37.5109 34.5517 37.9981 33.1725 38 31.75V30.5C37.9984 29.2853 37.6429 28.0974 36.9769 27.0815C36.3109 26.0657 35.3633 25.2659 34.25 24.78ZM31.75 21.75V29.695C30.6984 28.3856 29.3663 27.3288 27.8519 26.6028C26.3375 25.8767 24.6795 25.4997 23 25.4997C21.3205 25.4997 19.6625 25.8767 18.1481 26.6028C16.6337 27.3288 15.3016 28.3856 14.25 29.695V21.75C14.2509 20.3411 14.5923 18.9533 15.2453 17.7049C15.8982 16.4565 16.8433 15.3844 18 14.58V13C18 11.6739 18.5268 10.4021 19.4645 9.46447C20.4021 8.52678 21.6739 8 23 8C24.3261 8 25.5979 8.52678 26.5355 9.46447C27.4732 10.4021 28 11.6739 28 13V14.58C29.1567 15.3844 30.1018 16.4565 30.7547 17.7049C31.4077 18.9533 31.7491 20.3411 31.75 21.75ZM20.5 13.375C22.1304 12.8833 23.8696 12.8833 25.5 13.375V13C25.5 12.337 25.2366 11.7011 24.7678 11.2322C24.2989 10.7634 23.663 10.5 23 10.5C22.337 10.5 21.7011 10.7634 21.2322 11.2322C20.7634 11.7011 20.5 12.337 20.5 13V13.375ZM26.75 20.5C26.75 20.1685 26.6183 19.8505 26.3839 19.6161C26.1495 19.3817 25.8315 19.25 25.5 19.25H20.5C20.1685 19.25 19.8505 19.3817 19.6161 19.6161C19.3817 19.8505 19.25 20.1685 19.25 20.5C19.25 20.8315 19.3817 21.1495 19.6161 21.3839C19.8505 21.6183 20.1685 21.75 20.5 21.75H25.5C25.8315 21.75 26.1495 21.6183 26.3839 21.3839C26.6183 21.1495 26.75 20.8315 26.75 20.5Z" fill="url(#paint0_linear_1894_1951)"/>
</g>
<defs>
<linearGradient id="paint0_linear_1894_1951" x1="23" y1="8" x2="23" y2="38" gradientUnits="userSpaceOnUse">
<stop stop-color="#1F7DEA"/>
<stop offset="1" stop-color="#1264C4"/>
</linearGradient>
<clipPath id="clip0_1894_1951">
<rect width="38" height="38" fill="white" transform="translate(4 4)"/>
</clipPath>
</defs>
</svg>
