<svg width="19" height="19" viewBox="0 0 19 19" fill="none" xmlns="http://www.w3.org/2000/svg">
<path fill-rule="evenodd" clip-rule="evenodd" d="M0.500001 9.5C0.500001 4.52944 4.52944 0.499999 9.5 0.499999C14.4706 0.5 18.5 4.52944 18.5 9.5C18.5 14.4706 14.4706 18.5 9.5 18.5C4.52944 18.5 0.5 14.4706 0.500001 9.5ZM8.5 13.5C8.5 12.9477 8.94772 12.5 9.5 12.5C10.0523 12.5 10.5 12.9477 10.5 13.5C10.5 14.0523 10.0523 14.5 9.5 14.5C8.94772 14.5 8.5 14.0523 8.5 13.5ZM8.5 4.5L8.5 10.5L10.5 10.5L10.5 4.5L8.5 4.5Z" fill="white"/>
</svg>
