<svg width="320" height="70" viewBox="0 0 320 70" fill="none" xmlns="http://www.w3.org/2000/svg">
<rect width="320" height="70" rx="10" fill="url(#paint0_linear_2544_2876)"/>
<path d="M30.1616 21.8715V25.7535H31.8874V27.0055H30.1616V31.105H28.634V21.8715H30.1616ZM20.4206 24.4482V23.2396H23.3356V21.8619H24.8488V23.2396H27.7541V24.4482H20.4206ZM21.0587 27.3294C21.0539 25.9081 22.2914 24.9655 24.0946 24.9655C25.8688 24.9655 27.1015 25.9081 27.1064 27.3294C27.1015 28.7362 25.8688 29.6644 24.0946 29.6595C22.2914 29.6644 21.0539 28.7362 21.0587 27.3294ZM22.2431 33.9765V30.3798H23.7562V32.7438H30.645V33.9765H22.2431ZM22.5331 27.3294C22.5235 28.0691 23.1519 28.4993 24.0946 28.4945C25.0276 28.4993 25.6561 28.0691 25.6657 27.3294C25.6561 26.5753 25.0276 26.1354 24.0946 26.1354C23.1519 26.1354 22.5235 26.5753 22.5331 27.3294ZM36.9435 25.3667C36.9339 27.2811 38.0796 29.4517 40.0278 30.3605L39.177 31.5594C37.7847 30.9116 36.755 29.5822 36.1991 28.0352C35.6383 29.732 34.5602 31.1823 33.1438 31.8688L32.2495 30.6699C34.217 29.7417 35.4159 27.4261 35.4207 25.3667V24.3273H32.7281V23.0801H39.525V24.3273H36.9435V25.3667ZM40.6659 34.2086V21.8619H42.1887V26.6671H44.0934V27.9434H42.1887V34.2086H40.6659ZM54.9071 21.8619V34.2376H53.394V21.8619H54.9071ZM45.2821 24.1678V22.9351H51.1025V27.5711H46.8581V30.0559C48.8014 30.0463 50.4789 29.9496 52.4078 29.6257L52.5431 30.8681C50.4402 31.2307 48.5936 31.308 46.3746 31.308H45.2918V26.3626H49.5556V24.1678H45.2821ZM67.9929 27.4648V28.6057H56.6952V27.4648H67.9929ZM58.0102 30.4185V29.3453H66.62V32.1637H59.5378V33.0242H66.997V34.078H58.0247V31.1775H65.1117V30.4185H58.0102ZM58.0972 23.1816V22.1374H66.5958V24.922H59.6345V25.7196H66.8085V26.7686H58.1262V23.9358H65.0778V23.1816H58.0972ZM78.4065 22.9206V28.77H72.5522V22.9206H78.4065ZM73.9638 33.9765V30.0076H75.4769V32.7438H82.3657V33.9765H73.9638ZM74.0508 27.5615H76.9127V24.1388H74.0508V27.5615ZM80.3547 30.8874V21.8619H81.8823V25.4827H83.6081V26.7445H81.8823V30.8874H80.3547ZM95.5095 28.0062V29.2244H84.2312V28.0062H95.5095ZM85.6187 33.962V30.3073H87.1221V32.7293H94.33V33.962H85.6187ZM85.6187 26.8798V22.3453H94.1414V23.5587H87.1366V25.6519H94.2526V26.8798H85.6187ZM104.067 24.8301C104.057 27.0297 105.164 29.2631 107.074 30.1865L106.15 31.4047C104.806 30.7279 103.849 29.4227 103.322 27.8515C102.776 29.529 101.766 30.9261 100.354 31.6367L99.4162 30.4088C101.408 29.471 102.539 27.107 102.549 24.8301V22.8529H104.067V24.8301ZM107.808 34.2086V21.8619H109.331V26.7058H111.236V27.9965H109.331V34.2086H107.808ZM121.503 21.8715V24.8736H123.239V26.145H121.503V29.2148H119.976V21.8715H121.503ZM112.212 23.7231V22.5H117.868V26.1257H113.749V27.4454C115.842 27.4406 117.288 27.3729 118.975 27.0925L119.13 28.2914C117.293 28.6347 115.683 28.6975 113.246 28.6975H112.236V24.9751H116.379V23.7231H112.212ZM113.503 34.0635V29.7562H121.503V34.0635H113.503ZM114.992 32.8356H120.014V30.9454H114.992V32.8356ZM135.131 26.8025V28.0062H123.852V26.8025H135.131ZM125.177 30.0124V28.8522H133.709V31.9655H126.68V32.8985H134.048V34.0925H125.191V30.8633H132.211V30.0124H125.177ZM125.288 26.0145V22.1713H133.68V23.3847H126.806V24.8059H133.787V26.0145H125.288Z" fill="white"/>
<path d="M27.1996 41.0856V43.8999H28.4669V44.6733H27.1996V47.636H26.2707V41.0856H27.1996ZM20.3349 42.8536V42.1077H22.4827V41.0822H23.4047V42.1077H25.5421V42.8536H20.3349ZM20.8115 44.9323C20.808 43.9275 21.6713 43.2749 22.942 43.2749C24.1954 43.2749 25.0587 43.9275 25.0622 44.9323C25.0587 45.9199 24.1954 46.5656 22.942 46.5656C21.6713 46.5656 20.808 45.9199 20.8115 44.9323ZM21.654 49.6492V47.1146H22.576V48.8895H27.5725V49.6492H21.654ZM21.7058 44.9323C21.6989 45.4986 22.1961 45.8474 22.942 45.8439C23.6809 45.8474 24.1782 45.4986 24.1851 44.9323C24.1782 44.3522 23.6809 43.9931 22.942 43.9931C22.1961 43.9931 21.6989 44.3522 21.7058 44.9323ZM32.0162 43.6616C32.0093 45.0394 32.9209 46.5829 34.2469 47.2079L33.722 47.9399C32.7379 47.4669 31.9609 46.4793 31.5638 45.3363C31.1633 46.5829 30.3449 47.6637 29.3505 48.1575L28.8014 47.4254C30.1274 46.7901 31.0908 45.1395 31.0977 43.6616V42.7258H29.126V41.9593H33.9154V42.7258H32.0162V43.6616ZM34.8546 49.8287V41.0787H35.7835V44.549H37.1854V45.3329H35.7835V49.8287H34.8546ZM44.868 41.0787V49.846H43.9495V41.0787H44.868ZM38.0932 42.6257V41.866H42.1919V45.067H39.0566V46.98C40.4723 46.9731 41.712 46.9075 43.176 46.6657L43.2624 47.4323C41.712 47.6878 40.3929 47.7465 38.8528 47.7465H38.1035V44.3211H41.2527V42.6257H38.0932ZM47.8235 48.3163L47.0396 51.0166H46.2109L46.7323 48.3163H47.8235ZM58.5002 41.0787V49.846H57.5679V41.0787H58.5002ZM51.5527 44.8046C51.5527 42.9296 52.4954 41.7383 53.8145 41.7348C55.1197 41.7383 56.0728 42.9296 56.0728 44.8046C56.0728 46.6899 55.1197 47.8812 53.8145 47.8812C52.4954 47.8812 51.5527 46.6899 51.5527 44.8046ZM52.4471 44.8046C52.4471 46.1927 53.0065 47.049 53.8145 47.049C54.6225 47.049 55.175 46.1927 55.175 44.8046C55.175 43.4268 54.6225 42.5704 53.8145 42.5635C53.0065 42.5704 52.4471 43.4268 52.4471 44.8046ZM64.1629 41.6865V44.3211H61.176V45.578C62.7229 45.5746 63.7105 45.5297 64.8466 45.3398L64.926 46.1029C63.7001 46.2963 62.647 46.3343 60.9377 46.3343H60.2437V43.5891H63.2443V42.4323H60.2264V41.6865H64.1629ZM61.4488 49.6492V47.018H62.3742V48.8895H67.4363V49.6492H61.4488ZM64.6843 44.1001V43.3094H66.2623V41.0856H67.1877V47.5186H66.2623V44.1001H64.6843ZM74.0107 43.3059C74.0037 44.8529 74.9084 46.4378 76.2068 47.0732L75.637 47.8156C74.6805 47.3218 73.9416 46.3412 73.5583 45.174C73.1681 46.4171 72.4015 47.4634 71.4071 47.9814L70.8304 47.2355C72.1736 46.5863 73.0818 44.9116 73.0887 43.3059V41.8073H74.0107V43.3059ZM76.8663 49.8287V41.0787H77.7952V44.5698H79.1971V45.3605H77.7952V49.8287H76.8663ZM86.4965 41.0856V43.268H87.7706V44.0518H86.4965V46.2928H85.5676V41.0856H86.4965ZM79.9668 42.2942V41.5449H83.955V44.0242H80.906V45.1084C82.4253 45.1119 83.5027 45.067 84.7768 44.8529L84.8735 45.5919C83.5199 45.837 82.3632 45.8819 80.685 45.8819H79.984V43.3163H83.0469V42.2942H79.9668ZM80.8922 49.7182V46.7037H86.4965V49.7182H80.8922ZM81.7969 48.9655H85.5918V47.4289H81.7969V48.9655ZM96.2509 44.6664V45.4088H88.264V44.6664H96.2509ZM89.2136 46.8108V46.096H95.2288V48.2162H90.139V49H95.4809V49.7355H89.2309V47.5325H94.3172V46.8108H89.2136ZM89.3034 44.0276V41.3377H95.215V42.0801H90.2288V43.2818H95.2979V44.0276H89.3034ZM104.155 41.0787V49.846H103.222V41.0787H104.155ZM97.207 44.8046C97.207 42.9296 98.1497 41.7383 99.4688 41.7348C100.774 41.7383 101.727 42.9296 101.727 44.8046C101.727 46.6899 100.774 47.8812 99.4688 47.8812C98.1497 47.8812 97.207 46.6899 97.207 44.8046ZM98.1014 44.8046C98.1014 46.1927 98.6608 47.049 99.4688 47.049C100.277 47.049 100.829 46.1927 100.829 44.8046C100.829 43.4268 100.277 42.5704 99.4688 42.5635C98.6608 42.5704 98.1014 43.4268 98.1014 44.8046ZM115.998 47.971V48.7376H107.991V47.971H111.513V45.9475H108.902V41.7797H115.038V45.9475H112.431V47.971H115.998ZM109.81 45.212H114.13V42.529H109.81V45.212ZM119.005 41.7348C119.803 41.7383 120.456 42.1906 120.842 42.9814H123.011V41.0787H123.929V49.846H123.011V46.4896H120.908C120.535 47.3702 119.851 47.8812 119.005 47.8812C117.697 47.8812 116.778 46.6899 116.785 44.8046C116.778 42.9296 117.697 41.7383 119.005 41.7348ZM117.669 44.8046C117.669 46.1927 118.211 47.049 119.005 47.049C119.793 47.049 120.338 46.1927 120.338 44.8046C120.338 43.4268 119.793 42.5704 119.005 42.5635C118.211 42.5704 117.669 43.4268 117.669 44.8046ZM121.105 43.7445C121.177 44.0656 121.215 44.4213 121.215 44.8046C121.215 45.136 121.184 45.4468 121.132 45.7334H123.011V43.7445H121.105ZM132.151 41.8488V45.9372H128.052V41.8488H132.151ZM128.96 45.1982H131.243V42.5981H128.96V45.1982ZM129.047 49.6492V46.866H129.969V48.8895H134.965V49.6492H129.047ZM133.663 47.4807V41.0753H134.592V43.6927H135.859V44.4662H134.592V47.4807H133.663ZM144.347 44.6664V45.4088H136.36V44.6664H144.347ZM137.309 46.8108V46.096H143.325V48.2162H138.235V49H143.577V49.7355H137.327V47.5325H142.413V46.8108H137.309ZM137.399 44.0276V41.3377H143.311V42.0801H138.325V43.2818H143.394V44.0276H137.399ZM148.11 46.8488C148.103 47.6119 148.48 48.4061 149.274 48.893C150.075 48.3646 150.455 47.5186 150.462 46.8488V46.3791H151.37V46.8488C151.37 47.7569 151.964 48.6512 153.124 49.0242L152.644 49.7148C151.784 49.4075 151.201 48.8204 150.9 48.1022C150.62 48.8032 150.092 49.4523 149.284 49.7873C148.455 49.4731 147.927 48.8515 147.654 48.1333C147.34 48.8204 146.76 49.404 145.938 49.7148L145.482 49.0242C146.605 48.6305 147.209 47.7051 147.212 46.8488V46.3791H148.11V46.8488ZM145.134 43.6236C145.134 42.4185 146.104 41.5552 147.419 41.5622C148.555 41.5552 149.457 42.232 149.654 43.2231H151.37V41.0787H152.295V46.0442H151.37V43.9827H149.664C149.484 45.0014 148.573 45.692 147.419 45.692C146.104 45.692 145.134 44.8356 145.134 43.6236ZM146.024 43.6236C146.018 44.3833 146.611 44.9185 147.419 44.922C148.214 44.9185 148.804 44.3833 148.808 43.6236C148.804 42.857 148.214 42.3356 147.419 42.3391C146.611 42.3356 146.018 42.857 146.024 43.6236ZM156.017 41.7348C157.202 41.7383 158.072 42.7431 158.21 44.3591H160.023V41.0787H160.941V49.846H160.023V45.1153H158.217C158.12 46.8211 157.236 47.8812 156.017 47.8812C154.708 47.8812 153.79 46.6899 153.797 44.8046C153.79 42.9296 154.708 41.7383 156.017 41.7348ZM154.681 44.8046C154.681 46.1927 155.223 47.049 156.017 47.049C156.804 47.049 157.35 46.1927 157.35 44.8046C157.35 43.4268 156.804 42.5704 156.017 42.5635C155.223 42.5704 154.681 43.4268 154.681 44.8046ZM170.295 47.971V48.7376H162.287V47.971H164.204V45.6816C163.482 45.288 163.044 44.6595 163.044 43.8757C163.044 42.4979 164.394 41.5932 166.269 41.5863C168.151 41.5932 169.504 42.4979 169.504 43.8757C169.504 44.6492 169.08 45.2673 168.375 45.6644V47.971H170.295ZM163.945 43.8757C163.945 44.8115 164.898 45.4227 166.269 45.4227C167.633 45.4227 168.6 44.8115 168.6 43.8757C168.6 42.9296 167.633 42.3287 166.269 42.3356C164.898 42.3287 163.945 42.9296 163.945 43.8757ZM165.116 47.971H167.439V46.02C167.08 46.1029 166.687 46.1478 166.269 46.1478C165.854 46.1478 165.468 46.1029 165.116 46.0235V47.971ZM171.925 49.0656C171.541 49.0656 171.224 48.7548 171.23 48.375C171.224 47.9952 171.541 47.6844 171.925 47.6844C172.297 47.6844 172.615 47.9952 172.615 48.375C172.615 48.7548 172.297 49.0656 171.925 49.0656Z" fill="white"/>
<defs>
<linearGradient id="paint0_linear_2544_2876" x1="178.5" y1="-14" x2="178.5" y2="88" gradientUnits="userSpaceOnUse">
<stop stop-color="#5D7B9F"/>
<stop offset="1" stop-color="#495F78"/>
</linearGradient>
</defs>
</svg>
